<?xml version="1.0" standalone="no"?>
<!DOCTYPE svg PUBLIC "-//W3C//DTD SVG 20010904//EN"
 "http://www.w3.org/TR/2001/REC-SVG-20010904/DTD/svg10.dtd">
<svg version="1.0" xmlns="http://www.w3.org/2000/svg"
 width="1024.000000pt" height="1024.000000pt" viewBox="0 0 1024.000000 1024.000000"
 preserveAspectRatio="xMidYMid meet">

<g transform="translate(0.000000,1024.000000) scale(0.100000,-0.100000)"
fill="#000000" stroke="none">
<path d="M4904 9880 c-569 -34 -1270 -226 -1844 -506 -233 -114 -309 -157
-501 -286 -446 -298 -827 -633 -1139 -998 -223 -261 -522 -723 -688 -1060
-255 -521 -394 -1002 -489 -1700 -21 -156 -29 -600 -14 -788 16 -196 62 -516
107 -737 149 -742 525 -1540 1005 -2130 279 -344 829 -842 1189 -1077 294
-192 764 -414 1169 -552 l133 -46 1443 0 1443 0 134 46 c203 70 535 214 709
308 620 334 1023 654 1471 1167 402 462 740 1043 962 1658 104 286 148 460
212 840 l34 205 0 600 c0 334 -5 641 -10 691 -31 276 -118 667 -208 935 -141
419 -376 890 -605 1215 -265 375 -403 543 -661 800 -179 178 -255 246 -401
356 -640 483 -1232 769 -1940 939 -373 89 -621 118 -1065 124 -168 3 -368 1
-446 -4z m602 -193 c4 -4 -2 -17 -14 -30 -12 -13 -22 -34 -22 -46 l0 -23 -172
7 c-131 5 -216 3 -348 -10 -207 -20 -531 -73 -685 -114 -60 -16 -132 -31 -160
-35 l-50 -6 71 34 c39 19 100 52 136 75 150 95 264 122 633 150 131 11 600 9
611 -2z m390 -17 c178 -19 512 -91 724 -156 406 -126 697 -251 975 -419 66
-40 172 -103 235 -140 98 -58 371 -245 406 -279 6 -6 37 -33 69 -61 32 -27 92
-93 134 -145 92 -114 107 -136 153 -220 20 -36 50 -91 68 -122 17 -32 29 -58
26 -58 -2 0 -36 30 -74 68 -401 393 -610 561 -1005 809 -360 226 -676 365
-1082 475 -234 63 -304 80 -420 98 -66 10 -158 26 -205 34 -47 9 -105 17 -130
17 -49 2 -110 22 -110 38 0 5 8 23 18 40 16 29 21 31 72 31 30 0 96 -5 146
-10z m-931 -167 c-22 -15 -112 -64 -200 -108 -282 -143 -325 -170 -530 -324
-126 -94 -205 -161 -273 -227 -29 -29 -70 -65 -90 -80 -53 -40 -152 -135 -152
-146 0 -5 25 13 57 41 31 28 71 57 90 66 19 9 51 35 71 58 20 22 48 50 62 61
13 12 49 44 80 72 106 97 352 269 469 328 140 71 389 154 571 190 69 14 140
30 158 35 17 5 32 6 32 2 0 -9 -130 -57 -365 -135 -93 -31 -178 -61 -188 -67
-10 -5 -22 -7 -28 -3 -6 3 -23 -5 -37 -19 -15 -13 -43 -33 -62 -42 -44 -22
-243 -162 -334 -235 -51 -41 -65 -56 -51 -58 9 -2 20 0 24 5 10 15 202 129
263 156 31 14 59 31 63 37 8 13 72 54 100 63 14 5 12 1 -8 -14 -27 -21 -274
-319 -376 -454 -29 -38 -58 -77 -65 -85 -6 -9 -27 -38 -46 -65 -18 -28 -61
-84 -95 -125 -74 -90 -83 -104 -64 -98 16 5 65 66 231 283 376 495 545 651
783 725 81 25 217 30 280 11 74 -23 95 -33 95 -47 0 -10 -76 -159 -120 -234
-4 -8 -45 -84 -91 -169 -75 -143 -235 -407 -349 -576 -25 -38 -79 -126 -120
-195 -40 -69 -87 -143 -104 -165 -17 -22 -60 -80 -95 -128 -34 -48 -73 -98
-84 -110 -20 -21 -37 -41 -117 -141 -56 -70 -335 -376 -343 -376 -2 0 -32 -27
-67 -61 -211 -197 -544 -451 -755 -574 -44 -26 -99 -60 -123 -76 -35 -24 -82
-39 -82 -26 0 21 33 106 39 102 5 -3 12 2 15 11 3 8 2 12 -4 9 -13 -8 -12 -5
1 33 6 17 17 33 25 36 9 3 13 10 9 15 -3 5 -1 12 5 16 5 3 10 11 10 16 0 6 -5
7 -10 4 -6 -4 -5 5 2 19 6 14 15 26 19 26 5 0 6 6 3 14 -3 8 0 17 7 22 8 5 10
3 4 -6 -6 -9 -4 -11 4 -6 7 5 10 14 7 22 -3 8 -1 14 4 14 4 0 11 13 15 30 3
16 15 41 26 55 11 14 18 25 15 25 -9 0 37 89 159 310 172 312 250 442 317 529
34 45 92 124 128 175 93 132 100 141 100 134 0 -4 -19 -37 -42 -73 -23 -37
-42 -74 -43 -84 -3 -27 -27 -71 -36 -65 -5 3 -7 -11 -4 -30 3 -24 0 -35 -7
-33 -7 1 -19 -23 -27 -54 -9 -31 -21 -62 -27 -70 -24 -31 -49 -193 -49 -319 1
-128 8 -180 25 -180 6 0 10 19 10 43 0 56 20 157 70 356 23 90 39 170 36 178
-3 8 -2 12 3 9 10 -7 21 27 21 64 0 14 7 35 15 47 9 12 17 39 18 59 1 23 11
46 25 60 12 13 22 30 22 39 0 8 11 33 25 54 13 22 26 50 29 63 2 13 23 58 45
101 42 78 42 109 0 40 -12 -21 -52 -70 -88 -108 -36 -39 -88 -101 -116 -139
-27 -37 -71 -94 -97 -126 -27 -33 -48 -64 -48 -70 0 -5 -4 -10 -8 -10 -5 0
-26 -26 -48 -57 -21 -32 -42 -59 -46 -61 -5 -2 -8 -10 -8 -18 0 -8 -4 -14 -10
-14 -14 0 -13 7 9 103 19 80 78 254 100 293 11 20 51 131 51 141 0 3 -14 -10
-30 -28 -74 -83 -146 -290 -166 -476 -6 -62 -5 -67 10 -54 24 20 21 -5 -5 -49
-12 -19 -41 -71 -64 -115 -54 -104 -152 -255 -166 -255 -5 0 -8 -4 -5 -9 3 -5
-13 -35 -37 -67 -23 -33 -55 -84 -70 -115 -14 -30 -42 -73 -61 -95 -35 -39
-35 -39 -36 -12 0 15 5 39 10 54 6 15 33 118 61 228 27 111 54 210 58 221 5
11 19 49 31 85 12 36 31 83 41 106 10 23 36 81 57 130 70 161 96 218 148 322
28 56 50 102 48 102 -8 0 -144 -190 -163 -228 -49 -96 -173 -400 -215 -525
-42 -122 -97 -314 -125 -430 -6 -27 -21 -58 -31 -70 -11 -11 -20 -26 -19 -31
0 -6 3 -5 6 2 2 6 8 12 13 12 9 0 1 -76 -12 -105 -7 -16 -8 -15 -5 8 5 35 -10
46 -22 15 -7 -19 -25 -354 -25 -478 -1 -202 80 -635 145 -779 12 -25 28 -62
35 -81 l15 -35 -22 25 c-11 14 -31 45 -44 70 -28 57 -109 297 -124 370 -35
171 -61 557 -43 651 7 35 6 48 -5 55 -16 11 -19 105 -8 249 10 137 21 147 18
17 -3 -150 13 -61 27 153 15 240 18 272 29 313 6 20 12 53 15 72 3 19 9 53 15
75 l10 40 -22 -30 c-12 -16 -23 -40 -24 -53 -1 -13 -15 -50 -32 -82 -22 -42
-36 -92 -51 -186 -12 -71 -26 -145 -30 -164 -46 -181 -71 -382 -50 -395 6 -4
7 -13 1 -23 -11 -22 -3 -44 12 -35 7 4 6 -1 -2 -10 -10 -12 -10 -17 -2 -17 7
0 11 -10 9 -22 -2 -15 4 -27 16 -33 18 -9 26 -33 27 -80 0 -11 4 -22 10 -26
12 -7 29 -170 23 -220 -12 -110 -16 -962 -5 -1128 8 -121 9 -187 3 -193 -6 -6
-30 -14 -54 -18 -48 -9 -52 -6 -69 55 -5 22 -25 90 -44 150 -83 274 -117 427
-181 805 -18 109 -38 507 -35 719 2 147 13 251 46 404 12 61 49 116 150 231
58 65 127 148 152 185 26 36 73 95 104 131 31 36 69 88 84 115 15 28 38 64 51
82 39 52 27 75 -14 28 -13 -14 -27 -23 -33 -20 -5 4 -2 13 9 23 10 9 11 13 3
7 -26 -16 61 84 150 175 46 47 136 144 200 215 64 72 168 182 230 245 162 164
267 290 178 216 -17 -14 -34 -26 -39 -26 -5 0 -38 -30 -74 -66 -43 -43 -69
-63 -78 -58 -7 4 -10 4 -6 0 4 -5 -3 -18 -15 -30 -12 -12 -38 -42 -57 -66 -72
-90 -157 -188 -227 -260 -39 -41 -93 -100 -120 -130 -97 -109 -123 -135 -117
-115 10 29 -1 17 -29 -34 -25 -44 -355 -384 -412 -424 -16 -12 -25 -15 -19 -7
6 8 19 40 29 70 24 75 90 241 127 320 112 241 185 381 217 420 40 47 64 100
41 85 -17 -11 -6 8 36 60 17 22 46 67 64 100 18 33 45 76 59 95 15 19 49 69
74 110 26 41 74 104 107 139 33 35 60 66 60 68 0 13 206 205 259 242 121 82
263 203 249 212 -9 6 -7 9 7 9 12 0 25 4 30 9 16 13 106 41 134 41 l26 -1 -31
-17 c-17 -9 -48 -30 -70 -46 -21 -17 -64 -48 -94 -70 -83 -61 -172 -144 -227
-211 -27 -33 -69 -80 -92 -104 -100 -104 -280 -344 -273 -365 2 -5 -2 -23 -7
-40 l-11 -31 20 25 c11 14 46 63 77 109 145 210 375 461 529 579 243 184 254
191 354 222 164 52 488 108 635 109 l90 1 -40 -27z m927 -16 c10 -7 18 -15 18
-19 0 -4 15 -14 34 -23 18 -9 48 -34 65 -55 l31 -39 -37 6 c-33 6 -36 4 -31
-14 13 -48 -10 -43 -47 9 -72 99 -117 131 -191 132 -38 1 -54 5 -54 15 0 11
18 12 97 6 53 -4 105 -12 115 -18z m193 -11 c647 -124 1123 -314 1610 -643 90
-61 125 -92 193 -174 71 -86 102 -114 102 -94 0 3 -27 35 -61 71 -33 36 -58
68 -56 71 3 3 27 -10 52 -29 26 -18 64 -44 84 -57 95 -63 207 -156 317 -263
67 -65 126 -118 132 -118 6 0 64 -53 129 -117 164 -163 204 -238 349 -663 74
-218 134 -421 153 -520 6 -30 20 -93 31 -140 70 -296 103 -495 55 -335 -13 44
-35 112 -50 150 -14 39 -39 106 -55 150 -46 129 -126 336 -153 395 -73 161
-109 232 -113 227 -3 -3 15 -68 40 -144 145 -436 238 -821 218 -897 l-8 -29
-16 25 c-9 14 -24 76 -33 138 -15 103 -27 152 -82 353 -15 53 -25 68 -36 50
-3 -5 2 -30 10 -58 8 -27 16 -70 17 -95 2 -25 6 -81 10 -125 l7 -80 -26 30
c-14 17 -40 56 -57 89 -18 32 -38 60 -45 63 -7 3 -10 9 -7 14 3 5 -4 22 -15
38 -12 16 -21 33 -21 38 0 5 -12 19 -26 32 -14 12 -32 38 -41 58 -14 35 -35
63 -47 63 -7 0 60 -110 109 -180 19 -27 33 -50 30 -50 -9 0 39 -88 110 -205
37 -60 88 -144 113 -185 25 -41 71 -113 102 -160 144 -213 215 -330 281 -460
127 -253 217 -492 207 -553 -3 -17 -7 -12 -16 21 -7 23 -16 42 -20 42 -4 0
-23 26 -42 58 -57 96 -169 263 -234 347 -34 44 -89 122 -122 173 -32 51 -83
125 -111 164 -29 39 -53 78 -53 85 0 8 -4 12 -10 8 -12 -8 6 -54 30 -77 16
-15 40 -75 40 -101 0 -4 25 -44 56 -88 43 -63 58 -95 67 -142 12 -68 16 -591
4 -603 -19 -20 -31 36 -46 226 -6 74 -16 188 -21 253 -6 64 -14 125 -19 135
-5 9 -12 25 -15 35 -3 9 -15 17 -26 17 -12 0 -20 -7 -21 -17 -1 -31 -14 12
-49 157 -24 103 -46 164 -91 258 -52 109 -80 147 -79 110 1 -15 44 -168 89
-310 22 -71 33 -134 42 -240 21 -257 -4 -476 -76 -670 -107 -287 -237 -507
-370 -630 -63 -57 -197 -159 -203 -153 -7 7 16 30 28 30 6 0 11 5 11 10 1 6
10 16 20 23 11 7 19 19 19 26 0 7 26 44 58 82 78 94 125 218 171 450 99 504
33 1540 -134 2089 -13 44 -33 112 -44 150 l-21 70 6 -65 c3 -36 27 -175 54
-310 75 -378 92 -497 105 -760 4 -69 13 -190 21 -270 16 -167 18 -298 4 -320
-8 -13 -10 -13 -10 2 0 9 -4 18 -9 20 -6 2 -19 50 -31 108 -11 58 -34 148 -50
200 -16 52 -32 109 -36 125 -4 17 -19 64 -34 105 -15 41 -34 95 -41 120 -7 25
-27 77 -44 115 -17 39 -44 116 -60 173 -15 56 -30 100 -33 97 -4 -3 -12 11
-18 32 l-12 38 -1 -55 c-1 -62 16 -126 58 -214 15 -34 40 -92 54 -131 14 -38
37 -100 52 -137 14 -37 28 -82 31 -100 4 -18 15 -58 25 -89 10 -31 21 -71 24
-90 3 -19 10 -50 15 -69 5 -19 16 -88 25 -153 9 -64 19 -125 22 -135 6 -14 4
-15 -9 -4 -8 7 -18 31 -21 55 -18 146 -50 325 -62 343 -14 22 -65 181 -65 205
0 7 -30 82 -66 164 -97 221 -120 285 -104 295 12 7 -10 124 -55 285 -7 28 -23
97 -35 155 -49 236 -116 435 -235 695 -20 44 -45 99 -56 123 -22 47 -33 55
-23 16 4 -17 2 -29 -7 -36 -10 -7 -8 -7 9 -3 12 3 22 3 22 -2 0 -15 -15 -28
-30 -28 -22 0 -15 -24 55 -191 143 -337 262 -697 282 -853 5 -39 3 -43 -12
-37 -15 5 -16 2 -12 -26 27 -168 37 -227 43 -248 23 -91 45 -700 25 -700 -5 0
-12 6 -14 13 -3 7 -6 5 -6 -5 -1 -10 5 -18 12 -18 9 0 12 -11 9 -36 -3 -25 -7
-32 -13 -23 -5 8 -6 -18 -3 -61 7 -79 -16 -326 -38 -410 -6 -25 -24 -61 -38
-80 -31 -41 -42 -78 -65 -215 -29 -178 -84 -299 -261 -567 -86 -131 -97 -146
-151 -208 -18 -21 -33 -42 -33 -49 0 -15 -165 -204 -246 -282 -63 -59 -193
-159 -208 -159 -3 0 -45 -19 -93 -41 -85 -40 -206 -89 -220 -89 -4 0 15 14 43
31 59 38 179 160 239 244 37 53 123 190 174 280 21 37 63 118 127 247 26 54
50 94 53 90 3 -4 17 3 31 16 l25 24 -30 -8 c-28 -7 -29 -6 -15 12 8 10 17 21
20 24 3 3 24 28 48 57 42 51 109 206 183 421 31 91 23 105 -10 16 -32 -84
-134 -274 -200 -372 -32 -48 -101 -133 -152 -189 -95 -104 -294 -277 -338
-294 -13 -5 -36 -18 -51 -29 -16 -11 -30 -20 -32 -20 -1 0 36 40 84 90 107
111 175 211 310 455 31 55 98 212 123 286 36 103 45 115 102 124 74 10 133 26
133 36 0 5 -11 9 -25 9 -13 0 -49 9 -79 20 l-54 21 19 47 c11 26 26 61 34 77
14 32 104 314 129 405 15 53 56 246 56 259 -1 20 -23 -40 -55 -154 -20 -71
-56 -191 -81 -265 -24 -74 -50 -153 -56 -175 -11 -32 -18 -41 -40 -43 -32 -4
-33 -2 -14 75 37 146 90 893 65 909 -5 3 -9 -19 -10 -48 -1 -29 -4 -64 -8 -78
-6 -23 -8 -21 -18 20 -7 25 -15 81 -18 125 -6 79 -51 381 -59 394 -3 3 -19 76
-36 161 -28 137 -91 377 -105 400 -3 5 0 21 5 36 16 42 2 100 -36 149 -18 25
-48 82 -65 127 -116 311 -194 492 -289 668 -42 80 -117 219 -165 310 -91 170
-124 227 -240 415 -134 217 -221 337 -252 349 -11 4 -7 -4 10 -26 22 -28 69
-104 258 -418 17 -29 11 -24 -34 22 -107 110 -157 144 -223 153 -32 4 -65 12
-71 17 -18 14 -16 53 2 68 8 7 15 16 15 21 0 5 -7 9 -15 9 -9 0 -15 9 -15 24
0 44 -32 181 -52 219 l-19 38 20 -11 c12 -6 21 -16 21 -22 0 -6 3 -9 6 -6 13
13 -125 195 -194 255 l-37 32 35 0 c19 0 67 -6 105 -13z m-2110 -6 c-3 -5 -12
-10 -18 -10 -7 0 -33 -24 -58 -52 -26 -29 -50 -50 -53 -47 -9 9 4 39 16 39 6
0 28 18 49 40 22 22 46 40 55 40 8 0 12 -4 9 -10z m1699 -26 c41 -14 59 -30
124 -111 92 -114 148 -196 202 -300 53 -100 94 -167 118 -191 30 -30 59 -99
112 -268 54 -171 118 -444 144 -614 48 -314 48 -910 0 -1290 -13 -102 -76
-402 -112 -535 -10 -34 -29 -35 -24 -2 13 96 24 147 54 247 45 146 59 262 57
459 -3 214 -11 254 -26 136 -16 -121 -22 -178 -32 -321 -7 -84 -16 -134 -30
-165 -18 -40 -40 -101 -162 -454 l-38 -110 -98 -50 c-101 -51 -146 -80 -196
-125 l-28 -25 31 70 c18 39 38 84 45 100 15 34 68 236 63 241 -2 1 -39 -86
-83 -194 -88 -221 -119 -282 -210 -420 -169 -256 -272 -388 -397 -508 -89 -86
-148 -128 -225 -159 -132 -53 -143 -58 -143 -67 0 -12 139 -8 182 5 34 11 151
87 144 94 -1 2 -27 -10 -57 -27 -76 -42 -83 -37 -13 9 64 42 139 113 219 207
28 32 73 84 101 116 63 70 259 358 305 448 37 71 26 64 203 120 54 17 100 29
103 27 4 -5 -36 -97 -133 -305 -50 -106 -169 -321 -224 -402 -33 -48 -147
-184 -218 -260 -13 -14 -1 12 26 57 57 95 135 268 129 286 -2 7 -17 -9 -33
-36 -245 -402 -416 -608 -600 -720 -105 -64 -198 -111 -235 -120 -23 -6 -26
-4 -26 23 0 23 12 42 53 80 60 57 94 101 113 145 l13 30 -34 -32 c-19 -18 -37
-33 -41 -33 -12 0 -56 53 -57 67 0 6 -6 13 -12 15 -15 5 -16 73 -4 166 7 48
12 62 23 58 17 -7 13 1 -43 74 -86 114 -364 714 -341 737 3 2 33 -5 66 -17 69
-26 98 -22 81 10 -16 30 -111 124 -147 145 -29 17 -32 24 -43 100 -25 178 -11
419 24 398 5 -4 7 1 2 12 -9 24 13 92 25 74 6 -10 11 -6 18 14 6 15 10 31 9
35 0 4 6 23 15 43 9 19 19 48 23 65 4 16 11 35 17 42 6 8 5 12 -3 12 -9 0 -8
5 3 18 19 20 23 37 7 27 -5 -3 -10 -4 -10 -2 0 4 81 221 84 224 0 1 1 -159 1
-355 0 -295 3 -379 19 -487 29 -203 99 -447 160 -560 40 -74 143 -214 158
-215 4 0 -18 51 -50 113 -78 153 -118 313 -86 348 14 15 12 27 -16 121 -34
115 -47 218 -55 459 -3 90 -7 220 -10 289 -4 112 0 194 21 450 14 171 42 314
77 395 20 44 39 94 42 110 12 49 -129 -242 -180 -371 -25 -66 -59 -150 -75
-189 -16 -38 -47 -115 -69 -170 -21 -55 -59 -150 -83 -210 -25 -61 -57 -147
-72 -193 -15 -45 -30 -82 -32 -82 -16 0 11 129 60 285 112 355 173 533 301
880 25 66 72 194 106 285 71 195 124 309 222 483 64 113 75 127 95 122 17 -4
22 -1 22 14 0 11 -4 23 -10 26 -5 3 -10 -1 -10 -9 0 -9 -4 -16 -10 -16 -6 0
-5 10 2 26 11 23 13 24 24 10 15 -22 30 -20 48 6 14 20 14 24 -3 43 -30 33 2
85 61 99 42 10 75 86 38 86 -16 0 -18 4 -11 23 6 16 17 22 41 23 24 1 40 9 57
30 12 16 23 32 23 35 0 4 7 24 16 45 25 59 27 27 4 -74 -11 -50 -25 -135 -31
-189 -6 -54 -20 -138 -31 -188 -11 -49 -24 -106 -28 -125 -63 -285 -84 -370
-110 -455 -17 -55 -44 -144 -60 -197 -15 -53 -31 -102 -35 -110 -6 -9 -5 -10
3 -3 12 11 82 178 82 195 0 6 20 63 44 128 69 185 117 381 192 787 46 249 91
447 115 502 21 48 25 128 8 138 -6 4 -8 14 -5 22 3 8 1 11 -4 8 -14 -8 -13 3
6 61 24 74 46 113 61 107 9 -4 13 5 13 30 0 24 6 40 18 46 22 13 21 14 76 -5z
m-1847 -90 c-3 -3 -12 -4 -19 -1 -8 3 -5 6 6 6 11 1 17 -2 13 -5z m-194 -54
c-4 -4 -21 -12 -38 -18 -16 -5 -47 -17 -68 -27 -63 -26 -31 2 36 34 55 26 93
32 70 11z m57 -69 c0 -5 -10 -16 -22 -24 -13 -8 -59 -51 -104 -95 -44 -44 -91
-83 -102 -87 -19 -5 -22 -2 -22 22 0 15 -7 37 -15 47 -17 23 -20 46 -5 46 6 0
29 9 53 20 61 29 190 79 205 79 6 1 12 -3 12 -8z m1702 -122 c-27 -57 -55
-120 -62 -139 -28 -74 -201 -422 -238 -477 -21 -32 -47 -76 -57 -98 -51 -110
-383 -624 -489 -757 -33 -42 -70 -89 -81 -104 -91 -127 -149 -190 -260 -284
-408 -345 -561 -462 -737 -564 -59 -35 -63 -25 -5 12 23 15 54 39 69 52 14 14
39 32 55 40 15 8 40 26 54 40 14 14 54 47 90 75 73 57 189 158 335 295 56 52
108 100 115 106 26 21 232 245 266 289 33 44 41 61 23 50 -20 -12 -9 8 34 63
81 104 373 536 465 687 23 39 93 152 156 253 62 101 157 270 211 377 55 106
100 192 102 190 2 -1 -19 -49 -46 -106z m-2318 -14 l16 -30 0 26 c0 27 24 46
36 28 15 -25 -7 -58 -46 -70 -22 -7 -40 -17 -40 -23 0 -17 -126 -89 -144 -83
-6 2 -15 -5 -21 -17 -14 -28 -105 -81 -105 -61 0 8 6 15 14 15 10 0 16 13 18
37 2 30 9 41 31 51 15 7 27 17 27 21 0 5 9 11 20 14 12 3 20 14 20 25 0 15 5
19 18 15 12 -3 30 7 50 27 18 17 36 29 42 25 5 -3 17 3 27 14 9 11 18 19 19
18 2 -1 10 -16 18 -32z m28 -152 c-37 -39 -121 -127 -187 -196 -66 -69 -181
-190 -255 -270 -78 -84 -139 -142 -144 -137 -11 11 21 63 33 56 4 -3 14 14 21
37 6 23 23 65 35 92 22 47 33 80 38 116 6 38 168 174 292 244 28 15 70 40 95
56 65 40 135 78 137 75 2 -1 -27 -34 -65 -73z m288 -11 c0 -4 -17 -25 -37 -48
-87 -93 -135 -150 -170 -203 -21 -31 -52 -74 -70 -96 -17 -22 -62 -88 -100
-146 -37 -59 -96 -148 -131 -198 -34 -50 -67 -102 -72 -115 -5 -13 -19 -31
-32 -40 -21 -15 -23 -15 -26 0 -2 9 0 26 6 38 5 11 23 55 40 96 47 116 112
251 144 297 15 23 57 73 93 110 35 37 65 71 65 75 0 14 270 238 287 238 1 0 3
-3 3 -8z m-754 -141 c-9 -10 -16 -22 -16 -27 0 -6 -13 -20 -30 -32 -16 -13
-30 -18 -30 -12 0 17 54 80 68 80 7 0 10 5 6 12 -5 7 -3 8 5 4 9 -6 9 -12 -3
-25z m3695 -60 c146 -110 429 -419 429 -468 0 -8 -55 37 -123 99 -67 62 -175
157 -239 211 -117 98 -158 146 -158 186 0 32 21 26 91 -28z m-4030 -78 c-17
-21 -46 -74 -66 -118 -20 -44 -42 -91 -48 -104 -13 -27 -215 -241 -227 -241
-4 0 20 43 54 95 33 52 95 147 136 211 49 77 91 130 123 155 27 22 51 39 53
39 3 0 -9 -17 -25 -37z m147 -140 c-23 -43 -65 -112 -92 -153 -28 -41 -76
-122 -106 -180 -31 -58 -83 -154 -117 -215 -33 -60 -68 -131 -78 -158 -10 -26
-20 -46 -22 -43 -8 8 69 182 163 366 128 253 256 460 285 460 4 0 -11 -35 -33
-77z m2762 73 c0 -3 -4 -8 -10 -11 -5 -3 -10 -1 -10 4 0 6 5 11 10 11 6 0 10
-2 10 -4z m-3139 -128 c-58 -74 -102 -139 -165 -243 -30 -49 -83 -122 -118
-162 -35 -39 -94 -110 -133 -158 -38 -48 -82 -101 -96 -119 -14 -17 -36 -47
-49 -66 -14 -19 -30 -42 -37 -50 -112 -137 -393 -599 -506 -833 -104 -214 -90
-182 -192 -462 -26 -71 -51 -139 -55 -150 -20 -46 -90 -341 -114 -480 -101
-590 -112 -949 -45 -1465 11 -85 22 -162 24 -170 2 -8 6 -37 10 -64 3 -26 13
-80 21 -120 8 -39 19 -93 24 -121 30 -181 158 -576 265 -820 131 -299 182
-399 323 -635 192 -320 472 -645 850 -986 252 -228 587 -473 797 -582 14 -7
25 -17 25 -21 0 -5 -30 -18 -67 -30 -38 -12 -75 -25 -82 -30 -11 -7 -49 13
-140 76 -70 47 -147 103 -172 124 -25 21 -84 66 -131 101 -158 117 -253 203
-507 458 -107 107 -236 246 -288 307 -80 96 -221 286 -260 349 -6 10 -45 73
-86 139 -101 162 -220 376 -279 504 -28 59 -58 124 -69 147 -10 22 -19 44 -19
48 0 4 -14 37 -31 73 -55 117 -170 452 -199 578 -61 266 -93 426 -105 534 -3
24 -7 47 -10 50 -11 19 -44 381 -50 551 -7 197 2 366 30 585 8 61 17 135 20
165 32 319 164 812 319 1187 48 116 200 427 240 491 12 21 42 73 66 117 40 73
105 180 151 247 11 15 19 29 19 32 0 16 172 242 349 460 111 135 496 514 509
501 2 -2 -15 -28 -37 -57z m718 -81 c-6 -18 -21 -52 -32 -77 -26 -59 -47 -141
-56 -215 -3 -33 -10 -66 -14 -72 -5 -8 -4 -13 3 -13 6 0 13 7 16 15 4 8 12 15
20 15 19 0 -3 -54 -50 -125 -57 -87 -69 -107 -130 -220 -97 -182 -100 -188
-125 -247 -13 -32 -27 -58 -31 -58 -4 0 -7 26 -7 58 0 31 -8 98 -18 147 -28
146 -22 210 25 307 22 46 40 88 40 94 0 6 9 21 20 34 16 18 20 20 20 7 0 -15
3 -15 35 0 35 17 47 47 23 56 -9 4 -8 6 2 6 8 1 21 16 29 34 23 52 129 203
183 260 53 55 70 53 47 -6z m5964 -177 c56 -63 110 -124 121 -135 26 -28 150
-184 229 -287 88 -116 230 -327 312 -463 77 -129 303 -579 341 -680 60 -159
174 -509 185 -567 6 -35 15 -67 19 -73 7 -9 25 -110 51 -275 5 -36 14 -90 19
-120 34 -204 47 -346 56 -640 8 -268 -22 -683 -72 -968 -14 -81 -30 -172 -35
-203 -12 -72 -98 -374 -142 -499 -110 -308 -90 -259 -217 -530 -103 -223 -229
-441 -394 -685 -95 -139 -301 -401 -404 -510 -133 -141 -262 -273 -327 -334
-38 -35 -95 -88 -126 -117 -58 -55 -253 -199 -446 -330 -108 -74 -112 -75
-140 -61 -15 8 -52 22 -80 31 -29 10 -53 21 -53 25 0 4 28 22 63 40 34 19 69
40 78 47 8 8 21 14 27 14 6 0 23 10 39 23 15 12 37 27 48 34 108 66 155 98
245 167 58 44 107 83 110 86 3 3 38 31 78 63 40 32 165 149 276 260 148 147
235 243 318 352 164 214 369 524 430 649 16 32 45 83 64 113 19 29 34 55 34
58 0 2 30 64 66 137 150 305 297 722 344 978 11 63 29 158 40 210 23 119 36
216 45 355 3 44 10 134 16 200 21 216 3 651 -41 1005 -20 157 -83 449 -131
610 -59 193 -187 514 -286 712 -189 378 -358 641 -588 913 -56 66 -110 134
-121 150 -10 17 -27 36 -36 43 -10 7 -16 17 -13 22 5 8 -82 192 -136 286 -13
22 -30 52 -38 65 -21 37 56 -39 172 -171z m-2197 91 c63 -60 193 -221 286
-354 134 -191 309 -515 339 -629 l13 -48 -44 -62 c-109 -156 -206 -299 -253
-371 l-50 -77 -37 97 c-20 54 -56 157 -80 228 -68 208 -100 295 -137 374 -35
74 -58 95 -27 25 9 -22 54 -147 99 -279 46 -132 99 -285 119 -340 42 -116 41
-136 -12 -207 l-36 -48 -85 173 c-49 98 -107 234 -135 316 l-48 144 -14 311
c-7 171 -18 340 -24 376 -30 178 -31 410 -3 442 15 16 18 16 43 1 15 -9 54
-41 86 -72z m-4456 -48 c-10 -27 -47 -109 -83 -183 -80 -167 -156 -378 -191
-530 -48 -210 -88 -354 -133 -480 -69 -191 -113 -328 -127 -400 -20 -93 -74
-311 -101 -405 -13 -44 -26 -95 -30 -112 -4 -18 -11 -36 -17 -39 -10 -6 -5
158 8 261 3 29 2 36 -5 24 -5 -8 -19 -85 -30 -170 -35 -260 -53 -373 -63 -389
-11 -18 -4 65 23 285 13 106 31 197 54 270 40 131 115 416 115 436 -1 28 -71
-66 -111 -150 -23 -48 -54 -97 -71 -111 -44 -36 -69 -92 -181 -400 -54 -151
-58 -162 -72 -215 -15 -59 -33 -106 -34 -87 -2 41 114 427 213 707 13 39 36
107 50 152 76 247 286 754 421 1018 96 186 133 257 147 280 71 113 119 179
166 228 31 31 60 57 63 57 4 0 -1 -21 -11 -47z m4793 -242 c27 -45 47 -84 44
-87 -2 -3 -19 21 -37 52 -17 31 -42 67 -56 80 -13 14 -29 34 -35 46 -12 22
-11 22 11 7 13 -8 45 -52 73 -98z m-4373 49 c0 -5 -5 -10 -11 -10 -5 0 -7 5
-4 10 3 6 8 10 11 10 2 0 4 -4 4 -10z m-712 -67 c-8 -19 -75 -157 -123 -253
-29 -58 -64 -136 -78 -175 -14 -38 -48 -122 -77 -185 -137 -305 -337 -868
-466 -1310 -25 -85 -47 -158 -50 -162 -5 -7 -20 -65 -69 -253 -54 -211 -56
-688 -5 -940 33 -162 143 -364 225 -415 19 -12 35 -28 35 -37 0 -8 -30 -46
-66 -83 -47 -49 -90 -81 -147 -111 -45 -23 -76 -44 -70 -46 12 -4 216 50 263
70 14 6 37 19 53 30 l27 18 28 -32 c15 -18 35 -40 44 -49 10 -9 23 -43 28 -76
33 -182 79 -378 110 -466 22 -63 93 -208 120 -248 10 -14 30 -47 45 -75 43
-76 108 -163 177 -236 72 -74 175 -155 186 -145 3 4 -26 37 -66 74 -130 121
-224 263 -256 387 -8 30 -17 59 -20 63 -3 5 -10 46 -16 93 -6 46 -13 95 -15
109 -13 85 -16 290 -6 394 16 162 20 164 57 34 13 -46 38 -117 55 -158 17 -41
35 -84 39 -95 96 -254 239 -528 385 -735 119 -170 375 -418 528 -510 31 -19
57 -41 57 -50 0 -11 2 -12 8 -3 6 10 20 9 63 -6 29 -11 72 -22 94 -25 35 -6
37 -5 21 6 -173 117 -293 301 -355 547 -18 70 -28 128 -23 133 5 5 33 -28 64
-74 101 -152 333 -413 461 -520 77 -64 157 -115 206 -133 57 -20 59 -19 25 7
-40 31 -44 36 -85 93 -60 83 -97 155 -139 275 -22 63 -40 117 -40 119 0 11 34
-27 47 -53 9 -17 75 -114 147 -216 141 -200 265 -334 398 -432 87 -65 110 -78
135 -78 14 0 24 -15 38 -63 17 -52 23 -61 40 -59 36 7 87 2 139 -12 28 -8 71
-17 96 -20 45 -6 45 -6 20 12 -138 96 -184 167 -229 355 -12 52 -15 117 -5
117 4 0 41 -33 83 -73 42 -39 103 -94 136 -122 94 -79 183 -175 205 -219 10
-23 22 -67 26 -99 4 -32 11 -60 15 -63 5 -3 6 -16 3 -30 -3 -13 -2 -24 4 -24
5 0 13 16 16 36 4 20 12 34 19 31 6 -2 30 -41 54 -86 43 -84 63 -163 45 -175
-6 -3 -64 -17 -129 -31 -65 -14 -163 -41 -217 -59 -90 -32 -206 -92 -231 -120
-29 -33 -369 -286 -385 -286 -4 0 -10 -4 -12 -9 -8 -24 -482 -281 -516 -281
-43 0 -359 195 -497 307 -33 27 -76 59 -95 73 -19 13 -65 50 -101 82 -37 32
-71 58 -77 58 -6 0 -17 9 -24 19 -8 11 -45 46 -84 78 -76 64 -326 311 -388
383 -21 25 -55 65 -75 89 -20 25 -53 65 -75 90 -44 54 -52 63 -127 156 -50 62
-101 137 -174 255 -27 44 -139 249 -193 355 -80 155 -148 315 -207 480 -10 28
-23 64 -31 80 -12 29 -65 192 -98 305 -26 89 -94 407 -110 515 -68 453 -83
815 -46 1145 11 102 22 196 25 210 3 14 7 39 9 55 53 359 107 590 188 815 99
273 86 240 207 490 72 148 184 357 225 420 12 19 47 73 77 120 29 47 56 87 60
90 3 3 37 52 76 110 39 58 116 161 172 230 56 69 118 144 137 168 19 23 40 42
45 42 6 0 9 -3 7 -7z m2964 -115 c-7 -7 -12 -8 -12 -2 0 14 12 26 19 19 2 -3
-1 -11 -7 -17z m4087 -26 c5 -9 40 -56 78 -104 208 -263 341 -475 523 -835
123 -244 160 -333 271 -653 129 -373 209 -916 209 -1425 0 -184 -45 -664 -79
-855 -24 -129 -63 -309 -81 -365 -11 -33 -33 -103 -49 -155 -29 -94 -64 -196
-81 -235 -5 -11 -24 -61 -43 -110 -46 -118 -172 -380 -230 -478 -26 -43 -47
-81 -47 -84 0 -7 -118 -198 -203 -330 -57 -88 -249 -348 -267 -363 -3 -3 -19
-23 -36 -44 -30 -41 -51 -64 -245 -262 -222 -226 -439 -409 -654 -549 -146
-95 -319 -196 -330 -193 -38 11 -335 200 -445 284 -25 19 -52 37 -60 40 -8 4
-24 17 -35 28 -11 12 -40 37 -65 56 -25 19 -69 56 -99 83 -107 96 -191 141
-328 177 -24 6 -43 15 -43 21 0 6 -4 8 -8 5 -5 -3 -70 7 -145 21 l-137 26 0
71 c0 67 2 74 42 131 25 36 44 76 47 100 l6 40 24 -40 24 -40 13 60 c6 33 16
74 22 90 19 55 142 305 151 305 5 0 14 -27 20 -60 16 -82 100 -246 152 -298
42 -41 101 -76 120 -70 5 2 -2 19 -16 38 -40 54 -76 181 -77 271 0 89 11 129
60 219 35 64 167 210 189 210 7 0 4 -22 -9 -63 -26 -84 -78 -334 -78 -377 0
-47 12 -28 46 75 46 138 146 333 211 409 39 46 59 63 61 52 3 -16 -40 -257
-60 -331 -23 -91 -108 -210 -178 -251 -31 -19 -40 -44 -17 -44 8 0 40 17 73
38 74 48 154 149 270 342 31 52 82 129 113 172 31 42 77 110 103 150 26 40 59
87 75 104 60 65 145 164 180 208 35 45 53 57 53 35 0 -21 -31 -265 -41 -324
-21 -121 -86 -277 -145 -344 -20 -24 -60 -62 -88 -84 l-51 -40 35 7 c44 8 108
40 140 69 34 31 120 133 120 143 0 4 8 17 19 28 17 19 122 222 165 319 22 48
71 225 85 302 10 58 13 62 93 135 205 186 333 327 430 471 34 51 63 88 66 81
4 -13 -45 -284 -58 -316 -5 -11 -23 -59 -41 -106 -60 -156 -130 -256 -234
-334 -41 -31 -79 -65 -85 -77 l-12 -21 29 19 c64 43 90 59 127 78 61 31 195
170 271 280 81 118 141 227 189 345 19 47 59 135 89 195 57 116 82 185 117
325 11 47 25 101 30 120 5 19 12 61 15 93 4 31 10 57 14 57 8 0 17 -15 66
-105 110 -202 263 -380 372 -434 34 -17 73 -31 85 -31 22 1 22 1 3 12 -42 24
-119 106 -167 176 -55 81 -121 218 -133 272 -4 19 -15 53 -25 75 -10 22 -37
106 -60 186 l-41 146 14 169 c8 99 13 257 12 382 -2 116 0 212 5 212 21 0 156
-197 229 -333 21 -40 53 -111 72 -158 34 -84 34 -84 34 -254 0 -153 -2 -177
-24 -240 -13 -38 -28 -76 -34 -82 -5 -7 -5 -13 0 -13 17 0 64 85 82 150 52
181 64 331 40 495 -5 39 -11 84 -14 101 -4 35 -26 94 -66 182 -16 35 -29 66
-29 69 0 13 -115 235 -130 251 -9 9 -31 44 -50 77 -18 33 -41 70 -51 83 -18
24 -30 86 -34 186 -8 189 -66 508 -182 991 -33 137 -184 615 -202 640 -4 5
-16 33 -26 60 -10 28 -25 58 -33 68 -9 10 -11 17 -4 17 6 0 16 -8 21 -18z
m-4123 -59 c-10 -10 -19 5 -10 18 6 11 8 11 12 0 2 -7 1 -15 -2 -18z m-76
-233 c-105 -266 -177 -460 -215 -585 -61 -198 -206 -637 -227 -687 -11 -26
-29 -50 -39 -53 -10 -4 -19 -10 -19 -15 0 -4 -14 -10 -31 -12 l-32 -5 6 201
c4 111 13 248 21 306 49 352 62 399 119 460 23 25 80 88 127 140 47 52 88 97
91 100 3 3 29 37 59 75 29 39 65 84 80 100 15 17 38 50 50 75 24 49 63 88 68
67 1 -7 -25 -82 -58 -167z m-1743 72 c-48 -48 -87 -91 -87 -95 0 -14 -254
-257 -360 -343 -19 -15 -75 -64 -123 -107 -48 -44 -89 -78 -91 -76 -11 10 153
166 344 326 47 40 112 100 145 135 156 165 249 258 254 253 3 -3 -34 -45 -82
-93z m1523 -13 c-7 -11 -14 -18 -17 -15 -3 3 0 12 7 21 18 21 23 19 10 -6z
m-1563 -511 c-3 -8 -6 -5 -6 6 -1 11 2 17 5 13 3 -3 4 -12 1 -19z m0 -65 c-3
-10 -5 -2 -5 17 0 19 2 27 5 18 2 -10 2 -26 0 -35z m1763 22 c0 -8 -4 -15 -10
-15 -5 0 -7 7 -4 15 4 8 8 15 10 15 2 0 4 -7 4 -15z m-530 -110 c-6 -30 -15
-55 -19 -55 -5 0 -22 -26 -40 -57 -17 -32 -36 -65 -41 -73 -24 -37 -80 -143
-80 -151 0 -5 7 -9 15 -9 8 0 15 -6 15 -12 0 -9 4 -8 10 2 5 8 10 10 10 4 0
-15 -30 -40 -58 -49 -27 -8 -26 -41 1 -39 14 2 10 -13 -23 -75 -77 -143 -169
-260 -338 -428 -140 -140 -167 -163 -194 -163 l-31 0 29 22 c16 13 31 26 32
30 2 5 10 8 17 8 8 0 19 9 25 20 6 11 17 20 25 20 8 0 15 6 15 13 0 8 10 18
21 23 12 6 27 26 33 44 6 20 18 35 26 35 8 0 19 10 25 22 5 12 17 24 27 26 10
3 18 12 18 21 0 9 8 24 18 34 9 11 25 32 34 48 10 16 27 41 39 56 13 15 20 31
16 34 -3 4 -57 -43 -119 -103 -62 -61 -133 -128 -158 -149 -25 -21 -67 -60
-95 -86 -122 -114 -177 -142 -125 -63 11 17 20 36 20 44 0 7 31 52 68 100 38
47 79 102 92 121 13 19 54 76 90 125 66 88 144 205 170 255 28 54 -26 -9 -121
-141 -51 -72 -134 -176 -184 -231 -49 -54 -112 -125 -138 -156 -76 -90 -88
-102 -105 -102 -8 0 -12 3 -9 7 4 3 3 11 -2 17 -16 21 -36 141 -36 216 0 103
26 180 74 217 20 16 83 56 141 88 58 32 113 65 123 73 9 8 17 12 17 9 0 -4 8
0 18 8 23 19 109 78 262 180 69 45 186 132 260 192 83 68 136 105 138 97 2 -8
-2 -39 -8 -69z m520 65 c0 -5 -2 -10 -4 -10 -3 0 -8 5 -11 10 -3 6 -1 10 4 10
6 0 11 -4 11 -10z m2695 -196 c48 -209 47 -213 -23 -303 -118 -153 -211 -239
-244 -226 -14 6 -58 69 -108 154 l-31 54 97 146 c54 80 134 197 178 259 93
132 80 141 131 -84z m-2668 139 c-3 -10 -5 -4 -5 12 0 17 2 24 5 18 2 -7 2
-21 0 -30z m-46 -43 c5 0 9 -7 9 -15 0 -15 -20 -22 -20 -7 0 4 -2 16 -4 27 -2
11 -1 14 1 8 3 -7 9 -13 14 -13z m46 -2 c-3 -8 -6 -5 -6 6 -1 11 2 17 5 13 3
-3 4 -12 1 -19z m-70 -70 c-3 -8 -6 -5 -6 6 -1 11 2 17 5 13 3 -3 4 -12 1 -19z
m-2225 -65 c-11 -32 -30 -102 -42 -155 -12 -54 -25 -97 -29 -96 -25 3 -31 -5
-31 -39 1 -21 -8 -90 -19 -153 -29 -158 -48 -284 -67 -425 -8 -66 -22 -148
-31 -182 -14 -58 -16 -61 -37 -52 -19 9 -21 17 -19 77 1 37 5 87 10 112 12 76
13 84 14 108 1 12 5 25 10 28 5 3 9 19 9 35 0 17 4 49 9 72 5 23 22 112 36
197 15 85 35 193 45 240 10 47 18 96 18 109 1 13 6 27 11 30 6 4 17 25 26 46
14 35 94 119 103 110 2 -2 -5 -30 -16 -62z m2252 -43 c-6 -63 -6 -574 -1 -610
4 -19 8 -64 11 -100 7 -78 -10 -50 -20 34 -4 28 -8 54 -11 58 -2 4 -6 116 -10
249 -5 201 -4 242 8 250 12 8 12 10 -1 19 -13 9 -13 10 0 10 13 0 13 1 0 10
-9 6 -11 13 -5 18 11 8 11 8 14 85 2 37 5 46 10 32 5 -11 7 -36 5 -55z m1973
-92 c42 -68 52 -38 17 51 -24 57 -16 57 19 0 18 -30 44 -72 58 -93 l26 -40
-44 -78 c-25 -45 -43 -88 -41 -101 2 -15 20 -30 60 -51 63 -31 94 -30 129 5
25 25 49 18 49 -13 0 -14 9 -27 22 -33 12 -6 22 -21 24 -36 5 -56 61 -139 174
-259 116 -123 136 -148 127 -156 -2 -3 -72 18 -154 45 -209 70 -301 84 -566
85 l-217 1 6 30 c3 17 16 50 28 75 27 53 60 208 50 235 -5 13 -4 16 4 11 12
-7 17 16 14 57 -1 10 3 15 8 12 6 -3 10 2 11 12 0 10 3 29 5 43 3 14 6 41 8
61 9 93 48 230 73 258 l26 30 30 -57 c17 -31 41 -74 54 -94z m-2637 -108 c0
-5 -7 -7 -15 -4 -8 4 -15 8 -15 10 0 2 7 4 15 4 8 0 15 -4 15 -10z m2974 -101
c2 -8 8 -27 14 -42 17 -41 14 -45 -9 -17 -11 14 -17 18 -13 10 4 -8 3 -12 -1
-7 -5 4 -10 26 -11 48 -2 39 13 44 20 8z m-3914 16 c0 -2 -9 -9 -20 -15 -12
-6 -20 -7 -20 -1 0 5 8 12 18 14 9 3 18 5 20 6 1 0 2 -1 2 -4z m-560 -41 c0
-8 -5 -12 -10 -9 -6 4 -8 11 -5 16 9 14 15 11 15 -7z m1584 -81 c-16 -11 -16
-13 -1 -19 14 -5 17 -22 17 -95 0 -74 -2 -87 -15 -83 -19 8 -19 6 1 -122 10
-63 13 -109 8 -114 -6 -6 -47 -5 -104 1 -52 6 -155 9 -227 7 -73 -2 -133 -2
-133 0 0 2 15 19 33 37 17 19 47 50 66 69 19 20 39 36 46 36 15 0 56 46 139
153 72 94 142 161 162 153 10 -4 14 3 16 27 l1 32 4 -35 c3 -24 0 -38 -13 -47z
m-1587 51 c-3 -3 -12 -4 -19 -1 -8 3 -5 6 6 6 11 1 17 -2 13 -5z m12 -266 c1
-128 40 -476 66 -600 8 -38 22 -101 30 -140 77 -363 205 -739 341 -1003 43
-82 123 -191 196 -265 28 -29 42 -47 29 -41 -12 7 -25 10 -28 7 -11 -10 72
-118 165 -214 125 -129 195 -188 257 -218 59 -28 53 -29 -49 -9 -88 16 -276
93 -356 144 -30 20 -66 41 -80 47 -14 6 -31 18 -39 27 -7 10 -19 17 -25 17 -6
0 -29 20 -51 45 -22 25 -46 45 -52 45 -7 0 -41 28 -75 63 -35 34 -67 61 -73
59 -5 -2 -7 0 -3 4 4 4 3 13 -3 21 -8 9 -8 13 0 13 6 0 18 -11 27 -25 9 -14
20 -22 25 -19 5 3 3 11 -3 18 -7 7 -23 25 -36 40 -21 24 -21 27 -5 33 46 17
58 59 32 109 -11 23 -16 47 -12 62 4 16 2 23 -4 19 -6 -4 -11 3 -11 16 0 12
-14 47 -32 77 -75 126 -168 354 -215 525 -32 120 -92 489 -99 615 -4 58 -11
157 -17 221 -15 148 0 317 31 354 5 6 14 45 20 86 6 41 15 76 20 77 6 2 11 13
12 25 3 52 16 -119 17 -235z m4505 217 c3 -8 1 -15 -4 -15 -6 0 -10 7 -10 15
0 8 2 15 4 15 2 0 6 -7 10 -15z m-3889 -34 c-3 -6 -11 -11 -16 -11 -5 0 -4 6
3 14 14 16 24 13 13 -3z m5191 -301 c29 -274 23 -520 -16 -760 -10 -63 -21
-144 -24 -180 -6 -61 -32 -178 -76 -335 l-20 -70 6 80 c4 44 17 175 30 290 46
393 55 553 52 865 -1 162 -6 308 -10 324 -5 20 -4 32 5 38 17 11 34 -67 53
-252z m-6962 193 c-3 -32 -12 -105 -19 -163 -29 -221 -35 -281 -50 -490 -32
-442 -22 -733 35 -1040 8 -45 -3 -138 -21 -172 -14 -27 -31 -22 -70 20 -86 93
-132 185 -173 347 -24 98 -27 130 -33 345 -9 323 14 443 155 820 28 74 62 158
76 187 14 28 28 64 32 80 9 36 55 123 66 123 4 0 6 -26 2 -57z m6134 -10 c5
-10 12 -52 16 -93 3 -41 9 -87 12 -102 5 -24 3 -28 -16 -28 -12 0 -33 9 -47
20 -14 11 -22 20 -17 20 13 0 -30 29 -44 30 -22 0 -135 81 -125 90 21 19 105
60 114 55 5 -4 9 -1 9 5 0 6 5 8 10 5 6 -3 10 -1 10 4 0 19 68 13 78 -6z
m-358 -128 c7 -8 8 -15 2 -15 -5 0 -15 7 -22 15 -7 8 -8 15 -2 15 5 0 15 -7
22 -15z m-863 -42 c-3 -16 -10 -50 -16 -78 -12 -63 -20 -85 -33 -85 -6 0 -7 8
-3 18 9 23 23 88 30 135 3 20 11 37 17 37 6 0 8 -11 5 -27z m1063 -87 c12 -16
9 -15 -17 4 -18 13 -44 42 -59 64 l-26 41 44 -45 c24 -25 50 -54 58 -64z m-86
-3 c21 -24 34 -42 30 -42 -5 1 -34 29 -64 62 -30 34 -44 52 -30 41 14 -10 43
-38 64 -61z m-2544 -20 c0 -16 3 -39 6 -53 4 -18 3 -21 -4 -10 -15 24 -24 90
-12 90 5 0 10 -12 10 -27z m2887 -5 c-3 -7 -5 -2 -5 12 0 14 2 19 5 13 2 -7 2
-19 0 -25z m-3275 -43 c3 -39 1 -43 -9 -28 -15 19 -17 73 -4 73 5 0 11 -20 13
-45z m2001 36 c4 9 6 10 6 2 1 -7 -8 -17 -19 -23 -15 -8 -20 -8 -20 3 0 20 12
29 21 16 5 -8 8 -7 12 2z m640 -16 c133 -14 301 -50 341 -72 27 -15 133 -162
158 -220 13 -29 26 -53 31 -53 4 0 0 17 -9 38 -20 46 -22 57 -9 58 6 0 17 -18
25 -40 24 -66 18 -421 -8 -463 -4 -7 -32 -15 -62 -19 -52 -6 -57 -4 -102 31
-27 21 -48 41 -48 45 0 7 57 23 87 25 6 0 14 3 18 6 3 3 -26 9 -64 13 -50 4
-106 21 -193 55 -68 27 -135 52 -150 55 -39 9 -37 41 5 62 54 29 11 28 -52 0
-57 -26 -155 -35 -195 -20 -19 7 -21 35 -4 52 9 9 9 12 -1 12 -7 0 -27 -15
-45 -34 -24 -26 -44 -36 -91 -45 -131 -25 -268 -102 -422 -237 -49 -43 -206
-235 -248 -303 -11 -18 4 -10 78 46 l57 43 -16 -37 c-9 -21 -20 -51 -24 -68
-4 -16 -17 -50 -29 -73 -28 -55 -22 -63 14 -20 43 52 127 138 135 138 12 0 33
-57 25 -69 -3 -6 0 -8 8 -5 20 7 25 -2 42 -90 16 -87 45 -147 113 -229 68 -84
143 -127 243 -138 90 -10 124 -2 216 52 158 94 257 249 288 452 3 20 11 37 18
37 28 -1 95 -40 131 -78 44 -46 44 -54 -1 -154 -42 -94 -24 -100 53 -18 70 74
97 90 67 39 -47 -80 -141 -165 -260 -236 -132 -78 -131 -77 -298 -129 -117
-35 -124 -36 -245 -32 l-125 4 70 -13 c67 -13 120 -19 193 -22 25 -1 32 -5 32
-21 0 -11 5 -20 10 -20 6 0 10 11 10 25 0 14 4 25 8 25 5 0 51 9 103 20 59 13
95 17 97 10 2 -5 13 -10 24 -10 20 0 21 9 3 53 -6 14 -1 17 26 19 47 2 55 1
85 -6 26 -7 26 -6 20 28 -6 29 -3 37 13 46 12 6 31 8 43 5 19 -5 27 1 42 27
20 35 105 128 118 128 4 0 -6 -30 -21 -67 -15 -38 -31 -83 -34 -101 -9 -46
-71 -165 -122 -237 -62 -87 -187 -204 -287 -269 -96 -63 -191 -99 -311 -120
-43 -8 -81 -16 -83 -19 -3 -3 32 -8 78 -12 135 -11 298 33 493 132 l109 56
-29 -39 c-16 -22 -33 -42 -39 -46 -5 -3 -10 -20 -11 -36 -1 -23 2 -29 13 -25
12 5 12 2 2 -16 -11 -21 -10 -22 9 -12 11 6 36 31 57 57 20 25 46 50 57 55 17
10 18 8 11 -13 -4 -12 -32 -66 -63 -118 -75 -126 -227 -281 -322 -328 -76 -38
-157 -62 -211 -62 -20 0 -40 -4 -43 -10 -17 -28 265 4 405 46 72 21 227 94
285 134 43 29 45 30 33 8 -7 -12 -19 -31 -27 -40 -19 -24 1 -24 36 -1 25 17
26 17 18 -7 -43 -142 -187 -406 -304 -558 -70 -92 -232 -251 -354 -351 -271
-219 -866 -573 -1152 -684 -136 -53 -154 -54 -271 -13 -225 79 -618 280 -899
461 -27 17 -84 54 -125 80 -308 198 -603 505 -734 764 -34 66 -33 72 7 59 60
-19 149 -30 159 -20 6 6 -8 13 -39 20 -52 12 -132 26 -148 27 -11 0 -39 44
-33 51 2 2 44 -8 93 -22 100 -28 247 -41 285 -26 l25 10 -25 6 c-14 3 -51 10
-82 16 -34 7 -80 26 -115 49 -64 41 -133 99 -133 111 0 4 33 9 73 10 39 1 86
3 102 5 17 1 57 3 90 4 69 2 59 21 -11 21 -104 0 -236 47 -303 108 l-33 31 58
-15 c94 -23 279 -35 351 -23 35 6 63 14 63 19 0 4 -31 10 -69 12 -80 6 -170
44 -265 112 -66 48 -193 172 -185 181 3 3 33 -6 66 -19 81 -34 288 -88 316
-84 14 3 3 8 -32 16 -29 7 -114 42 -189 78 -109 53 -146 76 -192 122 -122 123
-243 354 -281 540 -10 52 -22 99 -25 105 -10 18 16 -10 100 -109 78 -92 132
-141 144 -130 3 4 -1 12 -10 19 -8 6 -28 30 -44 51 -26 35 -27 38 -7 27 12 -6
50 -34 83 -62 34 -28 64 -49 66 -46 3 3 -16 37 -41 76 -58 89 -72 126 -55 146
10 12 9 15 -3 15 -27 0 -42 81 -26 143 13 55 34 76 83 84 46 7 66 -9 66 -53 0
-32 6 -37 36 -33 12 1 24 -25 24 -52 0 -34 32 -134 61 -190 30 -60 158 -200
219 -239 63 -41 129 -60 206 -62 78 -1 149 30 225 100 117 107 149 184 150
360 l0 118 65 -63 c68 -67 86 -76 77 -42 -3 12 -1 24 5 28 8 4 1 22 -18 51
-26 40 -38 70 -26 70 2 0 34 -18 71 -39 43 -25 78 -55 94 -79 27 -41 111 -135
133 -148 7 -4 -6 14 -29 41 -40 49 -79 115 -68 115 4 0 15 -5 27 -11 19 -10
18 -9 -3 20 -12 17 -26 31 -30 31 -4 0 -10 8 -14 18 -3 11 -16 24 -29 30 -31
14 -83 91 -78 115 2 9 -2 17 -8 17 -7 0 -9 7 -6 16 3 9 2 12 -5 9 -14 -9 -35
18 -68 90 -59 125 -94 316 -89 488 l3 109 24 -21 c14 -12 21 -27 17 -36 -3 -8
-2 -15 2 -15 4 0 8 -26 8 -58 1 -32 8 -72 17 -88 8 -16 18 -49 22 -74 16 -106
78 -333 110 -406 19 -43 35 -74 35 -68 0 23 -31 221 -41 254 -13 45 -39 189
-39 215 0 19 0 19 14 0 7 -11 28 -67 46 -125 37 -120 106 -256 191 -380 l59
-85 -5 -83 c-4 -70 -1 -90 16 -128 12 -24 25 -47 30 -50 5 -3 16 -22 24 -41
17 -41 23 -31 -90 -152 -45 -48 -182 -147 -229 -164 -10 -4 -17 -10 -14 -13 3
-3 30 6 59 18 30 13 72 25 94 27 50 4 161 43 247 88 l67 35 78 -67 c86 -74
143 -110 188 -121 28 -6 27 -4 -16 29 -50 39 -106 109 -135 169 -17 37 -17 38
6 63 13 13 33 28 44 31 21 6 148 124 236 219 26 28 53 51 60 53 37 9 174 144
262 258 90 117 278 445 385 672 30 63 56 112 59 109 7 -6 -54 -169 -117 -314
-27 -61 -49 -115 -49 -119 0 -16 -84 -170 -127 -233 -25 -36 -73 -97 -107
-136 -34 -38 -111 -130 -171 -204 -60 -73 -118 -139 -127 -145 -10 -6 -18 -14
-18 -18 0 -21 51 28 153 147 62 72 168 188 235 260 178 187 302 385 422 675
28 69 57 130 63 136 16 15 114 40 207 54 238 34 287 36 483 15z m-2736 -30 c0
-8 -4 -12 -9 -9 -5 3 -6 10 -3 15 9 13 12 11 12 -6z m3364 -46 c-9 -23 -10
-22 -10 11 -1 23 2 31 9 24 7 -7 7 -19 1 -35z m-3780 6 c88 -6 302 -44 313
-55 5 -5 11 -47 12 -92 3 -81 11 -132 33 -193 23 -67 52 -177 47 -183 -3 -3
-43 9 -88 26 -85 32 -157 52 -193 51 -18 0 -17 -1 5 -14 14 -8 42 -20 64 -26
l39 -10 -29 -16 c-25 -13 -39 -13 -94 -3 -164 29 -166 30 -200 65 -19 19 -42
35 -52 35 -16 0 -16 -2 3 -34 l19 -33 -82 -5 c-65 -4 -91 -1 -123 13 -47 21
-57 17 -24 -10 l24 -19 -48 -21 c-27 -12 -55 -21 -63 -21 -30 0 -92 81 -128
166 -38 90 -46 128 -24 106 14 -14 23 -5 116 116 98 129 114 143 167 157 48
13 122 13 306 0z m3594 -72 l28 -38 -31 29 c-18 17 -32 33 -32 38 0 15 7 9 35
-29z m-1256 -91 c-17 -81 -24 -44 -8 42 9 49 14 62 17 43 2 -15 -2 -53 -9 -85z
m-1920 6 c-1 -30 -4 -41 -6 -25 -2 15 -8 25 -12 23 -4 -3 -6 7 -5 22 2 33 2
32 14 32 6 0 9 -23 9 -52z m3365 -45 c-9 -91 -14 -92 -14 -5 0 43 4 72 10 72
7 0 8 -24 4 -67z m-5285 -98 c1 -22 5 -56 10 -75 5 -19 11 -84 14 -143 5 -108
5 -108 -20 -118 -13 -5 -26 -9 -29 -9 -7 0 -5 269 3 356 7 81 20 75 22 -11z
m3765 -32 c-20 -43 -39 -72 -41 -64 -3 7 -1 16 5 20 15 9 43 82 35 94 -4 6 -1
7 7 2 10 -6 12 -4 7 8 -3 10 -2 17 3 17 6 0 9 3 9 8 -3 20 4 34 8 15 2 -12
-12 -57 -33 -100z m-3987 60 c-3 -10 -5 -4 -5 12 0 17 2 24 5 18 2 -7 2 -21 0
-30z m-6 -85 c-11 -30 -20 -10 -13 32 4 31 6 32 13 12 5 -12 5 -32 0 -44z
m-716 2 c-5 -25 -4 -29 9 -24 24 9 29 -18 17 -93 -5 -37 -13 -89 -16 -115 -5
-40 -10 -48 -27 -48 -21 0 -21 3 -14 113 8 140 16 197 28 197 5 0 7 -13 3 -30z
m719 -107 c-1 -43 -3 -91 -4 -108 -2 -16 2 -41 7 -55 6 -14 13 -124 16 -245 6
-240 23 -377 62 -495 31 -93 65 -214 61 -218 -2 -1 -12 21 -24 50 -11 29 -37
89 -56 133 -52 119 -78 260 -81 440 -1 83 -3 150 -5 150 -1 0 -7 34 -14 76
-11 74 -2 222 19 318 12 54 20 34 19 -46z m1150 -39 c38 -41 66 -77 63 -81 -4
-3 -20 -6 -35 -5 -18 0 -39 -9 -56 -24 -33 -31 -102 -63 -136 -64 -28 0 -58
-16 -48 -25 3 -4 31 -7 62 -7 50 -1 54 -2 46 -18 -14 -25 -69 -70 -86 -70 -44
0 -84 41 -83 85 1 17 3 22 6 13 2 -10 8 -18 13 -18 23 0 32 37 35 132 4 143
34 198 69 129 18 -34 43 -46 62 -30 18 15 17 27 -1 63 -20 38 -18 47 3 17 9
-13 48 -57 86 -97z m-1092 11 c-6 -34 -13 -32 -10 4 1 16 5 28 9 26 3 -3 4
-16 1 -30z m3851 0 c-3 -9 -8 -14 -10 -11 -3 3 -2 9 2 15 9 16 15 13 8 -4z
m-1852 -81 c46 -25 90 -51 97 -57 27 -21 235 -307 229 -313 -5 -5 -70 62 -137
139 -37 43 -166 145 -247 196 -29 18 -53 37 -53 41 0 16 12 40 20 40 4 0 45
-21 91 -46z m4234 -148 c4 -34 15 -81 26 -106 10 -25 25 -74 33 -110 42 -181
42 -248 -1 -339 -14 -30 -32 -77 -40 -105 -31 -108 -90 -190 -186 -260 -29
-21 -37 -33 -35 -55 2 -32 -48 -105 -165 -241 -123 -143 -277 -252 -447 -317
-99 -38 -125 -40 -140 -13 -19 35 23 99 121 184 29 26 69 44 69 32 0 -2 -18
-43 -40 -90 -31 -69 -35 -84 -20 -76 18 10 152 183 227 295 53 77 87 109 143
131 60 24 115 61 135 90 9 14 21 22 28 18 9 -5 9 -4 0 6 -10 11 -20 11 -51 2
-59 -18 -67 -15 -34 13 17 14 44 49 60 78 16 28 46 73 65 99 20 26 43 72 52
103 9 30 21 55 27 55 6 0 33 -13 60 -30 56 -35 58 -35 58 -15 0 8 5 15 12 15
6 0 1 11 -12 26 -18 18 -31 23 -48 19 -17 -4 -28 0 -38 12 -8 11 -13 13 -14 6
0 -7 -4 -13 -9 -13 -13 0 3 62 40 161 40 103 75 160 96 152 12 -5 13 2 7 43
-8 58 -9 56 4 116 5 25 5 52 1 60 -5 7 -9 42 -9 78 0 79 15 64 25 -24z m-6956
-78 c-1 -102 -9 -205 -25 -308 l-23 -155 4 105 c8 212 32 510 41 510 3 0 4
-69 3 -152z m5480 108 c12 -13 25 -42 28 -64 8 -57 -27 -92 -90 -92 -52 0 -64
11 -73 67 -14 92 76 152 135 89z m685 -60 c-11 -36 -34 -76 -44 -76 -17 0 -28
33 -20 61 12 42 17 47 45 41 21 -4 24 -8 19 -26z m-114 -12 c0 -38 -15 -42
-34 -10 -9 13 -7 20 8 32 26 19 26 19 26 -22z m-312 -72 c2 -23 4 -42 5 -42 1
0 16 -4 34 -9 26 -7 31 -7 26 5 -3 8 0 14 5 14 9 0 32 -58 32 -81 0 -15 -51
-15 -73 0 -13 9 -38 26 -56 37 -32 22 -61 64 -61 89 0 8 5 26 10 40 l10 27 33
-19 c27 -16 32 -26 35 -61z m-3063 3 c14 -13 25 -20 25 -14 0 6 5 7 10 4 13
-8 13 -25 0 -25 -6 0 -21 -12 -33 -26 -19 -22 -26 -24 -50 -15 -15 6 -32 22
-37 36 -23 60 38 88 85 40z m-1086 -4 c15 -9 4 -38 -23 -60 -13 -11 -17 -10
-22 3 -9 22 4 66 19 66 6 0 18 -4 26 -9z m398 -73 c-3 -7 -5 -2 -5 12 0 14 2
19 5 13 2 -7 2 -19 0 -25z m4723 -60 c-12 -56 -39 -116 -40 -87 0 9 4 29 10
45 5 16 14 49 21 74 16 60 23 34 9 -32z m497 0 c-3 -8 -6 -5 -6 6 -1 11 2 17
5 13 3 -3 4 -12 1 -19z m-1127 4 c0 -26 -133 -312 -145 -312 -10 0 8 55 35
110 15 30 31 66 35 80 23 77 48 130 61 130 8 0 14 -4 14 -8z m-6037 -212 c-3
-70 -11 -136 -18 -150 -49 -96 -75 -150 -89 -180 -18 -40 -76 -114 -83 -106
-3 2 2 15 10 28 8 12 32 64 53 113 20 50 41 95 46 101 12 16 48 206 48 251 0
20 6 64 13 97 l12 61 7 -45 c4 -25 4 -101 1 -170z m1439 115 c34 -6 38 -11 43
-44 3 -20 13 -66 21 -104 8 -37 17 -79 20 -94 3 -14 9 -34 14 -44 6 -10 10
-25 10 -34 0 -9 9 -28 20 -42 23 -30 27 -51 6 -34 -8 6 -23 33 -35 59 -12 26
-30 61 -41 79 -20 34 -130 278 -130 289 0 4 8 0 18 -9 9 -8 34 -18 54 -22z
m1326 -31 c8 -55 -74 -89 -109 -45 -26 32 -14 59 30 64 61 7 76 3 79 -19z
m2236 -50 c8 -22 -4 -40 -15 -23 -11 18 -11 39 0 39 5 0 12 -7 15 -16z m351 6
c-3 -5 -14 -10 -23 -10 -15 0 -15 2 -2 10 20 13 33 13 25 0z m1740 -37 c-4
-10 -8 -23 -8 -30 0 -7 -6 -14 -12 -17 -10 -3 -10 4 -2 30 6 19 15 34 20 34 5
0 6 -8 2 -17z m-4478 -33 c2 -19 -14 -37 -23 -27 -5 5 13 47 19 47 2 0 3 -9 4
-20z m2318 -10 c-3 -5 -11 -10 -16 -10 -6 0 -7 5 -4 10 3 6 11 10 16 10 6 0 7
-4 4 -10z m1716 -49 c-8 -14 -8 -20 1 -23 10 -4 9 -14 0 -46 -11 -37 -15 -41
-27 -28 -13 12 -13 20 0 56 8 24 15 52 15 65 0 12 3 25 8 29 12 13 14 -31 3
-53z m-4331 -12 c0 -4 -9 -9 -19 -11 -17 -3 -17 -5 7 -22 21 -16 24 -17 19 -4
-5 13 10 28 27 28 2 0 16 -18 31 -40 23 -33 25 -42 15 -55 -7 -8 -28 -15 -46
-15 -29 0 -38 6 -60 42 -17 27 -29 61 -31 93 l-4 50 30 -29 c17 -17 31 -33 31
-37z m2689 34 c11 -24 14 -26 22 -10 6 9 21 17 34 17 21 0 26 -7 36 -45 9 -34
16 -45 31 -45 20 0 49 23 65 53 9 17 12 15 37 -17 15 -20 33 -36 40 -36 7 0
21 -9 32 -21 16 -17 16 -22 4 -29 -20 -13 -28 -12 -37 3 -4 7 -20 18 -35 24
-21 10 -27 9 -32 -2 -10 -26 -61 -45 -95 -35 -51 14 -121 83 -143 142 -15 37
24 38 41 1z m303 -11 c-2 -35 16 -44 38 -17 10 12 16 13 24 5 16 -16 -28 -50
-65 -50 -40 0 -67 40 -50 76 8 18 18 24 34 22 18 -2 22 -9 19 -36z m-2735 2
c-3 -3 -12 -4 -19 -1 -8 3 -5 6 6 6 11 1 17 -2 13 -5z m4813 -4 c0 -5 -4 -10
-9 -10 -4 0 -6 -11 -3 -25 4 -22 1 -25 -22 -25 -14 0 -26 -4 -26 -10 0 -5 7
-10 15 -10 10 0 15 -10 15 -31 0 -27 -3 -30 -27 -27 -18 2 -29 10 -31 22 -3
13 0 16 9 11 8 -5 10 -4 5 3 -10 16 11 52 30 52 9 0 14 6 11 13 -2 6 0 20 5
30 9 18 28 23 28 7z m-4790 -45 c7 -9 18 -14 24 -12 6 2 17 -2 24 -9 10 -11
10 -17 0 -34 -16 -25 -25 -25 -65 0 -34 20 -37 27 -27 54 8 20 28 20 44 1z
m80 -80 c0 -8 -7 -15 -15 -15 -8 0 -15 7 -15 15 0 8 7 15 15 15 8 0 15 -7 15
-15z m4001 -27 c-24 -39 -28 -30 -5 13 8 17 18 28 21 25 3 -3 -4 -20 -16 -38z
m351 20 c-7 -7 -12 -8 -12 -2 0 14 12 26 19 19 2 -3 -1 -11 -7 -17z m865 -47
c-15 -5 -37 28 -30 46 4 10 10 7 23 -14 10 -17 13 -30 7 -32z m-614 34 c-3 -9
-8 -14 -10 -11 -3 3 -2 9 2 15 9 16 15 13 8 -4z m-2035 -6 c-2 -6 -7 -10 -11
-10 -4 1 -17 1 -29 1 -19 0 -20 2 -8 10 20 13 53 13 48 -1z m1283 -45 c-16
-64 -103 -245 -126 -264 -17 -14 -18 -13 -11 5 4 11 16 43 26 70 45 128 106
252 117 241 3 -3 0 -26 -6 -52z m64 -34 c-13 -36 -24 -60 -24 -54 -1 6 6 31
15 55 14 40 19 56 24 84 1 6 4 3 6 -5 2 -8 -7 -44 -21 -80z m-4065 30 c0 -15
-46 -34 -64 -27 -21 8 -20 24 2 30 32 9 62 7 62 -3z m5401 -23 c4 -15 3 -29
-1 -32 -11 -7 -30 27 -30 50 0 26 23 12 31 -18z m-4653 -19 c-3 -14 -18 -28
-30 -28 -4 0 0 9 9 20 20 23 24 25 21 8z m403 -95 c13 -16 12 -17 -3 -4 -17
13 -22 21 -14 21 2 0 10 -8 17 -17z m-3739 -53 c-2 -37 -8 -60 -15 -60 -14 1
-47 24 -47 34 0 11 50 86 58 86 4 0 5 -27 4 -60z m5865 -145 c-4 -8 -11 -15
-17 -15 -7 0 -7 6 0 21 13 23 26 19 17 -6z m793 -195 c0 -5 -5 -10 -11 -10 -5
0 -7 5 -4 10 3 6 8 10 11 10 2 0 4 -4 4 -10z m-4975 -60 c4 -6 10 -8 14 -5 13
7 55 -35 99 -100 22 -34 47 -67 56 -74 9 -7 16 -19 16 -25 0 -15 75 -87 123
-119 36 -24 77 -68 77 -81 0 -3 -5 -6 -11 -6 -5 0 -7 5 -3 11 4 7 0 9 -14 5
-13 -5 -53 8 -114 35 -94 42 -173 89 -151 89 7 0 10 7 7 15 -4 8 -9 13 -13 11
-15 -9 -65 88 -66 128 -3 75 -5 89 -12 83 -6 -7 -32 21 -33 36 0 11 18 9 25
-3z m-438 -220 c15 -9 14 -10 -7 -4 -30 8 -80 33 -80 39 0 6 62 -19 87 -35z
m3572 -1997 c2 -151 54 -375 105 -453 47 -72 171 -207 208 -226 17 -9 28 -23
28 -35 0 -28 -97 -228 -198 -412 -45 -81 -82 -151 -82 -157 0 -5 -15 -23 -32
-39 -24 -23 -53 -35 -108 -48 -73 -16 -77 -16 -150 5 -41 11 -106 33 -145 47
-127 48 -198 64 -343 77 -191 16 -301 4 -483 -56 -74 -24 -154 -53 -177 -65
-27 -14 -60 -21 -95 -21 -61 0 -293 37 -319 51 -14 8 -33 56 -28 75 1 4 -4 10
-10 14 -7 4 -13 19 -13 33 -1 14 -6 23 -11 20 -5 -4 -6 5 -2 20 3 14 2 29 -4
32 -6 4 -7 -1 -3 -12 3 -10 3 -16 0 -13 -17 15 -67 163 -62 183 4 15 3 18 -3
9 -7 -10 -12 -2 -20 28 -8 34 -8 39 3 30 8 -6 11 -19 9 -28 -5 -14 -3 -14 6 1
14 22 6 47 -14 47 -18 0 -27 47 -10 54 10 4 14 -3 14 -20 0 -15 4 -23 11 -19
6 4 8 14 5 22 -3 8 -3 19 0 25 9 13 44 -21 44 -44 0 -14 8 -18 40 -18 33 0 40
-3 40 -20 0 -15 7 -20 28 -20 15 0 33 -5 39 -11 9 -9 14 1 19 41 l7 52 13 -38
c8 -22 14 -40 14 -41 0 -2 9 -3 20 -3 17 0 20 7 21 43 1 23 4 32 6 20 4 -19
11 -23 44 -23 32 0 39 3 39 20 0 27 18 25 23 -2 2 -13 5 -2 6 24 1 42 3 46 22
43 17 -3 20 0 16 15 -3 13 0 20 9 20 8 0 14 -9 14 -20 0 -11 7 -20 15 -20 8 0
15 9 15 20 0 28 20 25 21 -2 0 -13 3 -17 6 -10 6 15 43 16 43 1 0 -8 17 -10
51 -7 38 4 49 2 45 -8 -3 -7 1 -15 8 -17 16 -6 17 25 2 36 -8 5 -6 10 4 17 12
8 11 10 -5 8 -31 -4 -105 13 -105 23 0 12 15 11 75 -4 41 -11 51 -18 54 -38
l4 -24 8 25 c6 21 7 21 8 5 1 -18 7 -20 46 -17 43 4 45 3 45 -22 0 -14 5 -26
10 -26 6 0 10 9 10 19 0 22 26 36 34 18 5 -9 7 -9 12 1 3 6 16 12 29 12 17 0
25 -6 27 -22 4 -30 34 -35 43 -8 4 12 14 19 23 18 9 -2 17 2 17 7 2 24 17 54
30 59 8 3 15 14 15 25 0 10 7 21 15 25 9 3 15 18 15 36 0 17 5 30 13 30 8 0 7
4 -3 10 -12 8 -12 10 5 10 13 0 25 11 33 30 8 17 21 30 30 30 8 0 12 3 9 7 -4
3 3 15 16 27 24 22 47 68 47 91 0 10 -12 15 -37 16 l-38 1 29 10 c102 37 336
214 591 447 l130 118 7 -51 c3 -28 6 -79 7 -113z m-1689 -42 c0 -4 -39 -16
-86 -25 -84 -17 -180 -53 -301 -114 -40 -20 -113 -78 -208 -164 -169 -154
-289 -232 -525 -345 -85 -41 -184 -89 -220 -107 -59 -30 -103 -36 -101 -13 0
4 76 46 167 93 205 105 314 172 434 266 371 291 442 330 710 388 69 15 126 28
128 29 1 0 2 -3 2 -8z m1920 -31 c118 -25 237 -64 315 -103 64 -32 114 -69
290 -212 213 -174 304 -239 454 -322 57 -32 104 -62 105 -68 0 -5 -23 -16 -51
-24 l-51 -13 -103 47 c-57 26 -135 54 -172 64 -66 16 -69 18 -125 91 -32 41
-84 95 -117 120 -87 66 -167 149 -199 205 -55 97 -144 140 -391 190 -103 21
-115 24 -115 36 0 14 57 10 160 -11z m-2100 -624 c0 -3 -4 -8 -10 -11 -5 -3
-10 -1 -10 4 0 6 5 11 10 11 6 0 10 -2 10 -4z m587 -28 c-3 -7 -5 -2 -5 12 0
14 2 19 5 13 2 -7 2 -19 0 -25z m76 5 c-7 -2 -19 -2 -25 0 -7 3 -2 5 12 5 14
0 19 -2 13 -5z m-243 -33 c8 -5 11 -10 5 -10 -5 0 -17 5 -25 10 -8 5 -10 10
-5 10 6 0 17 -5 25 -10z m290 -9 c0 -6 9 -8 20 -6 11 2 20 0 20 -6 0 -15 -70
-10 -86 6 -14 13 -12 15 15 15 17 0 31 -4 31 -9z m2638 -61 c80 -43 92 -72 34
-85 -23 -5 -41 1 -81 26 -28 18 -51 36 -51 40 0 7 46 37 58 39 1 0 19 -9 40
-20z m-4636 -7 c22 -20 23 -33 1 -33 -9 0 -45 -12 -80 -26 -96 -38 -107 -26
-27 28 38 26 73 47 78 47 5 1 18 -6 28 -16z m1591 -30 c-7 -2 -19 -2 -25 0 -7
3 -2 5 12 5 14 0 19 -2 13 -5z m0 -20 c-7 -2 -19 -2 -25 0 -7 3 -2 5 12 5 14
0 19 -2 13 -5z m1188 -511 c-7 -2 -18 1 -23 6 -8 8 -4 9 13 5 13 -4 18 -8 10
-11z m-1272 -18 c37 -4 62 -12 65 -20 3 -8 0 -14 -6 -14 -6 0 -8 -3 -5 -7 10
-10 -35 -38 -58 -36 -11 2 -4 -4 15 -11 l35 -14 -29 -7 c-26 -7 -33 -4 -61 30
-18 21 -40 51 -50 68 l-18 30 26 -7 c15 -3 53 -9 86 -12z m1595 -27 c-36 -41
-40 -43 -64 -31 -14 7 -34 16 -45 20 -15 5 -5 10 38 20 32 8 66 18 75 24 34
19 33 9 -4 -33z m293 28 c0 -16 -83 -52 -94 -41 -9 9 28 35 50 36 9 0 17 5 17
10 0 6 6 10 13 10 8 0 14 -7 14 -15z m-1729 -85 c-13 -20 -54 -38 -64 -27 -4
3 57 42 74 46 1 1 -3 -8 -10 -19z"/>
<path d="M3614 8505 c-9 -14 -14 -28 -11 -31 3 -3 12 9 20 25 19 38 14 40 -9
6z"/>
<path d="M3262 8460 c-7 -11 -9 -20 -4 -20 10 0 32 22 32 32 0 15 -15 8 -28
-12z"/>
<path d="M3250 8415 c0 -8 2 -15 4 -15 2 0 6 7 10 15 3 8 1 15 -4 15 -6 0 -10
-7 -10 -15z"/>
<path d="M3141 8212 c-6 -12 -11 -29 -10 -39 0 -11 6 -6 15 16 16 37 12 55 -5
23z"/>
<path d="M6182 9409 c13 -21 116 -79 140 -79 8 0 49 -24 93 -54 44 -30 130
-89 192 -130 61 -41 153 -112 203 -156 50 -45 94 -79 98 -75 4 4 0 12 -9 18
-9 7 -14 18 -12 25 3 6 0 12 -6 12 -12 0 -22 7 -106 83 -74 67 -274 214 -365
268 -56 33 -220 109 -236 109 -2 0 1 -9 8 -21z"/>
<path d="M6925 8880 c4 -6 11 -8 16 -5 14 9 11 15 -7 15 -8 0 -12 -5 -9 -10z"/>
<path d="M7110 8826 c0 -2 8 -10 18 -17 15 -13 16 -12 3 4 -13 16 -21 21 -21
13z"/>
<path d="M7165 8770 c10 -11 20 -20 22 -20 2 0 -1 9 -7 20 -6 11 -16 20 -22
20 -6 0 -3 -9 7 -20z"/>
<path d="M7460 8416 c0 -2 7 -9 15 -16 13 -11 14 -10 9 4 -5 14 -24 23 -24 12z"/>
<path d="M7600 8235 c0 -12 38 -75 45 -75 3 0 -1 12 -9 28 -23 41 -36 58 -36
47z"/>
<path d="M7690 8076 c0 -2 7 -9 15 -16 13 -11 14 -10 9 4 -5 14 -24 23 -24 12z"/>
<path d="M7750 7988 c17 -29 50 -90 73 -135 23 -46 45 -83 49 -83 4 0 -1 17
-12 38 -10 20 -26 55 -36 77 -18 41 -91 155 -100 155 -2 0 9 -24 26 -52z"/>
<path d="M7945 7590 c4 -16 15 -46 26 -67 l20 -38 -6 40 c-7 39 -31 95 -41 95
-3 0 -3 -13 1 -30z"/>
<path d="M7990 7471 c0 -6 5 -13 10 -16 6 -3 10 1 10 9 0 9 -4 16 -10 16 -5 0
-10 -4 -10 -9z"/>
<path d="M8007 7433 c-6 -10 16 -85 33 -115 6 -10 10 -25 10 -33 0 -8 10 -43
21 -77 12 -34 23 -69 24 -77 1 -9 6 -28 12 -42 6 -14 23 -84 38 -154 15 -71
31 -136 35 -144 9 -19 40 -176 41 -211 1 -24 1 -24 9 4 5 16 7 33 5 37 -3 4
-14 49 -25 101 -10 51 -31 143 -45 203 -15 61 -29 121 -32 135 -2 14 -18 68
-33 120 -16 52 -38 127 -50 165 -23 78 -35 102 -43 88z"/>
<path d="M8796 7204 c19 -71 45 -166 56 -211 12 -46 25 -83 30 -83 12 0 0 62
-23 125 -10 28 -22 68 -28 90 -20 84 -53 190 -61 199 -5 5 7 -49 26 -120z"/>
<path d="M7496 7185 c3 -33 7 -76 9 -95 25 -216 28 -256 41 -480 3 -52 12
-187 19 -300 l14 -205 -5 270 c-7 358 -19 545 -44 690 -25 150 -42 207 -34
120z"/>
<path d="M7951 6794 c-1 -53 19 -234 34 -298 18 -80 52 -328 60 -436 3 -47 8
-101 10 -120 2 -19 6 -80 10 -135 7 -117 14 -157 25 -150 10 6 18 75 10 80 -4
3 -5 24 -3 47 5 46 -10 242 -27 368 -12 85 -27 208 -35 290 -13 131 -48 303
-75 365 -7 17 -9 15 -9 -11z"/>
<path d="M5643 9312 c10 -10 17 -24 17 -30 0 -6 5 -14 12 -18 6 -4 9 -3 7 2
-3 5 -11 21 -19 37 -7 15 -18 27 -23 27 -6 0 -3 -8 6 -18z"/>
<path d="M5841 8542 c-1 -8 13 -98 31 -200 31 -184 32 -192 31 -502 -1 -173
-6 -335 -11 -360 -28 -125 -63 -306 -77 -400 -8 -58 -19 -123 -25 -145 -5 -22
-7 -41 -5 -43 4 -4 50 46 67 72 13 19 17 0 8 -35 -43 -167 -91 -306 -150 -434
-67 -146 -83 -183 -127 -295 -24 -63 -67 -159 -94 -212 -27 -54 -49 -105 -49
-113 0 -8 -4 -15 -9 -15 -10 0 -24 -30 -17 -37 9 -10 99 126 138 207 22 47 58
139 80 205 22 66 79 201 128 300 157 320 188 494 182 1010 -3 337 -18 567 -47
735 -27 159 -52 283 -54 262z m48 -1329 c0 -51 -3 -82 -8 -75 -4 7 -6 25 -4
40 3 24 2 24 -6 7 -7 -15 -10 -5 -8 40 1 49 9 73 23 75 1 0 2 -39 3 -87z m1
-114 c0 -5 -4 -9 -10 -9 -5 0 -10 7 -10 16 0 8 5 12 10 9 6 -3 10 -10 10 -16z
m-14 -76 c-11 -11 -19 6 -11 24 8 17 8 17 12 0 3 -10 2 -21 -1 -24z m-19 -35
c-3 -8 -6 -5 -6 6 -1 11 2 17 5 13 3 -3 4 -12 1 -19z"/>
<path d="M5040 8176 c0 -8 5 -18 10 -21 6 -3 10 1 10 9 0 8 -4 18 -10 21 -5 3
-10 -1 -10 -9z"/>
<path d="M6172 8005 c0 -16 2 -22 5 -12 2 9 2 23 0 30 -3 6 -5 -1 -5 -18z"/>
<path d="M4987 7874 c-4 -4 -7 -14 -7 -23 0 -11 3 -12 11 -4 6 6 10 16 7 23
-2 6 -7 8 -11 4z"/>
<path d="M4950 7751 c-11 -21 -14 -79 -4 -68 7 7 23 87 18 87 -2 0 -8 -9 -14
-19z"/>
<path d="M4875 7599 c-4 -6 -5 -12 -2 -15 2 -3 7 2 10 11 7 17 1 20 -8 4z"/>
<path d="M4827 7593 c-4 -3 -7 -11 -7 -17 0 -6 5 -5 12 2 6 6 9 14 7 17 -3 3
-9 2 -12 -2z"/>
<path d="M4860 7520 c-6 -11 -9 -20 -6 -20 2 0 0 -17 -5 -37 -45 -193 -88
-598 -68 -648 6 -17 8 -15 8 10 1 19 4 25 9 17 10 -15 28 74 42 213 6 55 14
127 19 159 4 33 5 75 0 93 -4 19 -5 53 -3 76 8 86 12 116 19 136 8 27 -1 27
-15 1z"/>
<path d="M5963 6954 c-12 -38 -35 -107 -53 -154 -17 -47 -35 -96 -39 -110 -5
-14 -22 -54 -39 -90 -17 -36 -43 -103 -58 -150 -14 -47 -29 -89 -32 -94 -3 -5
0 -6 5 -3 16 10 157 348 186 447 48 158 59 200 55 212 -2 6 -14 -20 -25 -58z"/>
<path d="M5882 6170 c0 -14 2 -19 5 -12 2 6 2 18 0 25 -3 6 -5 1 -5 -13z"/>
<path d="M3112 9100 c0 -14 2 -19 5 -12 2 6 2 18 0 25 -3 6 -5 1 -5 -13z"/>
<path d="M6638 7655 c14 -28 374 -384 412 -408 40 -25 52 -14 14 15 -16 12
-101 92 -189 177 -205 200 -250 241 -237 216z"/>
<path d="M1603 7333 c-55 -117 -193 -454 -234 -572 -51 -146 -39 -138 59 45
39 72 76 152 82 178 6 27 19 68 30 91 11 23 29 77 40 119 12 42 32 100 44 129
26 58 39 107 31 107 -4 0 -27 -44 -52 -97z"/>
<path d="M2250 1549 c0 -5 5 -7 10 -4 6 3 10 8 10 11 0 2 -4 4 -10 4 -5 0 -10
-5 -10 -11z"/>
<path d="M8900 3310 c0 -5 5 -10 11 -10 5 0 7 5 4 10 -3 6 -8 10 -11 10 -2 0
-4 -4 -4 -10z"/>
<path d="M6900 2059 c0 -11 4 -18 10 -14 5 3 7 12 3 20 -7 21 -13 19 -13 -6z"/>
<path d="M2116 5745 c-9 -26 -7 -32 5 -12 6 10 9 21 6 23 -2 3 -7 -2 -11 -11z"/>
<path d="M6650 6551 c0 -10 19 -25 25 -20 1 2 -3 10 -11 17 -8 7 -14 8 -14 3z"/>
<path d="M6335 5380 c-90 -23 -165 -56 -182 -80 -8 -11 -19 -17 -26 -15 -14 5
-107 -60 -107 -76 0 -5 5 -7 10 -4 16 10 12 -3 -17 -53 l-27 -47 34 28 c19 15
49 38 65 51 28 22 123 83 255 162 103 62 103 61 -5 34z"/>
<path d="M3227 4343 c-35 -18 -36 -37 -2 -29 20 5 72 -11 93 -29 2 -2 -9 -15
-23 -30 -31 -30 -28 -42 6 -25 23 13 102 16 120 4 6 -4 4 -15 -6 -30 -24 -37
-10 -45 38 -24 53 24 55 24 96 -1 31 -19 32 -21 15 -34 -18 -13 -18 -14 -1
-20 10 -4 28 0 42 9 25 16 121 22 141 8 6 -4 14 -16 19 -27 7 -17 9 -18 12 -3
2 9 12 19 21 22 9 2 49 12 87 22 39 9 75 21 80 26 6 6 -2 6 -20 1 -68 -18
-207 -7 -330 25 -66 18 -126 32 -133 32 -7 0 -41 19 -74 41 -34 23 -82 50
-108 59 -41 15 -50 15 -73 3z"/>
<path d="M5147 3613 c-4 -3 -7 -28 -7 -55 0 -51 22 -76 41 -47 25 40 -5 131
-34 102z m23 -93 c0 -5 -4 -10 -10 -10 -5 0 -10 5 -10 10 0 6 5 10 10 10 6 0
10 -4 10 -10z"/>
<path d="M6628 3573 c6 -2 18 -2 25 0 6 3 1 5 -13 5 -14 0 -19 -2 -12 -5z"/>
<path d="M7042 3393 c-39 -18 -72 -40 -72 -48 0 -8 -18 -19 -42 -26 -24 -7
-47 -16 -52 -21 -13 -10 115 25 184 52 55 21 107 56 98 66 -16 15 -51 8 -116
-23z"/>
<path d="M5044 2754 c-5 -1 -21 -5 -36 -8 -45 -10 -32 -26 20 -26 26 0 63 -4
81 -10 42 -12 50 -6 27 19 -15 17 -67 31 -92 25z"/>
<path d="M5403 2745 c-38 -16 -43 -35 -10 -35 36 1 158 20 170 27 36 22 -111
30 -160 8z"/>
<path d="M3740 4441 c0 -6 4 -13 10 -16 6 -3 7 1 4 9 -7 18 -14 21 -14 7z"/>
<path d="M5089 678 c7 -9 9 -23 5 -30 -6 -10 -4 -11 7 0 11 10 10 15 -6 30
-17 15 -18 15 -6 0z"/>
<path d="M5040 620 c0 -11 5 -20 10 -20 6 0 10 9 10 20 0 11 -4 20 -10 20 -5
0 -10 -9 -10 -20z"/>
<path d="M5170 629 c0 -5 5 -7 10 -4 6 3 10 8 10 11 0 2 -4 4 -10 4 -5 0 -10
-5 -10 -11z"/>
<path d="M4400 571 c0 -5 -8 -12 -17 -14 -16 -4 -16 -5 -1 -6 9 0 18 -9 20
-18 3 -13 6 -9 10 10 3 15 1 30 -3 33 -5 3 -9 1 -9 -5z"/>
<path d="M4432 540 c0 -14 2 -19 5 -12 2 6 2 18 0 25 -3 6 -5 1 -5 -13z"/>
<path d="M4488 533 c6 -2 18 -2 25 0 6 3 1 5 -13 5 -14 0 -19 -2 -12 -5z"/>
<path d="M5125 530 c-3 -5 -1 -10 4 -10 6 0 11 5 11 10 0 6 -2 10 -4 10 -3 0
-8 -4 -11 -10z"/>
<path d="M5072 404 c-9 -10 -10 -19 -2 -34 12 -23 25 -27 17 -6 -3 8 -1 16 5
18 7 3 8 10 2 20 -8 14 -11 14 -22 2z"/>
</g>
</svg>
