<?xml version="1.0" encoding="utf-8"?>
<!-- Generator: Adobe Illustrator 15.0.0, SVG Export Plug-In . SVG Version: 6.00 Build 0)  -->
<!DOCTYPE svg PUBLIC "-//W3C//DTD SVG 1.1//EN" "http://www.w3.org/Graphics/SVG/1.1/DTD/svg11.dtd">
<svg version="1.1" id="portfolio" xmlns="http://www.w3.org/2000/svg" xmlns:xlink="http://www.w3.org/1999/xlink" x="0px" y="0px"
	 width="98.25px" height="143px" viewBox="0 0 98.25 143" enable-background="new 0 0 98.25 143" xml:space="preserve">
<g>
	<g opacity="0.2">
		<path fill="#02263E" d="M50.943,55.69c-3.348,0-6.35,1.493-8.382,3.847c1.428-0.593,2.992-0.92,4.633-0.92
			c6.683,0,12.101,5.417,12.101,12.102c0,1.419-0.244,2.778-0.695,4.045c2.107-2.021,3.426-4.856,3.426-7.997
			C62.021,60.661,57.053,55.69,50.943,55.69z"/>
	</g>
	<path opacity="0.2" fill="#02263E" enable-background="new    " d="M15.212,76.832c-0.921-3.228-1.424-6.628-1.424-10.147
		c0-6.421,1.643-12.466,4.525-17.736c-4.552,6.035-7.254,13.544-7.254,21.686c0,2.116,0.193,4.184,0.542,6.198H15.212z"/>
	<path fill="#02263E" d="M97.25,67.122c-3.451-3.111-6.518-5.831-10.363-9.146c-3.93-16.252-18.586-28.363-36.029-28.363
		c-17.313,0-31.887,11.932-35.944,28.002c-3.832,3.312-7.572,6.608-10.789,9.507v0.154v72.023H97.25V67.542h-0.012
		c0,0.009-0.002,0.018-0.002,0.027c0.002-0.098,0.014-0.194,0.014-0.293V67.122L97.25,67.122z M94.709,67.949
		c-0.285,4.512-3.543,7.756-8.006,8.088c0.783-2.99,1.227-6.119,1.227-9.353c0-1.593-0.111-3.159-0.309-4.699
		C91.396,65.229,94.709,67.949,94.709,67.949z M45.887,76.07h-0.936c-3.057-1.973-5.088-5.401-5.088-9.302
		c0-6.109,4.971-11.078,11.081-11.078c6.107,0,11.078,4.971,11.078,11.078c0,3.901-2.029,7.329-5.088,9.302H45.887z M64.066,66.769
		c0-7.236-5.887-13.124-13.123-13.124c-7.235,0-13.125,5.888-13.125,13.124c0,3.638,1.498,6.923,3.896,9.302h-4.586
		c-1.863-2.705-2.973-5.965-2.973-9.491c0-9.269,7.54-16.809,16.809-16.809c9.266,0,16.809,7.54,16.809,16.809
		c0,3.526-1.111,6.786-2.975,9.491H60.17C62.57,73.691,64.066,70.406,64.066,66.769z M17.136,76.07
		c-0.834-2.99-1.303-6.133-1.303-9.386c0-1.468,0.102-2.912,0.277-4.333l2.644,0.335c-0.177,1.366-0.278,2.756-0.278,4.169
		c0,3.205,0.496,6.291,1.372,9.214L17.136,76.07L17.136,76.07z M20.384,76.07c-0.892-2.92-1.397-6.007-1.397-9.215
		c0-1.392,0.1-2.759,0.274-4.104l14,1.775c-0.078,0.674-0.128,1.356-0.128,2.051c0,3.491,1.022,6.74,2.762,9.493H20.384z
		 M82.125,70.743L68.619,69.03c0.111-0.803,0.176-1.621,0.176-2.454c0-9.832-7.998-17.831-17.83-17.831
		c-4.263,0-8.179,1.508-11.251,4.013l-9.021-10.482c5.458-4.45,12.421-7.124,19.999-7.124c17.479,0,31.699,14.221,31.699,31.703
		C82.391,68.174,82.283,69.466,82.125,70.743z M38.95,53.439c-2.848,2.606-4.844,6.114-5.535,10.075l-14.01-1.777
		c1.216-7.458,5.042-14.045,10.508-18.799L38.95,53.439z M68.443,70.041l13.555,1.719c-0.23,1.475-0.578,2.911-1.006,4.311H66.033
		C67.182,74.254,68.01,72.219,68.443,70.041z M82.51,71.824l2.928,0.372c-0.211,1.318-0.504,2.608-0.857,3.875h-3.051
		C81.943,74.688,82.281,73.275,82.51,71.824z M85.883,66.684c0,1.525-0.117,3.022-0.309,4.497l-2.941-0.373
		c0.16-1.297,0.27-2.611,0.27-3.952c0-17.763-14.449-32.214-32.211-32.214c-7.704,0-14.782,2.721-20.332,7.248l-1.852-2.151
		c6.069-5.043,13.862-8.081,22.35-8.081C70.172,31.657,85.883,47.371,85.883,66.684z M27.736,40.407l1.846,2.145
		c-5.56,4.834-9.45,11.535-10.683,19.121l-2.657-0.337C17.516,53.048,21.713,45.715,27.736,40.407z M14.175,61.37
		c-0.251,1.737-0.387,3.51-0.387,5.314c0,3.239,0.443,6.372,1.229,9.367c-4.638-0.187-8.06-3.475-8.352-8.103
		C6.666,67.949,10.268,64.784,14.175,61.37z M94.738,74.367v62.422H6.638V74.367c-0.003-0.005-0.007-0.01-0.01-0.015
		c2.073,2.575,5.248,4.229,8.804,4.229h30.456h40.058c3.557,0,6.729-1.654,8.805-4.229C94.744,74.357,94.74,74.362,94.738,74.367z"
		/>
	<path opacity="0.2" fill="#02263E" enable-background="new    " d="M4.657,138.637V68.8C3.386,69.926,2.156,71.025,1,72.067v70.044
		h93.125v-3.65L4.657,138.637z"/>
</g>
<g opacity="0.2">
	<path fill="#02263E" d="M86.939,18.265L62.563,18.89v-4h-13v-9l-3.135-0.042v11l13.135,0.042c0,2,0,3.023,0,4h23.627
		c1.756,0,6.332-0.354,8.041-3.583C90.775,17.39,87.424,18.265,86.939,18.265z"/>
</g>
<g>
	<path fill="#02263E" d="M86.979,18.89h-25.4v-18h25.4c4.785,0,8.68,3.895,8.68,8.68v0.641C95.658,14.996,91.764,18.89,86.979,18.89
		z M63.578,16.89h23.4c3.684,0,6.68-2.996,6.68-6.68V9.568c0-3.686-2.996-6.682-6.68-6.682h-23.4V16.89z"/>
</g>
<g>
	<path fill="#02263E" d="M86.855,14.832h-1V4.948h1c2.637,0,4.783,2.146,4.783,4.782v0.315
		C91.639,12.686,89.492,14.832,86.855,14.832z M87.855,7.135v5.511c1.041-0.402,1.783-1.415,1.783-2.598V9.733
		C89.639,8.55,88.896,7.537,87.855,7.135z"/>
</g>
<g>
	<path fill="#02263E" d="M63.578,15.77h-14.64V4.009h14.64V15.77z M50.938,13.77h10.641v-7.76H50.938V13.77z"/>
</g>
<g>
	<rect x="54.105" y="7.265" fill="#02263E" width="3.75" height="2"/>
</g>
<g>
	<rect x="54.105" y="10.348" fill="#02263E" width="3.75" height="2"/>
</g>
</svg>
