<?xml version="1.0" encoding="utf-8"?>
<!-- Generator: Adobe Illustrator 15.0.0, SVG Export Plug-In . SVG Version: 6.00 Build 0)  -->
<!DOCTYPE svg PUBLIC "-//W3C//DTD SVG 1.1//EN" "http://www.w3.org/Graphics/SVG/1.1/DTD/svg11.dtd">
<svg version="1.1" id="blog" xmlns="http://www.w3.org/2000/svg" xmlns:xlink="http://www.w3.org/1999/xlink" x="0px" y="0px"
	 width="128.75px" height="187.75px" viewBox="0 0 128.75 187.75" enable-background="new 0 0 128.75 187.75" xml:space="preserve">
<g>
	<g>
		<path fill="#02263E" d="M113.678,182.294h-0.388c-7.752,0-14.061-6.308-14.061-14.059v-21.914c0-7.752,6.309-14.059,14.061-14.059
			h0.388c7.754,0,14.062,6.307,14.062,14.059v21.914C127.739,175.988,121.432,182.294,113.678,182.294z M113.293,134.589
			c-6.47,0-11.732,5.264-11.732,11.73v21.914c0,6.471,5.265,11.731,11.732,11.731h0.389c6.47,0,11.731-5.262,11.731-11.731v-21.912
			c0-6.469-5.264-11.731-11.731-11.731L113.293,134.589L113.293,134.589z"/>
	</g>
</g>
<g>
	<path fill="#02263E" d="M113.485,148.552c-1.122,0-2.035-0.914-2.035-2.037v-4.072c0-1.123,0.913-2.035,2.035-2.035
		c1.123,0,2.036,0.912,2.036,2.035v4.072C115.521,147.638,114.608,148.552,113.485,148.552z M113.485,141.569
		c-0.479,0-0.872,0.394-0.872,0.873v4.072c0,0.482,0.393,0.873,0.872,0.873s0.873-0.391,0.873-0.873v-4.072
		C114.358,141.962,113.969,141.569,113.485,141.569z"/>
</g>
<g opacity="0.2">
	<path fill="#02263E" d="M113.678,182.294h-0.388c-7.752,0-14.061-6.308-14.061-14.059v-21.914c0-5.622,3.319-10.481,8.1-12.729
		c-6.893,1.057-10.426,6.523-10.426,13.71v22.956c0,7.933,6.431,14.363,14.362,14.363h0.363c5.219,0,7.444-1.699,10.557-5.203
		C119.825,181.22,116.877,182.294,113.678,182.294z"/>
</g>
<g>
	<g>
		<path fill="#02263E" d="M80.026,185.135H7.462c-2.071,0-3.755-1.686-3.755-3.756V4.924c0-2.07,1.684-3.754,3.755-3.754h72.564
			c2.069,0,3.755,1.685,3.755,3.754v176.458C83.78,183.451,82.096,185.135,80.026,185.135z M7.462,2.811
			c-1.165,0-2.112,0.946-2.112,2.112v176.458c0,1.164,0.947,2.111,2.112,2.111h72.564c1.165,0,2.112-0.947,2.112-2.111V4.924
			c0-1.166-0.948-2.112-2.112-2.112L7.462,2.811L7.462,2.811z"/>
	</g>
</g>
<g>
	<path fill="#02263E" d="M18.099,116.147H9.435c-0.441,0-0.801-0.357-0.801-0.801V56.584c0-0.44,0.357-0.799,0.801-0.799h8.664
		c0.441,0,0.801,0.358,0.801,0.799v58.763C18.9,115.789,18.541,116.147,18.099,116.147z M18.079,56.584l-8.644,0.021l0.021,58.744
		l8.623-0.021V56.584z"/>
</g>
<g>
	<path fill="#02263E" d="M18.099,17.183H9.435c-0.441,0-0.801-0.359-0.801-0.801V7.718c0-0.441,0.357-0.801,0.801-0.801h8.664
		c0.441,0,0.801,0.359,0.801,0.801v8.664C18.9,16.824,18.541,17.183,18.099,17.183z M18.079,7.719L9.435,7.739l0.021,8.646
		l8.623-0.021V7.719z"/>
</g>
<g>
	<path fill="#02263E" d="M29.598,32.377h-8.667c-0.439,0-0.799-0.358-0.799-0.801V7.719c0-0.441,0.357-0.801,0.799-0.801h8.667
		c0.44,0,0.802,0.359,0.802,0.801v23.857C30.4,32.018,30.039,32.377,29.598,32.377z M29.576,7.719L20.93,7.74l0.022,23.839
		l8.623-0.021L29.576,7.719L29.576,7.719z"/>
</g>
<g>
	<path fill="#02263E" d="M18.099,28.681H9.435c-0.441,0-0.801-0.359-0.801-0.801v-8.664c0-0.441,0.357-0.801,0.801-0.801h8.664
		c0.441,0,0.801,0.358,0.801,0.801v8.664C18.9,28.322,18.541,28.681,18.099,28.681z M18.079,19.217l-8.644,0.021l0.021,8.644
		l8.623-0.021V19.217z"/>
</g>
<g>
	<path fill="#02263E" d="M29.598,43.875h-8.667c-0.439,0-0.799-0.358-0.799-0.799V34.41c0-0.441,0.357-0.801,0.799-0.801h8.667
		c0.44,0,0.802,0.359,0.802,0.801v8.666C30.4,43.516,30.039,43.875,29.598,43.875z M29.576,34.41l-8.646,0.021l0.022,8.645
		l8.623-0.021L29.576,34.41L29.576,34.41z"/>
</g>
<g>
	<path fill="#02263E" d="M29.598,68.513h-8.667c-0.439,0-0.799-0.365-0.799-0.814v-9.048c0-0.448,0.357-0.813,0.799-0.813h8.667
		c0.44,0,0.802,0.365,0.802,0.813v9.048C30.4,68.148,30.039,68.513,29.598,68.513z M29.576,58.651l-8.646,0.007l0.022,9.041
		l8.623-0.007L29.576,58.651L29.576,58.651z"/>
</g>
<g>
	<path fill="#02263E" d="M29.598,80.422h-8.667c-0.439,0-0.799-0.365-0.799-0.814v-9.049c0-0.449,0.357-0.813,0.799-0.813h8.667
		c0.44,0,0.802,0.365,0.802,0.813v9.048C30.4,80.056,30.039,80.422,29.598,80.422z M29.576,70.559l-8.646,0.007l0.022,9.041
		l8.623-0.007L29.576,70.559L29.576,70.559z"/>
</g>
<g>
	<path fill="#02263E" d="M29.598,92.33h-8.667c-0.439,0-0.799-0.366-0.799-0.814v-9.047c0-0.448,0.357-0.813,0.799-0.813h8.667
		c0.44,0,0.802,0.365,0.802,0.813v9.048C30.4,91.965,30.039,92.33,29.598,92.33z M29.576,82.467l-8.646,0.009l0.022,9.041
		l8.623-0.007L29.576,82.467L29.576,82.467z"/>
</g>
<g>
	<path fill="#02263E" d="M29.598,104.239h-8.667c-0.439,0-0.799-0.365-0.799-0.814v-9.047c0-0.448,0.357-0.814,0.799-0.814h8.667
		c0.44,0,0.802,0.366,0.802,0.814v9.047C30.4,103.873,30.039,104.239,29.598,104.239z M29.576,94.377l-8.646,0.006l0.022,9.041
		l8.623-0.006L29.576,94.377L29.576,94.377z"/>
</g>
<g>
	<path fill="#02263E" d="M29.598,116.147h-8.667c-0.439,0-0.799-0.365-0.799-0.813v-9.049c0-0.449,0.357-0.813,0.799-0.813h8.667
		c0.44,0,0.802,0.364,0.802,0.813v9.049C30.4,115.782,30.039,116.147,29.598,116.147z M29.576,106.285l-8.646,0.008l0.022,9.041
		l8.623-0.006L29.576,106.285L29.576,106.285z"/>
</g>
<g>
	<path fill="#02263E" d="M29.598,128.058h-8.667c-0.439,0-0.799-0.367-0.799-0.814v-9.049c0-0.447,0.357-0.813,0.799-0.813h8.667
		c0.44,0,0.802,0.365,0.802,0.813v9.049C30.4,127.69,30.039,128.058,29.598,128.058z M29.576,118.194l-8.646,0.008l0.022,9.041
		l8.623-0.008L29.576,118.194L29.576,118.194z"/>
</g>
<g>
	<path fill="#02263E" d="M29.598,139.965h-8.667c-0.439,0-0.799-0.364-0.799-0.813v-9.049c0-0.449,0.357-0.813,0.799-0.813h8.667
		c0.44,0,0.802,0.362,0.802,0.813v9.049C30.4,139.601,30.039,139.965,29.598,139.965z M29.576,130.103l-8.646,0.008l0.022,9.041
		l8.623-0.008L29.576,130.103L29.576,130.103z"/>
</g>
<g>
	<path fill="#02263E" d="M29.598,151.873h-8.667c-0.439,0-0.799-0.365-0.799-0.813v-9.047c0-0.449,0.357-0.814,0.799-0.814h8.667
		c0.44,0,0.802,0.365,0.802,0.814v9.047C30.4,151.508,30.039,151.873,29.598,151.873z M29.576,142.01l-8.646,0.009l0.022,9.041
		l8.623-0.009L29.576,142.01L29.576,142.01z"/>
</g>
<g>
	<path fill="#02263E" d="M40.685,75.084h-8.664c-0.442,0-0.802-0.365-0.802-0.813v-9.048c0-0.449,0.358-0.814,0.802-0.814h8.664
		c0.441,0,0.799,0.365,0.799,0.814v9.048C41.484,74.719,41.127,75.084,40.685,75.084z M40.664,65.221l-8.645,0.007l0.021,9.042
		l8.624-0.007V65.221z"/>
</g>
<g>
	<path fill="#02263E" d="M40.685,86.992h-8.664c-0.442,0-0.802-0.365-0.802-0.813v-9.048c0-0.449,0.358-0.814,0.802-0.814h8.664
		c0.441,0,0.799,0.365,0.799,0.814v9.048C41.484,86.627,41.127,86.992,40.685,86.992z M40.664,77.129l-8.645,0.008l0.021,9.042
		l8.624-0.007V77.129z"/>
</g>
<g>
	<path fill="#02263E" d="M40.685,98.901h-8.664c-0.442,0-0.802-0.365-0.802-0.814v-9.049c0-0.447,0.358-0.813,0.802-0.813h8.664
		c0.441,0,0.799,0.366,0.799,0.813v9.049C41.484,98.535,41.127,98.901,40.685,98.901z M40.664,89.039l-8.645,0.008l0.021,9.042
		l8.624-0.008V89.039z"/>
</g>
<g>
	<path fill="#02263E" d="M40.685,110.81h-8.664c-0.442,0-0.802-0.365-0.802-0.813v-9.052c0-0.446,0.358-0.813,0.802-0.813h8.664
		c0.441,0,0.799,0.365,0.799,0.813v9.052C41.484,110.444,41.127,110.81,40.685,110.81z M40.664,100.946l-8.645,0.01l0.021,9.041
		l8.624-0.008V100.946z"/>
</g>
<g>
	<path fill="#02263E" d="M40.685,122.717h-8.664c-0.442,0-0.802-0.364-0.802-0.813v-9.047c0-0.449,0.358-0.814,0.802-0.814h8.664
		c0.441,0,0.799,0.365,0.799,0.814v9.047C41.484,122.353,41.127,122.717,40.685,122.717z M40.664,112.856l-8.645,0.008l0.021,9.039
		l8.624-0.006V112.856z"/>
</g>
<g>
	<path fill="#02263E" d="M40.685,134.625h-8.664c-0.442,0-0.802-0.365-0.802-0.813v-9.049c0-0.449,0.358-0.813,0.802-0.813h8.664
		c0.441,0,0.799,0.363,0.799,0.813v9.049C41.484,134.26,41.127,134.625,40.685,134.625z M40.664,124.765l-8.645,0.008l0.021,9.041
		l8.624-0.008V124.765z"/>
</g>
<g>
	<path fill="#02263E" d="M40.685,146.535h-8.664c-0.442,0-0.802-0.365-0.802-0.813v-9.05c0-0.446,0.358-0.813,0.802-0.813h8.664
		c0.441,0,0.799,0.363,0.799,0.813v9.05C41.484,146.17,41.127,146.535,40.685,146.535z M40.664,136.672l-8.645,0.009l0.021,9.038
		l8.624-0.006V136.672z"/>
</g>
<g>
	<path fill="#02263E" d="M40.685,158.442h-8.664c-0.442,0-0.802-0.363-0.802-0.813v-9.047c0-0.449,0.358-0.813,0.802-0.813h8.664
		c0.441,0,0.799,0.364,0.799,0.813v9.047C41.484,158.078,41.127,158.442,40.685,158.442z M40.664,148.582l-8.645,0.008l0.021,9.039
		l8.624-0.006V148.582z"/>
</g>
<g>
	<path fill="#02263E" d="M40.685,178.975h-8.664c-0.442,0-0.802-0.365-0.802-0.813v-17.672c0-0.447,0.358-0.813,0.802-0.813h8.664
		c0.441,0,0.799,0.365,0.799,0.813v17.672C41.484,178.609,41.127,178.975,40.685,178.975z M40.664,160.489l-8.645,0.01l0.021,17.662
		l8.624-0.009V160.489z"/>
</g>
<g>
	<path fill="#02263E" d="M51.773,95.615h-8.666c-0.441,0-0.801-0.365-0.801-0.813v-9.048c0-0.448,0.359-0.813,0.801-0.813h8.666
		c0.44,0,0.799,0.365,0.799,0.813v9.049C52.572,95.25,52.214,95.615,51.773,95.615z M51.752,85.752l-8.645,0.008l0.021,9.042
		l8.623-0.008L51.752,85.752L51.752,85.752z"/>
</g>
<g>
	<path fill="#02263E" d="M51.773,107.524h-8.666c-0.441,0-0.801-0.365-0.801-0.814v-9.047c0-0.449,0.359-0.814,0.801-0.814h8.666
		c0.44,0,0.799,0.365,0.799,0.814v9.046C52.572,107.158,52.214,107.524,51.773,107.524z M51.752,97.662l-8.645,0.008l0.022,9.039
		l8.623-0.006V97.662z"/>
</g>
<g>
	<path fill="#02263E" d="M51.773,119.433h-8.666c-0.441,0-0.801-0.365-0.801-0.813v-9.05c0-0.446,0.359-0.813,0.801-0.813h8.666
		c0.44,0,0.799,0.365,0.799,0.813v9.05C52.572,119.067,52.214,119.433,51.773,119.433z M51.752,109.569l-8.645,0.01l0.021,9.041
		l8.623-0.008L51.752,109.569L51.752,109.569z"/>
</g>
<g>
	<path fill="#02263E" d="M51.773,131.34h-8.666c-0.441,0-0.801-0.364-0.801-0.813v-9.047c0-0.449,0.359-0.813,0.801-0.813h8.666
		c0.44,0,0.799,0.362,0.799,0.813v9.049C52.572,130.976,52.214,131.34,51.773,131.34z M51.752,121.479l-8.645,0.008l0.021,9.041
		l8.623-0.008L51.752,121.479L51.752,121.479z"/>
</g>
<g>
	<path fill="#02263E" d="M51.773,143.25h-8.666c-0.441,0-0.801-0.365-0.801-0.813v-9.049c0-0.447,0.359-0.813,0.801-0.813h8.666
		c0.44,0,0.799,0.362,0.799,0.813v9.049C52.572,142.885,52.214,143.25,51.773,143.25z M51.752,133.388l-8.645,0.008l0.021,9.041
		l8.623-0.009L51.752,133.388L51.752,133.388z"/>
</g>
<g>
	<path fill="#02263E" d="M51.773,155.158h-8.666c-0.441,0-0.801-0.365-0.801-0.814v-9.049c0-0.446,0.359-0.813,0.801-0.813h8.666
		c0.44,0,0.799,0.363,0.799,0.813v9.049C52.572,154.793,52.214,155.158,51.773,155.158z M51.752,145.295l-8.645,0.008l0.021,9.041
		l8.623-0.008L51.752,145.295L51.752,145.295z"/>
</g>
<g>
	<path fill="#02263E" d="M51.773,167.067h-8.666c-0.441,0-0.801-0.365-0.801-0.813v-9.051c0-0.447,0.359-0.813,0.801-0.813h8.666
		c0.44,0,0.799,0.365,0.799,0.813v9.051C52.572,166.701,52.214,167.067,51.773,167.067z M51.752,157.203l-8.645,0.008l0.021,9.043
		l8.623-0.008L51.752,157.203L51.752,157.203z"/>
</g>
<g>
	<path fill="#02263E" d="M51.773,178.975h-8.666c-0.441,0-0.801-0.365-0.801-0.813v-9.047c0-0.449,0.359-0.814,0.801-0.814h8.666
		c0.44,0,0.799,0.365,0.799,0.814v9.047C52.572,178.609,52.214,178.975,51.773,178.975z M51.752,169.114l-8.645,0.008l0.021,9.039
		l8.623-0.009L51.752,169.114L51.752,169.114z"/>
</g>
<g>
	<path fill="#02263E" d="M51.773,36.073h-8.666c-0.441,0-0.801-0.364-0.801-0.813v-9.049c0-0.448,0.359-0.813,0.801-0.813h8.666
		c0.44,0,0.799,0.365,0.799,0.813v9.049C52.572,35.709,52.214,36.073,51.773,36.073z M51.752,26.211l-8.645,0.006l0.021,9.041
		l8.623-0.006L51.752,26.211L51.752,26.211z"/>
</g>
<g>
	<path fill="#02263E" d="M51.773,24.164h-8.666c-0.441,0-0.801-0.365-0.801-0.813V7.732c0-0.448,0.359-0.813,0.801-0.813h8.666
		c0.44,0,0.799,0.365,0.799,0.813v15.619C52.572,23.799,52.214,24.164,51.773,24.164z M51.752,7.731l-8.645,0.007l0.021,15.612
		l8.623-0.007L51.752,7.731L51.752,7.731z"/>
</g>
<g>
	<path fill="#02263E" d="M40.685,26.627h-8.664c-0.442,0-0.802-0.364-0.802-0.813V7.731c0-0.448,0.358-0.813,0.802-0.813h8.664
		c0.441,0,0.799,0.365,0.799,0.813v18.083C41.484,26.263,41.127,26.627,40.685,26.627z M40.664,7.731l-8.645,0.007l0.021,18.076
		l8.624-0.007V7.731z"/>
</g>
<g>
	<path fill="#02263E" d="M51.773,47.981h-8.666c-0.441,0-0.801-0.364-0.801-0.813v-9.049c0-0.449,0.359-0.813,0.801-0.813h8.666
		c0.44,0,0.799,0.364,0.799,0.813v9.049C52.572,47.617,52.214,47.981,51.773,47.981z M51.752,38.119l-8.645,0.008l0.021,9.041
		l8.623-0.008L51.752,38.119L51.752,38.119z"/>
</g>
<g>
	<path fill="#02263E" d="M51.773,59.89h-8.666c-0.441,0-0.801-0.366-0.801-0.814v-9.048c0-0.448,0.359-0.813,0.801-0.813h8.666
		c0.44,0,0.799,0.365,0.799,0.813v9.048C52.572,59.524,52.214,59.89,51.773,59.89z M51.752,50.027l-8.645,0.008l0.021,9.041
		l8.623-0.008L51.752,50.027L51.752,50.027z"/>
</g>
<g>
	<path fill="#02263E" d="M40.685,39.358h-8.664c-0.442,0-0.802-0.366-0.802-0.815v-9.047c0-0.449,0.358-0.813,0.802-0.813h8.664
		c0.441,0,0.799,0.364,0.799,0.813v9.047C41.484,38.992,41.127,39.358,40.685,39.358z M40.664,29.496l-8.645,0.008l0.021,9.041
		l8.624-0.006V29.496z"/>
</g>
<g>
	<path fill="#02263E" d="M40.685,51.266h-8.664c-0.442,0-0.802-0.365-0.802-0.813v-9.048c0-0.448,0.358-0.815,0.802-0.815h8.664
		c0.441,0,0.799,0.367,0.799,0.815v9.048C41.484,50.901,41.127,51.266,40.685,51.266z M40.664,41.404l-8.645,0.008l0.021,9.041
		l8.624-0.007V41.404z"/>
</g>
<g>
	<path fill="#02263E" d="M40.685,63.174h-8.664c-0.442,0-0.802-0.364-0.802-0.813v-9.049c0-0.448,0.358-0.814,0.802-0.814h8.664
		c0.441,0,0.799,0.366,0.799,0.814v9.049C41.484,62.81,41.127,63.174,40.685,63.174z M40.664,53.312l-8.645,0.008l0.021,9.041
		l8.624-0.007V53.312z"/>
</g>
<g>
	<path fill="#02263E" d="M51.773,71.799h-8.666c-0.441,0-0.801-0.366-0.801-0.815v-9.047c0-0.449,0.359-0.813,0.801-0.813h8.666
		c0.44,0,0.799,0.364,0.799,0.813v9.047C52.572,71.433,52.214,71.799,51.773,71.799z M51.752,61.936l-8.645,0.006l0.021,9.041
		l8.623-0.007L51.752,61.936L51.752,61.936z"/>
</g>
<g>
	<path fill="#02263E" d="M51.773,83.707h-8.666c-0.441,0-0.801-0.365-0.801-0.813v-9.048c0-0.449,0.359-0.815,0.801-0.815h8.666
		c0.44,0,0.799,0.366,0.799,0.815v9.048C52.572,83.342,52.214,83.707,51.773,83.707z M51.752,73.845l-8.645,0.007l0.021,9.041
		l8.623-0.007L51.752,73.845L51.752,73.845z"/>
</g>
<g>
	<path fill="#02263E" d="M62.859,76.726h-8.666c-0.44,0-0.8-0.366-0.8-0.814v-9.049c0-0.449,0.359-0.814,0.8-0.814h8.666
		c0.441,0,0.8,0.365,0.8,0.814v9.049C63.659,76.36,63.301,76.726,62.859,76.726z M62.84,66.863l-8.646,0.008l0.021,9.041
		l8.624-0.008v-9.041H62.84z"/>
</g>
<g>
	<path fill="#02263E" d="M62.859,88.635h-8.666c-0.44,0-0.8-0.365-0.8-0.814v-9.049c0-0.449,0.359-0.813,0.8-0.813h8.666
		c0.441,0,0.8,0.364,0.8,0.813v9.048C63.659,88.27,63.301,88.635,62.859,88.635z M62.84,78.772l-8.646,0.007l0.021,9.042
		l8.624-0.007v-9.042H62.84z"/>
</g>
<g>
	<path fill="#02263E" d="M62.859,100.543h-8.666c-0.44,0-0.8-0.365-0.8-0.813v-9.048c0-0.448,0.359-0.813,0.8-0.813h8.666
		c0.441,0,0.8,0.365,0.8,0.813v9.048C63.659,100.178,63.301,100.543,62.859,100.543z M62.84,90.68l-8.646,0.008l0.021,9.042
		l8.624-0.006V90.68H62.84z"/>
</g>
<g>
	<path fill="#02263E" d="M62.859,112.451h-8.666c-0.44,0-0.8-0.365-0.8-0.813v-9.048c0-0.448,0.359-0.813,0.8-0.813h8.666
		c0.441,0,0.8,0.365,0.8,0.813v9.048C63.659,112.086,63.301,112.451,62.859,112.451z M62.84,102.59l-8.646,0.009l0.021,9.039
		l8.624-0.007v-9.041H62.84z"/>
</g>
<g>
	<path fill="#02263E" d="M62.859,124.36h-8.666c-0.44,0-0.8-0.365-0.8-0.814v-9.047c0-0.449,0.359-0.814,0.8-0.814h8.666
		c0.441,0,0.8,0.365,0.8,0.814v9.047C63.659,123.996,63.301,124.36,62.859,124.36z M62.84,114.498l-8.646,0.008l0.021,9.041
		l8.624-0.008v-9.041H62.84z"/>
</g>
<g>
	<path fill="#02263E" d="M62.859,136.269h-8.666c-0.44,0-0.8-0.365-0.8-0.813v-9.05c0-0.446,0.359-0.813,0.8-0.813h8.666
		c0.441,0,0.8,0.365,0.8,0.813v9.05C63.659,135.903,63.301,136.269,62.859,136.269z M62.84,126.407l-8.646,0.008l0.021,9.041
		l8.624-0.008v-9.041H62.84z"/>
</g>
<g>
	<path fill="#02263E" d="M62.859,148.178h-8.666c-0.44,0-0.8-0.366-0.8-0.813v-9.049c0-0.447,0.359-0.813,0.8-0.813h8.666
		c0.441,0,0.8,0.363,0.8,0.813v9.049C63.659,147.812,63.301,148.178,62.859,148.178z M62.84,138.315l-8.646,0.008l0.021,9.041
		l8.624-0.008v-9.041H62.84z"/>
</g>
<g>
	<path fill="#02263E" d="M62.859,160.086h-8.666c-0.44,0-0.8-0.364-0.8-0.813v-9.049c0-0.447,0.359-0.813,0.8-0.813h8.666
		c0.441,0,0.8,0.362,0.8,0.813v9.049C63.659,159.722,63.301,160.086,62.859,160.086z M62.84,150.224l-8.646,0.008l0.021,9.041
		l8.624-0.008v-9.041H62.84z"/>
</g>
<g>
	<path fill="#02263E" d="M62.859,178.975h-8.666c-0.44,0-0.8-0.365-0.8-0.813v-16.028c0-0.448,0.359-0.813,0.8-0.813h8.666
		c0.441,0,0.8,0.365,0.8,0.813v16.027C63.659,178.609,63.301,178.975,62.859,178.975z M62.84,162.131l-8.646,0.009l0.021,16.021
		l8.624-0.008v-16.021H62.84z"/>
</g>
<g>
	<path fill="#02263E" d="M62.859,17.183h-8.666c-0.44,0-0.8-0.365-0.8-0.814V7.732c0-0.449,0.359-0.814,0.8-0.814h8.666
		c0.441,0,0.8,0.365,0.8,0.814v8.637C63.659,16.818,63.301,17.183,62.859,17.183z M62.84,7.731l-8.646,0.007l0.021,8.631
		l8.624-0.007V7.731H62.84z"/>
</g>
<g>
	<path fill="#02263E" d="M62.859,29.092h-8.666c-0.44,0-0.8-0.364-0.8-0.813v-9.048c0-0.449,0.359-0.814,0.8-0.814h8.666
		c0.441,0,0.8,0.367,0.8,0.814v9.048C63.659,28.727,63.301,29.092,62.859,29.092z M62.84,19.229l-8.646,0.007l0.021,9.041
		l8.624-0.007v-9.041H62.84z"/>
</g>
<g>
	<path fill="#02263E" d="M62.859,41h-8.666c-0.44,0-0.8-0.365-0.8-0.813v-9.048c0-0.449,0.359-0.814,0.8-0.814h8.666
		c0.441,0,0.8,0.365,0.8,0.814v9.048C63.659,40.635,63.301,41,62.859,41z M62.84,31.138l-8.646,0.007l0.021,9.041l8.624-0.007
		v-9.041H62.84z"/>
</g>
<g>
	<path fill="#02263E" d="M62.859,52.91h-8.666c-0.44,0-0.8-0.365-0.8-0.814v-9.049c0-0.449,0.359-0.814,0.8-0.814h8.666
		c0.441,0,0.8,0.365,0.8,0.814v9.048C63.659,52.543,63.301,52.91,62.859,52.91z M62.84,43.047l-8.646,0.007l0.021,9.042l8.624-0.008
		v-9.041H62.84z"/>
</g>
<g>
	<path fill="#02263E" d="M62.859,64.817h-8.666c-0.44,0-0.8-0.366-0.8-0.813v-9.049c0-0.449,0.359-0.813,0.8-0.813h8.666
		c0.441,0,0.8,0.364,0.8,0.813v9.049C63.659,64.453,63.301,64.817,62.859,64.817z M62.84,54.955l-8.646,0.008l0.021,9.041
		l8.624-0.008v-9.041H62.84z"/>
</g>
<g>
	<path fill="#02263E" d="M69.84,17.594h-4.147c-0.44,0-0.802-0.365-0.802-0.814V7.732c0-0.449,0.358-0.814,0.802-0.814h4.147
		c0.439,0,0.801,0.365,0.801,0.814v9.048C70.641,17.229,70.281,17.594,69.84,17.594z M69.818,7.731l-4.126,0.007l0.021,9.042
		l4.105-0.007V7.731z"/>
</g>
<g>
	<path fill="#02263E" d="M69.84,29.914h-4.147c-0.44,0-0.802-0.365-0.802-0.814v-9.458c0-0.449,0.358-0.813,0.802-0.813h4.147
		c0.439,0,0.801,0.364,0.801,0.813V29.1C70.641,29.549,70.281,29.914,69.84,29.914z M69.818,19.64l-4.126,0.007l0.021,9.452
		l4.105-0.008V19.64z"/>
</g>
<g>
	<path fill="#02263E" d="M69.84,42.232h-4.147c-0.44,0-0.802-0.365-0.802-0.814v-9.457c0-0.449,0.358-0.814,0.802-0.814h4.147
		c0.439,0,0.801,0.365,0.801,0.814v9.457C70.641,41.867,70.281,42.232,69.84,42.232z M69.818,31.959l-4.126,0.008l0.021,9.451
		l4.105-0.006V31.959z"/>
</g>
<g>
	<path fill="#02263E" d="M69.84,54.551h-4.147c-0.44,0-0.802-0.364-0.802-0.813V44.28c0-0.449,0.358-0.814,0.802-0.814h4.147
		c0.439,0,0.801,0.367,0.801,0.814v9.458C70.641,54.186,70.281,54.551,69.84,54.551z M69.818,44.278l-4.126,0.007l0.021,9.451
		l4.105-0.007V44.278z"/>
</g>
<g>
	<path fill="#02263E" d="M69.84,66.871h-4.147c-0.44,0-0.802-0.365-0.802-0.814v-9.459c0-0.449,0.358-0.814,0.802-0.814h4.147
		c0.439,0,0.801,0.365,0.801,0.814v9.459C70.641,66.506,70.281,66.871,69.84,66.871z M69.818,56.597l-4.126,0.007l0.021,9.452
		l4.105-0.008V56.597z"/>
</g>
<g>
	<path fill="#02263E" d="M69.84,79.189h-4.147c-0.44,0-0.802-0.365-0.802-0.814v-9.459c0-0.449,0.358-0.813,0.802-0.813h4.147
		c0.439,0,0.801,0.366,0.801,0.813v9.459C70.641,78.824,70.281,79.189,69.84,79.189z M69.818,68.918l-4.126,0.006l0.021,9.453
		l4.105-0.008V68.918z"/>
</g>
<g>
	<path fill="#02263E" d="M69.84,91.508h-4.147c-0.44,0-0.802-0.364-0.802-0.813v-9.46c0-0.448,0.358-0.813,0.802-0.813h4.147
		c0.439,0,0.801,0.365,0.801,0.813v9.459C70.641,91.144,70.281,91.508,69.84,91.508z M69.818,81.235l-4.126,0.009l0.021,9.45
		l4.105-0.007V81.235z"/>
</g>
<g>
	<path fill="#02263E" d="M69.84,103.828h-4.147c-0.44,0-0.802-0.365-0.802-0.813v-9.458c0-0.449,0.358-0.813,0.802-0.813h4.147
		c0.439,0,0.801,0.363,0.801,0.813v9.458C70.641,103.463,70.281,103.828,69.84,103.828z M69.818,93.555l-4.126,0.008l0.021,9.452
		l4.105-0.007V93.555z"/>
</g>
<g>
	<path fill="#02263E" d="M69.84,116.147h-4.147c-0.44,0-0.802-0.365-0.802-0.813v-9.459c0-0.449,0.358-0.813,0.802-0.813h4.147
		c0.439,0,0.801,0.364,0.801,0.813v9.459C70.641,115.782,70.281,116.147,69.84,116.147z M69.818,105.875l-4.126,0.008l0.021,9.451
		l4.105-0.008V105.875z"/>
</g>
<g>
	<path fill="#02263E" d="M69.84,128.467h-4.147c-0.44,0-0.802-0.364-0.802-0.813v-9.459c0-0.447,0.358-0.813,0.802-0.813h4.147
		c0.439,0,0.801,0.365,0.801,0.813v9.459C70.641,128.103,70.281,128.467,69.84,128.467z M69.818,118.194l-4.126,0.008l0.021,9.451
		l4.105-0.008V118.194z"/>
</g>
<g>
	<path fill="#02263E" d="M69.84,140.785h-4.147c-0.44,0-0.802-0.365-0.802-0.813v-9.461c0-0.447,0.358-0.813,0.802-0.813h4.147
		c0.439,0,0.801,0.365,0.801,0.813v9.461C70.641,140.42,70.281,140.785,69.84,140.785z M69.818,130.513l-4.126,0.008l0.021,9.451
		l4.105-0.007V130.513z"/>
</g>
<g>
	<path fill="#02263E" d="M69.84,153.104h-4.147c-0.44,0-0.802-0.365-0.802-0.813v-9.459c0-0.449,0.358-0.813,0.802-0.813h4.147
		c0.439,0,0.801,0.363,0.801,0.813v9.459C70.641,152.739,70.281,153.104,69.84,153.104z M69.818,142.832l-4.126,0.008l0.021,9.451
		l4.105-0.008V142.832z"/>
</g>
<g>
	<path fill="#02263E" d="M69.84,165.424h-4.147c-0.44,0-0.802-0.364-0.802-0.813v-9.459c0-0.447,0.358-0.813,0.802-0.813h4.147
		c0.439,0,0.801,0.363,0.801,0.813v9.459C70.641,165.06,70.281,165.424,69.84,165.424z M69.818,155.151l-4.126,0.008l0.021,9.451
		l4.105-0.008V155.151z"/>
</g>
<g>
	<path fill="#02263E" d="M69.84,178.975h-4.147c-0.44,0-0.802-0.365-0.802-0.813v-10.689c0-0.449,0.358-0.813,0.802-0.813h4.147
		c0.439,0,0.801,0.362,0.801,0.813v10.688C70.641,178.609,70.281,178.975,69.84,178.975z M69.818,167.469l-4.126,0.011l0.021,10.682
		l4.105-0.009V167.469z"/>
</g>
<g>
	<path fill="#02263E" d="M29.598,178.975h-8.667c-0.439,0-0.799-0.365-0.799-0.813v-24.24c0-0.449,0.357-0.814,0.799-0.814h8.667
		c0.44,0,0.802,0.365,0.802,0.814v24.24C30.4,178.609,30.039,178.975,29.598,178.975z M29.576,153.918l-8.646,0.008l0.022,24.234
		l8.623-0.008L29.576,153.918L29.576,153.918z"/>
</g>
<g>
	<path fill="#02263E" d="M29.598,56.604h-8.667c-0.439,0-0.799-0.358-0.799-0.801v-9.897c0-0.441,0.357-0.801,0.799-0.801h8.667
		c0.44,0,0.802,0.359,0.802,0.801v9.897C30.4,56.246,30.039,56.604,29.598,56.604z M29.576,45.908l-8.646,0.021l0.022,9.876
		l8.623-0.021L29.576,45.908L29.576,45.908z"/>
</g>
<g>
	<path fill="#02263E" d="M18.099,40.59H9.435c-0.441,0-0.801-0.359-0.801-0.801v-9.076c0-0.44,0.357-0.799,0.801-0.799h8.664
		c0.441,0,0.801,0.358,0.801,0.799v9.076C18.9,40.23,18.541,40.59,18.099,40.59z M18.079,30.713l-8.644,0.021l0.021,9.055
		l8.623-0.021V30.713z"/>
</g>
<g>
	<path fill="#02263E" d="M18.099,54.551H9.435c-0.441,0-0.801-0.358-0.801-0.799V42.623c0-0.441,0.357-0.802,0.801-0.802h8.664
		c0.441,0,0.801,0.36,0.801,0.802v11.129C18.9,54.192,18.541,54.551,18.099,54.551z M18.079,42.623l-8.644,0.021l0.021,11.108
		l8.623-0.021V42.623z"/>
</g>
<g>
	<path fill="#02263E" d="M18.099,142.019H9.435c-0.441,0-0.801-0.359-0.801-0.802v-9.075c0-0.441,0.357-0.802,0.801-0.802h8.664
		c0.441,0,0.801,0.359,0.801,0.802v9.075C18.9,141.658,18.541,142.019,18.099,142.019z M18.079,132.142l-8.644,0.021l0.021,9.055
		l8.623-0.021V132.142z"/>
</g>
<g>
	<path fill="#02263E" d="M18.099,167.067H9.435c-0.441,0-0.801-0.357-0.801-0.801v-9.076c0-0.441,0.357-0.799,0.801-0.799h8.664
		c0.441,0,0.801,0.356,0.801,0.799v9.076C18.9,166.709,18.541,167.067,18.099,167.067z M18.079,157.19l-8.644,0.021l0.021,9.056
		l8.623-0.021V157.19z"/>
</g>
<g>
	<path fill="#02263E" d="M13.172,155.158H9.435c-0.441,0-0.801-0.359-0.801-0.802v-9.076c0-0.44,0.357-0.801,0.801-0.801h3.737
		c0.441,0,0.801,0.359,0.801,0.801v9.076C13.972,154.799,13.613,155.158,13.172,155.158z M13.152,145.282l-3.717,0.021l0.021,9.056
		l3.695-0.021L13.152,145.282L13.152,145.282z"/>
</g>
<g>
	<path fill="#02263E" d="M13.172,178.975H9.435c-0.441,0-0.801-0.358-0.801-0.801v-9.075c0-0.439,0.357-0.8,0.801-0.8h3.737
		c0.441,0,0.801,0.356,0.801,0.8v9.075C13.972,178.615,13.613,178.975,13.172,178.975z M13.152,169.099l-3.717,0.021l0.021,9.057
		l3.695-0.021L13.152,169.099L13.152,169.099z"/>
</g>
<g>
	<path fill="#02263E" d="M18.099,130.11H9.435c-0.441,0-0.801-0.359-0.801-0.801v-11.129c0-0.443,0.357-0.802,0.801-0.802h8.664
		c0.441,0,0.801,0.356,0.801,0.802v11.129C18.9,129.75,18.541,130.11,18.099,130.11z M18.079,118.181l-8.644,0.021l0.021,11.108
		l8.623-0.021V118.181z"/>
</g>
<g>
	<path opacity="0.2" fill="#02263E" enable-background="new    " d="M7.462,184.723h72.389c-0.527,1.437-1.904,2.465-3.521,2.465
		H4.875c-2.07,0-3.864-2.451-3.864-4.521V7.707c0-2.068,0.481-4.166,2.754-4.484h0.464C4.082,3.625,3.771,4.194,3.771,4.647
		L3.707,180.969c0,2.07,1.684,3.756,3.755,3.756V184.723z"/>
</g>
<g opacity="0.2">
	<path fill="#02263E" d="M110.364,112.19c0.44,0,0.708-0.301,0.708-0.741v-2.82l-3.467-6.854c-0.041-0.09-0.236-0.188-0.236-0.289
		c0,0-0.105-29.006-0.105-53.55c0-8.999-0.041-17.397-0.034-23.547c0.005-3.075-0.009-8.886-0.007-9.349
		c0.01-0.842,0.058-1.398,0.76-1.398c0.261,0,1.091,0,1.091-0.002V7.863c0-1.507,0.935-2.732,2.291-3.185
		c-0.409-0.395-0.987-0.587-1.604-0.587h-0.166c-1.5,0-3.021,1.108-3.051,2.813l0.029,6.608c0,0.002-0.281,0.016-0.469,0.016
		c-1.031,0-1.031,0.969-1.031,0.969v86.056l3.461,7.474l0.539,0.002v3.422C109.072,112.341,109.922,112.19,110.364,112.19z"/>
</g>
<path fill="#02263E" d="M117.836,14.322c0-0.386-0.229-0.699-0.617-0.699c-0.299,0-0.146,0-1.146,0.001V7.862
	c0.021-2.313-1.63-3.771-3.515-3.771c0,0-3.485-0.125-3.485,3.771v5.776c0,0.001-0.836,0.002-1.097,0.002
	c-0.702,0-0.731,0.556-0.737,1.398c-0.006,0.463-0.021,1.144-0.024,2.017c-0.007,1.744-0.017,84.43-0.017,84.43
	c0,0.1,0.021,0.197,0.063,0.289l3.396,7.475c0.113,0.249,0.356,0.409,0.632,0.409l0.387,0.001v2.402
	c0,0.601,0.485,1.086,1.086,1.086c0.6,0,1.086-0.485,1.086-1.086v-2.396l0.43,0.001c0.289,0.001,0.531-0.176,0.639-0.445
	l2.999-7.576c0.032-0.082,0.042-0.17,0.042-0.256L117.836,14.322z M111.072,7.862c0-1.834,1.484-1.771,1.484-1.771
	c1,0,1.516,0.659,1.516,1.771v5.765c-1,0.001-0.885,0.003-1.65,0.004c-0.67,0.002-1.35,0.004-1.35,0.004V7.862z M112.328,15.031
	c1.516-0.003,3.063-0.007,4.114-0.008l0.125,85.317h-5.495V15.09c0-0.02-0.009-0.037-0.012-0.056
	C111.475,15.033,111.897,15.032,112.328,15.031z M108.613,15.039c0.412,0,0.92-0.002,1.471-0.003
	c-0.003,0.019-0.012,0.035-0.012,0.054v85.25h-1.477C108.594,90.732,108.594,17.046,108.613,15.039z M113.816,108.267l-2.067-0.006
	l-2.921-6.421h7.512L113.816,108.267z"/>
</svg>
