<?xml version="1.0" encoding="utf-8"?>
<!-- Generator: Adobe Illustrator 15.0.0, SVG Export Plug-In . SVG Version: 6.00 Build 0)  -->
<!DOCTYPE svg PUBLIC "-//W3C//DTD SVG 1.1//EN" "http://www.w3.org/Graphics/SVG/1.1/DTD/svg11.dtd">
<svg version="1.1" id="resume" xmlns="http://www.w3.org/2000/svg" xmlns:xlink="http://www.w3.org/1999/xlink" x="0px" y="0px"
	 width="138.167px" height="195px" viewBox="0 0 138.167 195" enable-background="new 0 0 138.167 195" xml:space="preserve">
<g opacity="0.2">
	<polygon fill="#02263E" points="4.886,189.668 4.886,27.501 1.886,27.501 1.886,193.502 127.885,193.502 127.885,189.752 	"/>
</g>
<path fill="#02263E" d="M95.481,19.559v-4.843c0-2.149-2.038-3.434-4.008-3.434h-6.172c-2.586-5.978-8.42-9.783-15.149-9.783
	c-6.729,0-12.563,3.805-15.149,9.783h-5.298c-2.177,0-3.883,1.508-3.883,3.434v4.843H4.657v170.676h132.74V19.559H95.481z
	 M91.473,32.35h-41.77c-0.315,0-0.873-0.592-0.873-1.023v-4.243h43.641v4.243C92.471,31.7,91.836,32.35,91.473,32.35z M49.704,35.36
	h41.77c2.021,0,4.008-1.998,4.008-4.033v-0.481h31.383v149.607H15.192V30.846h30.63v0.481C45.822,33.399,47.708,35.36,49.704,35.36z
	 M49.704,14.292h7.38l0.357-0.998c1.941-5.419,6.812-8.786,12.71-8.786c5.898,0,10.77,3.366,12.71,8.786l0.356,0.998h8.254
	c0.566,0,1,0.301,1,0.424v10.862H48.831V14.717C48.831,14.502,49.264,14.292,49.704,14.292z M134.387,187.227H7.667V22.569h38.154
	v6.772H13.687v152.618h114.682V29.341H95.481v-6.772h38.906V187.227z"/>
<g>
	<g>
		<path fill="#02263E" d="M36.722,108.597c-1.251,0-2.271-1.019-2.271-2.271s1.02-2.271,2.271-2.271c1.253,0,2.271,1.02,2.271,2.271
			S37.975,108.597,36.722,108.597z M36.722,104.983c-0.739,0-1.342,0.603-1.342,1.343c0,0.739,0.603,1.342,1.342,1.342
			c0.74,0,1.343-0.603,1.343-1.342C38.065,105.586,37.462,104.983,36.722,104.983z"/>
	</g>
	<g>
		<g>
			<path fill="#02263E" d="M37.261,59.256c-4.011,0-7.274-3.263-7.274-7.274c0-4.01,3.264-7.273,7.274-7.273
				s7.273,3.263,7.273,7.273C44.534,55.994,41.272,59.256,37.261,59.256z M37.261,45.858c-3.378,0-6.125,2.748-6.125,6.125
				c0,3.378,2.747,6.126,6.125,6.126c3.377,0,6.125-2.748,6.125-6.126C43.386,48.605,40.638,45.858,37.261,45.858z"/>
		</g>
	</g>
	<g>
		<path fill="#02263E" d="M37.428,56.094c-2.297,0-4.166-1.869-4.166-4.167c0-2.297,1.869-4.166,4.166-4.166
			c2.298,0,4.166,1.869,4.166,4.166C41.594,54.225,39.726,56.094,37.428,56.094z M37.428,49.154c-1.528,0-2.772,1.244-2.772,2.773
			c0,1.529,1.244,2.773,2.772,2.773c1.529,0,2.773-1.244,2.773-2.773C40.201,50.398,38.957,49.154,37.428,49.154z"/>
	</g>
	<path fill="#02263E" d="M102.645,50.896c-0.588-2.213-2.823-4.394-5.375-4.394h-2.385v-2h-8v2H45.99
		c-1.865-3-5.052-4.756-8.666-4.756c-1.672,0-3.254,0.308-4.659,1.018l-6.412-6.459l-4.376,4.353L28.2,46.97
		c-0.834,1.499-1.241,3.213-1.241,5.038c0,4.504,2.927,8.386,6.927,9.829v39.844c-2,0.987-2.466,2.672-2.466,4.585
		c0,1.912,0.466,3.598,2.466,4.585v2.067c0,2.551,2.18,4.787,4.394,5.375l1.606,3.43v-4.221h-0.105c0,0,0.105,0.375,0.105,0.367
		v-6.996c1-0.983,2.503-2.681,2.503-4.607c0-1.928-1.503-3.625-2.503-4.607V62.113c1-0.292,2.238-0.758,3.209-1.365l1.871,1.897
		l4.016-4.345l-2.063-2.117c0.474-1.112,0.75-2.682,0.797-3.682h58.36L102.645,50.896z M87.885,45.501h6v1h-6V45.501z
		 M23.501,40.634l2.752-2.752l5.383,5.382c-1.094,0.718-2.046,1.636-2.805,2.7L23.501,40.634z M38.886,117.238
		c-2-0.357-4-2.285-4-4.32v-1.4c1,0.162,1.214,0.251,1.786,0.251c0.732,0,1.214-0.146,2.214-0.407V117.238z M41.137,106.266
		c0,2.4-1.954,4.354-4.354,4.354c-2.401,0-4.354-1.953-4.354-4.354s1.953-4.355,4.354-4.355
		C39.183,101.91,41.137,103.865,41.137,106.266z M36.672,100.763c-0.572,0-0.786,0.088-1.786,0.251v-38.8
		c1,0.198,1.619,0.297,2.45,0.297c0.582,0,1.55-0.05,1.55-0.104v38.763C37.886,100.91,37.405,100.763,36.672,100.763z
		 M37.324,61.299c-5.101,0-9.251-4.15-9.251-9.252c0-5.102,4.15-9.251,9.251-9.251c5.103,0,9.252,4.15,9.252,9.251
		C46.576,57.148,42.427,61.299,37.324,61.299z M47.374,58.331l-2.465,2.66l-0.918-0.918c0.965-0.768,1.772-1.69,2.384-2.741
		L47.374,58.331z M47.694,51.501c-0.1-2-0.463-3-1.041-4h40.498h7.895h2.225c2.037,0,3.965,2,4.32,4H47.694z"/>
	<g opacity="0.2">
		<path fill="#02263E" d="M43.002,60.733c-0.936,0.617-2.116,1.089-3.116,1.379v0.534l1.922,1.789l2.372-2.523L43.002,60.733z"/>
	</g>
	<g opacity="0.2">
		<path fill="#02263E" d="M36.886,117.463c-2-1.01-3-2.693-3-4.545v-2.024c-2-0.979-2.536-2.687-2.536-4.627
			c0-1.942,0.536-3.647,2.536-4.628V61.836c-4-1.443-6.927-5.286-6.927-9.79c0-1.833,0.462-3.555,1.297-5.052l-6.37-6.361
			l1.973-1.977l-0.596-0.594l-4.377,4.369l6.36,6.357c-0.835,1.497-1.282,3.218-1.282,5.05c0,4.503,1.922,8.345,6.922,9.788v40.5
			c-2,0.9-1.962,2.322-1.962,3.93c0,1.605-0.038,3.029,1.962,3.93v2.723c0,2.551,2.18,4.789,4.395,5.375l1.605,3.43v-4.01H36.53
			c0.001,0,0.356,0.166,0.356,0.158V117.463z"/>
	</g>
	<g opacity="0.2">
		<path fill="#02263E" d="M99.577,52.501H47.715c-0.023,1-0.115,1-0.256,2h51.77c0.009,0-0.344-0.021-0.344-0.022v0.022h4.195
			l-3.429-1.712C99.631,52.708,99.604,52.501,99.577,52.501z"/>
	</g>
</g>
<g>
	<path fill="#02263E" d="M106.967,155.066v-53.458l-28.705,53.458H106.967z M104.702,152.801h-22.65l22.65-42.184V152.801z"/>
	<path fill="#02263E" d="M52.359,170.927h67.638V49.892L52.359,170.927z M117.731,58.591v1.911h-1.068L117.731,58.591z
		 M116.104,61.501h1.627v2h-2.744L116.104,61.501z M56.221,168.66l58.665-104.979v0.82h2.846v2h-2.846v1h2.846v2h-2.846v1h2.846v2
		h-6.846v1h6.846v2h-2.846v1h2.846v2h-2.846v1h2.846v2h-2.846v1h2.846v1h-6.846v1h6.846v2h-2.846v1h2.846v2h-2.846v1h2.846v2h-2.846
		v1h2.846v2h-6.846v1h6.846v2h-2.846v1h2.846v1h-2.846v1h2.846v2h-2.846v1h2.846v2h-6.846v1h6.846v2h-2.846v1h2.846v2h-2.846v1
		h2.846v2h-2.846v1h2.846v1h-6.846v1h6.846v2h-2.846v1h2.846v2h-2.846v1h2.846v2h-2.846v1h2.846v2h-6.846v1h6.846v1h-2.846v1h2.846
		v2h-2.846v1h2.846v2h-2.846v1h2.846v2h-6.846v1h6.846v2h-2.846v1h2.846v2h-2.846v1h2.846v2h-2.846v1h2.846v1h-6.846v1h6.846v2
		h-2.846v1h2.846v2h-2.846v1h2.846v2h-2.846v1h2.846v2h-6.846v1h6.846v4.158H56.221L56.221,168.66z"/>
</g>
<g opacity="0.2">
	<polygon fill="#02263E" points="53.786,170.084 111.885,170.502 111.885,173.502 47.776,173.502 112.885,57.445 112.885,65.043 	
		"/>
</g>
<g opacity="0.2">
	<polygon fill="#02263E" points="104.885,107.625 104.729,153.502 102.01,153.502 101.846,113.541 	"/>
</g>
</svg>
