<?xml version="1.0" encoding="utf-8"?>
<!-- Generator: Adobe Illustrator 15.0.0, SVG Export Plug-In . SVG Version: 6.00 Build 0)  -->
<!DOCTYPE svg PUBLIC "-//W3C//DTD SVG 1.1//EN" "http://www.w3.org/Graphics/SVG/1.1/DTD/svg11.dtd">
<svg version="1.1" id="contacts" xmlns="http://www.w3.org/2000/svg" xmlns:xlink="http://www.w3.org/1999/xlink" x="0px" y="0px"
	 width="128.75px" height="167px" viewBox="0 -78.369 128.75 167" enable-background="new 0 -78.369 128.75 167"
	 xml:space="preserve">
<g>
	<path fill="#02263E" d="M5.94,65.316"/>
</g>
<g>
	<path fill="#02263E" d="M6.21,65.356"/>
</g>
<g>
	<path fill="#02263E" d="M8.5,8.381v0.491v75.509h119V8.872V8.381H8.5z M124.5,81.381h-113V14.118L68,49.641l56.5-35.523V81.381z
		 M68.097,46.515l-56.1-35.134h112.199L68.097,46.515z"/>
</g>
<g>
	<path fill="#02263E" d="M39.5,74.381h-19v-17h19V74.381z M22.5,72.381h15v-13h-15V72.381z"/>
</g>
<g>
	<line fill="#02263E" x1="81.5" y1="59.381" x2="45.5" y2="59.381"/>
	<rect x="45.5" y="57.381" fill="#02263E" width="36" height="2"/>
</g>
<g>
	<line fill="#02263E" x1="67.5" y1="63.381" x2="45.5" y2="63.381"/>
	<rect x="45.5" y="61.381" fill="#02263E" width="22" height="2"/>
</g>
<g>
	<line fill="#02263E" x1="70.5" y1="67.381" x2="45.5" y2="67.381"/>
	<rect x="45.5" y="65.381" fill="#02263E" width="25" height="2"/>
</g>
<g opacity="0.2">
	<polygon fill="#02263E" points="8.5,84.381 8.5,15.381 5.5,15.381 5.5,87.381 121.5,87.381 121.5,84.381 	"/>
</g>
<g>
	<g opacity="0.2">
		<polygon fill="#02263E" points="21.505,-73.147 21.761,-51.595 21.761,-51.595 2.074,-40.259 4.357,-38.733 0.854,-40.001 
			17.1,-54.675 17.588,-75.344 		"/>
	</g>
	<path fill="#02263E" d="M20.917-26.614l0.035,24.532l92.57-40.22l-92.68-35.201l0.036,25.398L0.406-40.314L20.917-26.614z
		 M95.606-41.082L21.99-28.012L4.9-39.429L95.606-41.082z M22.678-26.347l84.052-14.922L22.708-4.763L22.678-26.347z
		 M106.527-43.075L22.64-52.383l-0.032-22.565L106.527-43.075z M93.071-42.796L5.474-41.201l16.476-9.487L93.071-42.796z"/>
	<g opacity="0.2">
		<polygon fill="#02263E" points="21.556,-6.034 17.608,-3.77 16.875,-25.134 2.186,-39.786 21.907,-26.885 		"/>
	</g>
</g>
</svg>
