<?xml version="1.0" standalone="no"?>
<!DOCTYPE svg PUBLIC "-//W3C//DTD SVG 20010904//EN"
 "http://www.w3.org/TR/2001/REC-SVG-20010904/DTD/svg10.dtd">
<svg version="1.0" xmlns="http://www.w3.org/2000/svg"
 width="996.000000pt" height="1020.000000pt" viewBox="0 0 996.000000 1020.000000"
 preserveAspectRatio="xMidYMid meet">

<g transform="translate(0.000000,1020.000000) scale(0.100000,-0.100000)"
fill="#000000" stroke="none">
<path d="M4580 10050 c-189 -27 -277 -54 -450 -140 -152 -76 -485 -305 -485
-333 0 -7 -8 -12 -18 -12 -34 0 -264 -195 -381 -324 -142 -157 -173 -194 -290
-356 -154 -212 -234 -351 -351 -605 -34 -74 -89 -193 -122 -265 -78 -169 -232
-517 -253 -575 -51 -135 -174 -429 -205 -491 -67 -134 -147 -235 -245 -312
-36 -28 -69 -54 -74 -58 -5 -4 8 -4 27 1 71 15 231 155 312 271 42 60 44 35
10 -111 -20 -83 -27 -151 -35 -324 -8 -158 -7 -222 1 -232 6 -7 8 -18 4 -24
-3 -5 -3 -10 2 -10 4 0 9 57 10 128 3 206 35 415 90 587 26 81 131 311 138
303 2 -2 -16 -94 -40 -203 -25 -110 -45 -211 -45 -225 0 -14 -9 -72 -20 -130
-11 -57 -22 -125 -25 -150 -2 -25 -11 -71 -20 -103 -8 -32 -17 -90 -20 -130
-5 -68 -4 -70 9 -42 8 17 20 62 26 100 7 39 25 124 40 190 46 191 70 323 63
341 -4 10 -2 15 3 11 6 -3 16 26 23 71 12 69 42 206 87 389 21 87 81 290 90
304 4 7 3 9 -3 6 -5 -3 -30 -48 -54 -99 -104 -217 -287 -562 -330 -623 -47
-66 -54 -55 -12 18 20 34 51 96 69 138 17 41 50 113 73 160 23 46 61 134 85
194 24 61 59 144 79 185 19 41 47 102 62 135 104 237 370 782 444 910 69 119
210 322 275 396 23 25 66 75 96 110 110 127 156 173 214 210 32 21 62 37 66
34 11 -7 61 61 52 70 -4 5 -2 6 3 2 6 -3 37 17 69 44 32 27 79 64 105 81 42
29 137 99 265 194 63 47 182 111 259 139 34 12 79 30 100 39 69 30 231 49 427
50 201 1 262 -9 363 -61 52 -26 153 -120 142 -132 -4 -3 -20 9 -36 27 -29 33
-179 113 -208 111 -9 0 2 -7 23 -15 58 -21 56 -25 -10 -19 l-59 5 67 -14 c37
-8 86 -26 110 -40 41 -24 130 -106 115 -106 -11 0 -57 30 -94 61 -33 29 -97
54 -111 45 -5 -3 -44 1 -87 9 -42 8 -109 14 -148 13 -48 -1 -57 -3 -27 -5 127
-9 364 -75 400 -110 13 -13 13 -14 -5 -9 -173 51 -311 69 -420 56 -146 -17
-296 -51 -320 -73 -11 -10 41 -2 125 18 97 24 152 29 286 28 134 -2 227 -13
278 -32 48 -19 23 -22 -40 -6 -43 11 -102 14 -220 12 -89 -1 -160 -5 -157 -9
2 -5 82 -8 176 -9 95 -1 183 -5 197 -10 17 -5 2 -7 -45 -4 -38 3 -95 1 -125
-4 -55 -8 -55 -9 32 -10 111 -1 211 -24 271 -63 26 -16 47 -32 47 -34 0 -10
-56 9 -66 23 -13 16 -107 33 -174 32 -33 0 -40 -3 -25 -9 17 -6 14 -8 -15 -12
l-35 -5 36 -1 c19 -1 40 3 47 10 9 9 12 9 12 -1 0 -10 9 -11 35 -7 28 6 35 4
35 -9 0 -8 -11 -20 -24 -25 -13 -5 -27 -13 -30 -19 -3 -5 -20 -12 -36 -16 -18
-4 -27 -11 -24 -17 5 -7 -3 -9 -21 -5 -28 5 -55 -9 -195 -98 -19 -13 -47 -25
-61 -29 -30 -6 -217 -130 -324 -213 -86 -67 -237 -204 -232 -210 9 -8 173 102
377 254 120 89 369 229 443 249 28 7 57 21 66 30 15 15 14 16 -6 10 -12 -4
-24 -2 -27 3 -4 6 11 15 32 20 20 6 46 17 57 25 23 18 105 21 105 5 0 -6 -10
-8 -22 -5 -13 3 -17 3 -10 0 6 -3 12 -13 13 -22 0 -11 2 -12 6 -4 7 17 40 15
47 -3 4 -11 14 -14 33 -9 34 7 26 0 -67 -56 -64 -39 -110 -77 -140 -115 -14
-18 3 -6 108 80 60 48 70 44 29 -12 -36 -51 -152 -263 -143 -263 3 0 13 15 22
33 30 61 196 303 216 316 20 12 20 11 14 -36 -4 -26 -9 -66 -12 -88 l-4 -40
15 38 c8 22 15 73 16 115 1 43 6 83 11 90 16 19 54 14 108 -13 28 -14 50 -21
50 -16 0 5 -17 15 -37 23 l-38 13 55 5 c53 5 51 6 -39 13 -51 5 -89 12 -85 17
5 5 38 16 74 25 36 9 70 21 76 26 27 22 167 32 292 20 107 -10 304 -52 366
-77 13 -5 17 -4 13 3 -4 6 3 13 15 16 27 7 23 12 -17 21 -22 5 -26 4 -15 -4
13 -8 12 -10 -3 -10 -10 0 -24 6 -32 13 -12 13 -170 53 -188 49 -5 -2 -57 3
-115 10 -86 10 -100 14 -72 19 31 6 29 7 -18 8 -29 0 -108 -10 -174 -24 -109
-22 -141 -25 -127 -10 11 11 239 78 304 90 39 7 58 13 44 14 -14 1 -86 -10
-160 -23 -74 -14 -154 -27 -179 -31 -25 -3 -58 -8 -75 -11 -29 -5 -29 -4 -11
11 11 8 29 15 40 15 12 0 73 13 136 29 139 35 311 69 405 80 58 7 62 9 25 9
-72 2 -370 -49 -502 -86 -38 -11 -68 -16 -68 -12 0 13 119 61 192 77 40 8 111
23 158 33 125 27 74 24 -76 -4 -153 -28 -226 -54 -287 -101 -57 -43 -70 -45
-31 -4 43 47 120 93 199 120 63 22 86 24 235 24 203 -1 264 -14 424 -89 186
-88 324 -188 536 -390 126 -121 182 -166 193 -159 6 4 7 1 2 -6 -4 -8 4 -24
21 -42 26 -28 52 -40 39 -19 -10 16 1 11 16 -7 10 -11 10 -14 2 -9 -28 16 -9
-11 65 -93 89 -97 251 -307 309 -398 21 -33 43 -62 48 -64 16 -5 79 -97 128
-189 45 -84 147 -319 147 -338 0 -5 6 -15 14 -21 10 -8 13 -23 9 -44 -3 -24
11 -71 61 -192 94 -226 90 -216 141 -370 25 -77 59 -180 77 -230 17 -49 43
-133 58 -185 15 -52 40 -126 54 -164 44 -115 120 -408 113 -435 -2 -9 -7 2
-11 24 -5 22 -16 65 -26 95 -10 30 -35 107 -56 170 -20 63 -53 149 -74 190
-49 99 -146 318 -154 350 -3 14 21 -29 55 -95 33 -66 57 -109 54 -95 -10 34
-148 330 -153 326 -2 -3 6 -39 17 -83 27 -100 67 -305 80 -408 6 -44 17 -130
25 -192 9 -61 20 -180 26 -265 5 -84 15 -197 21 -250 8 -70 8 -139 0 -252 -11
-154 -42 -350 -56 -364 -4 -4 -5 9 -2 28 24 145 30 306 18 476 -7 99 -17 242
-22 319 -4 77 -13 160 -18 185 -6 25 -10 72 -11 105 -1 80 -15 53 -24 -45 -21
-234 -105 -600 -138 -600 -14 0 -1 133 25 260 20 94 22 135 22 405 -1 234 -5
321 -18 395 -9 52 -21 163 -27 245 -6 83 -17 191 -25 240 -8 50 -19 128 -26
175 -27 205 -89 395 -200 609 -60 116 -55 90 17 -84 81 -198 103 -258 119
-323 18 -69 51 -296 66 -452 5 -58 19 -189 30 -292 18 -172 19 -193 5 -270 -8
-46 -20 -130 -26 -188 -27 -249 -115 -649 -185 -840 -75 -206 -153 -387 -154
-356 -1 12 -13 0 -37 -35 -20 -30 -40 -58 -44 -63 -13 -14 -3 67 14 113 9 24
13 54 10 66 -7 28 4 54 15 36 7 -11 77 205 86 269 l5 35 -14 -36 c-25 -64 -58
-123 -117 -209 -59 -87 -176 -217 -185 -207 -3 3 -22 -13 -42 -36 -187 -213
-269 -282 -417 -353 -60 -29 -150 -65 -200 -79 -49 -14 -98 -28 -107 -31 -38
-12 -15 13 40 43 97 54 138 89 298 254 91 95 113 124 65 88 -18 -13 -40 -28
-50 -34 -9 -5 -35 -27 -58 -47 -46 -41 -70 -50 -54 -20 5 9 42 53 83 97 172
189 246 281 301 376 43 73 31 79 -15 6 -37 -56 -118 -151 -249 -288 -19 -20
-88 -86 -154 -146 -118 -108 -121 -110 -188 -123 -80 -15 -99 -7 -30 12 26 8
48 20 48 27 0 7 9 19 19 27 11 8 16 14 12 14 -4 0 -22 -11 -39 -24 -53 -39
-133 -75 -204 -92 -38 -9 -70 -18 -73 -21 -12 -12 272 24 337 43 22 6 22 5 12
-25 -15 -42 -183 -181 -219 -181 -6 0 -10 -6 -7 -12 5 -15 81 -13 145 3 23 7
45 10 47 7 6 -6 -30 -110 -55 -158 -54 -106 -198 -268 -349 -393 -41 -34 -95
-80 -120 -103 -25 -22 -84 -69 -130 -105 -46 -35 -109 -84 -140 -108 -204
-158 -455 -323 -530 -349 -102 -36 -193 1 -454 185 -343 241 -613 474 -778
672 -75 90 -105 135 -190 285 l-33 59 60 -6 c32 -3 76 -9 98 -13 36 -7 37 -6
26 13 -7 11 -32 32 -56 47 -96 60 -183 160 -160 183 3 4 30 -1 59 -10 79 -24
153 -35 278 -41 l114 -6 -63 14 c-154 36 -303 138 -419 288 l-44 57 68 -26
c61 -24 84 -27 229 -31 152 -4 274 8 274 27 0 4 -27 13 -60 19 -33 7 -98 32
-145 56 -64 32 -88 40 -95 31 -14 -16 -1 -25 88 -60 40 -16 76 -33 79 -38 9
-15 -235 0 -282 17 -22 8 -80 34 -130 57 -49 24 -96 43 -102 42 -7 0 -13 5
-13 11 0 18 -57 69 -64 58 -3 -5 6 -17 19 -26 14 -9 23 -21 21 -25 -3 -4 13
-32 35 -62 22 -30 54 -79 72 -109 59 -104 171 -198 281 -234 10 -4 16 -9 13
-12 -9 -9 -138 34 -200 67 -31 17 -61 28 -66 25 -5 -3 -14 1 -20 8 -7 8 -51
34 -99 57 -109 53 -219 159 -272 261 -19 36 -37 65 -41 62 -4 -2 -10 3 -13 12
-3 8 -2 12 4 9 6 -3 10 -4 10 -1 0 20 -95 216 -132 273 -54 81 -75 121 -99
188 -10 28 -18 43 -19 35 0 -15 26 -96 65 -200 26 -71 173 -348 229 -430 47
-70 80 -114 61 -81 -5 9 -4 12 3 7 7 -4 12 -13 12 -21 0 -7 7 -15 15 -19 8 -3
14 -9 13 -13 -2 -5 69 -82 157 -172 126 -129 177 -173 239 -209 43 -25 73 -48
67 -50 -14 -5 -162 44 -216 71 -89 44 -235 149 -311 225 -188 185 -365 430
-471 647 -31 66 -59 112 -61 103 -8 -40 107 -397 164 -506 7 -14 10 -30 8 -37
-8 -19 55 -137 68 -129 6 4 9 1 6 -7 -11 -30 78 -177 183 -304 32 -38 67 -81
78 -95 11 -14 -12 40 -52 120 -40 80 -83 179 -96 220 -14 41 -33 93 -43 114
-10 22 -16 41 -14 43 8 9 81 -103 110 -170 17 -40 57 -119 88 -177 31 -58 73
-145 93 -195 40 -98 122 -245 136 -245 5 0 9 -5 9 -10 0 -24 -40 13 -111 102
-41 51 -102 124 -137 163 -80 89 -155 195 -222 315 -29 52 -62 103 -73 113
-10 9 -16 17 -13 17 7 0 -25 64 -45 90 -9 12 -10 12 -5 -5 5 -17 3 -16 -15 5
-39 46 -69 107 -73 146 -1 22 -12 57 -23 79 -66 129 -159 515 -208 865 -43
301 -23 767 45 1076 27 121 99 322 185 514 104 233 161 335 328 585 93 139
111 163 269 346 117 136 153 185 80 112 -21 -21 -57 -55 -81 -75 -24 -20 -40
-41 -36 -47 3 -6 0 -11 -7 -11 -22 0 -81 -66 -73 -81 5 -7 4 -10 -3 -5 -6 4
-34 -22 -64 -61 -52 -66 -228 -318 -228 -327 0 -2 -21 -40 -47 -83 -87 -147
-251 -522 -238 -543 4 -6 2 -10 -3 -10 -7 0 -36 -71 -37 -90 0 -3 -3 -9 -6
-15 -30 -49 -108 -384 -154 -660 -22 -127 -31 -455 -16 -550 7 -38 12 -79 12
-89 0 -10 7 -32 15 -49 9 -16 11 -26 4 -22 -7 4 -9 -1 -6 -17 3 -12 8 -41 11
-63 4 -22 10 -44 13 -50 4 -5 7 -30 8 -55 2 -66 107 -425 163 -559 17 -41 31
-79 31 -86 0 -7 7 -15 15 -19 8 -3 21 -18 28 -33 6 -15 15 -32 20 -38 37 -48
247 -377 284 -444 55 -103 127 -214 150 -232 15 -13 15 -12 4 9 -7 13 -11 25
-9 28 5 4 69 -80 87 -114 22 -41 5 -33 -28 13 -18 25 -34 45 -37 45 -6 0 -6
-1 78 -131 38 -59 89 -153 114 -209 46 -101 53 -136 18 -83 -10 15 -42 56 -71
91 -54 64 -67 85 -35 61 15 -13 16 -12 3 4 -7 9 -20 17 -27 17 -8 0 -15 6 -15
13 -1 6 -2 17 -3 22 0 6 -19 37 -42 70 -53 78 -154 254 -187 328 -27 60 -41
76 -27 30 37 -118 64 -266 64 -344 -1 -89 -17 -148 -28 -99 -3 14 -10 50 -16
80 -14 63 -46 158 -86 251 -15 35 -44 111 -64 169 -111 314 -139 384 -139 352
-1 -34 45 -220 58 -237 13 -16 41 -108 36 -113 -7 -7 -157 308 -217 453 -27
66 -72 187 -101 268 -28 82 -53 145 -54 140 -3 -9 22 -128 53 -245 12 -48 22
-68 33 -68 13 0 13 -2 3 -9 -11 -7 -9 -24 12 -90 28 -88 47 -238 26 -211 -20
27 -2 -56 49 -235 25 -86 26 -108 5 -80 -25 34 -73 217 -104 405 -6 36 -13 72
-16 80 -3 8 -7 35 -9 60 -2 25 -15 88 -29 140 -31 120 -52 238 -66 365 -6 55
-15 125 -20 155 -12 65 -40 475 -41 604 l-1 91 -18 -105 c-26 -148 -80 -394
-170 -765 -16 -66 -31 -147 -34 -180 -3 -33 -14 -94 -25 -135 -11 -41 -20 -84
-20 -95 l0 -20 10 20 c7 16 8 12 4 -14 -3 -18 -5 -45 -5 -60 -1 -20 -3 -22 -9
-11 -12 20 -31 191 -31 282 0 51 -3 68 -10 58 -5 -8 -10 -31 -10 -52 0 -20 -4
-38 -10 -40 -18 -6 11 -145 60 -289 48 -139 49 -142 42 -79 -4 36 -6 83 -6
105 5 178 8 215 19 241 8 16 14 22 15 14 0 -8 18 53 39 135 22 83 48 175 60
205 11 30 25 75 31 99 6 23 13 41 16 39 2 -3 11 -54 19 -114 9 -59 22 -137 30
-172 8 -35 15 -74 15 -88 0 -17 4 -23 12 -18 6 4 9 3 6 -2 -7 -10 9 -122 20
-138 3 -6 7 -24 8 -41 4 -54 25 -159 50 -245 13 -47 31 -110 40 -140 8 -30 28
-89 44 -130 15 -41 31 -86 35 -100 29 -96 202 -400 227 -400 10 0 -5 44 -51
152 -23 54 -51 135 -63 180 -12 46 -26 86 -30 89 -4 3 -12 41 -18 85 -5 43
-15 103 -21 132 -14 69 -6 76 17 17 9 -26 30 -64 46 -86 15 -21 28 -43 28 -48
0 -14 17 -52 40 -86 11 -16 27 -43 36 -60 9 -16 38 -61 63 -100 145 -217 185
-404 117 -535 -15 -29 -25 -55 -22 -58 3 -3 6 -1 6 4 0 6 7 19 16 30 8 10 13
13 9 7 -11 -23 10 -14 37 14 40 43 88 148 96 210 8 64 24 77 41 35 7 -16 34
-55 61 -86 62 -74 254 -343 288 -403 14 -26 36 -74 48 -108 18 -48 24 -56 30
-41 11 27 -13 203 -41 309 -27 100 -18 109 30 29 45 -77 75 -108 87 -91 5 8
11 10 14 4 21 -49 42 -80 55 -83 19 -3 30 28 18 51 -6 9 -3 29 7 53 l16 39 65
-135 c35 -74 85 -182 109 -239 55 -127 73 -162 74 -140 0 20 -36 197 -45 222
-15 38 13 14 45 -40 43 -71 158 -227 171 -231 6 -2 -24 64 -66 147 -43 83 -81
151 -85 151 -5 0 -11 14 -15 30 -4 17 -22 56 -41 87 -18 31 -37 65 -40 76 -5
15 -8 17 -15 6 -6 -10 -16 3 -34 45 -14 32 -24 60 -22 62 4 4 32 -50 41 -79 3
-10 10 -16 16 -12 11 7 33 -27 142 -217 92 -159 130 -246 134 -305 3 -48 13
-42 -166 -99 -139 -44 -240 -84 -240 -96 0 -5 12 -1 27 8 l28 16 -25 -20 c-13
-11 -28 -18 -32 -16 -5 3 -12 -5 -17 -18 -12 -34 -51 -270 -51 -314 0 -61 -9
-80 -46 -97 -36 -18 -84 -84 -129 -179 -29 -61 -56 -89 -240 -248 -71 -61
-129 -115 -128 -120 1 -4 -5 -14 -15 -22 -15 -12 -16 -11 -3 5 30 39 -9 12
-100 -67 -121 -106 -126 -108 -197 -101 l-57 7 -105 -76 c-104 -74 -205 -129
-455 -246 -71 -33 -139 -69 -150 -79 -11 -11 -114 -67 -230 -126 -199 -101
-341 -191 -372 -235 -13 -18 -11 -23 13 -45 14 -13 30 -22 35 -19 5 3 9 1 9
-5 0 -6 24 -34 52 -64 29 -29 55 -58 58 -63 2 -5 61 -63 130 -129 400 -380
947 -737 1516 -988 175 -77 227 -96 509 -186 257 -82 579 -144 885 -171 178
-15 604 -12 755 5 408 48 826 156 1169 302 71 30 137 59 145 63 9 5 77 38 151
73 157 74 424 226 584 333 200 133 411 290 408 303 -1 7 2 10 8 6 9 -6 241
180 350 280 25 23 77 70 115 105 186 169 216 201 210 220 -4 11 -10 20 -14 20
-4 0 -35 17 -68 39 -33 21 -97 55 -144 76 -46 21 -122 56 -169 78 -47 21 -107
48 -133 58 -27 11 -65 32 -85 49 -49 39 -129 83 -292 160 -153 72 -283 149
-363 215 -51 41 -59 44 -133 51 -71 5 -85 11 -139 47 -59 40 -210 165 -395
328 -80 70 -101 96 -130 155 -45 91 -77 133 -139 178 l-49 36 -7 73 c-18 196
-34 306 -46 325 -22 35 -120 76 -313 133 -55 16 -103 32 -107 36 -5 5 34 71
86 147 52 77 95 145 95 151 0 7 9 20 20 30 24 22 24 20 4 -36 -8 -24 -22 -77
-30 -117 -27 -143 -15 -148 51 -19 81 159 176 331 265 480 22 37 48 52 35 20
-13 -34 -43 -218 -50 -312 -7 -101 -3 -107 38 -46 119 177 239 328 357 450
161 165 237 257 313 380 30 50 74 114 96 144 23 30 41 63 41 73 0 10 5 18 10
18 6 0 10 6 8 13 -1 6 12 34 30 61 17 27 29 52 27 56 -3 4 2 13 10 20 17 14
21 35 5 25 -14 -9 -12 1 6 37 23 43 115 172 127 177 48 18 130 154 206 341 53
131 116 366 137 515 12 92 34 390 34 478 0 56 5 109 10 117 16 25 12 -475 -5
-630 -9 -74 -20 -182 -25 -240 -5 -58 -14 -132 -20 -165 -5 -33 -10 -77 -10
-98 0 -38 -27 -170 -57 -282 -25 -90 -94 -245 -109 -245 -10 0 -9 10 6 44 27
64 87 303 77 312 -2 2 -9 -13 -16 -34 -7 -20 -43 -111 -79 -202 -68 -171 -119
-271 -154 -305 -23 -23 -25 -26 29 86 23 47 65 160 94 250 28 90 54 171 57
179 4 11 1 11 -15 -3 -11 -10 -23 -34 -26 -53 -3 -19 -15 -53 -26 -77 -44 -92
-122 -289 -166 -417 -79 -232 -185 -417 -353 -613 -46 -53 -85 -97 -87 -97 -3
0 7 17 21 37 56 83 174 335 214 458 96 296 102 310 225 500 95 146 93 144 70
125 -35 -28 -155 -185 -145 -188 6 -2 0 -23 -15 -48 -15 -25 -54 -99 -87 -166
-33 -66 -91 -172 -128 -234 -37 -63 -64 -112 -60 -109 21 13 19 -20 -4 -85
-46 -127 -92 -206 -194 -334 -46 -57 -51 -67 -31 -61 170 53 356 257 538 590
56 101 101 169 139 210 31 34 73 81 93 105 42 51 60 48 34 -5 -9 -20 -32 -84
-51 -142 -19 -58 -55 -150 -81 -204 -25 -55 -44 -101 -41 -104 8 -8 125 145
157 205 16 30 46 96 66 145 61 149 221 716 270 955 38 188 36 182 46 140 39
-171 32 -649 -12 -765 -31 -83 -17 -77 25 11 95 194 147 563 126 889 -12 174
-34 368 -50 440 -5 22 -9 49 -9 60 0 18 2 18 23 -6 25 -29 90 -217 156 -451
43 -151 65 -326 55 -428 -8 -83 11 -30 26 71 22 155 -4 421 -66 671 -54 214
-287 933 -387 1193 -202 526 -204 530 -401 825 -235 352 -682 804 -992 1005
-250 162 -363 205 -592 227 -138 13 -304 2 -445 -31 -159 -37 -161 -37 -319 9
-140 40 -149 42 -314 45 -93 2 -199 0 -235 -5z m390 -550 c0 -5 -4 -10 -10
-10 -5 0 -10 5 -10 10 0 6 5 10 10 10 6 0 10 -4 10 -10z m-54 -25 c-26 -19
-42 -19 -26 0 7 8 20 15 29 15 13 -1 13 -3 -3 -15z m-1621 -225 c3 -5 1 -10
-4 -10 -6 0 -11 5 -11 10 0 6 2 10 4 10 3 0 8 -4 11 -10z m-34 -33 c-10 -9
-11 -8 -5 6 3 10 9 15 12 12 3 -3 0 -11 -7 -18z m-77 -95 c3 -5 -1 -9 -9 -9
-8 0 -12 4 -9 9 3 4 7 8 9 8 2 0 6 -4 9 -8z m4345 -457 c0 -5 -6 1 -14 15 -8
14 -14 30 -14 35 0 6 6 -1 14 -15 8 -14 14 -29 14 -35z m-5534 -1864 c-3 -6
-11 -11 -17 -11 -6 0 -6 6 2 15 14 17 26 13 15 -4z m5900 -613 c-12 -101 -28
-194 -36 -212 -13 -30 -3 160 11 207 13 46 30 49 25 5z m-4725 -347 c0 -3 -6
3 -13 14 -16 24 -77 162 -77 173 1 8 90 -177 90 -187z m4165 -91 c-10 -11 -20
-18 -23 -15 -7 6 18 35 31 35 5 0 2 -9 -8 -20z m-3268 -166 c-3 -3 -12 -4 -19
-1 -8 3 -5 6 6 6 11 1 17 -2 13 -5z m3200 -42 c-9 -73 -56 -229 -89 -295 -16
-33 -24 -56 -19 -52 32 19 -3 -22 -126 -147 -76 -76 -155 -148 -175 -160 -21
-12 -40 -30 -44 -40 -3 -10 -10 -18 -15 -18 -14 0 15 51 44 78 14 13 51 80 82
149 32 70 77 160 100 202 24 42 57 110 74 152 18 42 38 85 46 95 14 19 14 19
15 -1 0 -32 -103 -311 -150 -405 -49 -99 -45 -97 44 29 94 133 157 274 191
434 10 48 28 32 22 -21z m-4257 -62 c0 -5 -2 -10 -4 -10 -3 0 -8 5 -11 10 -3
6 -1 10 4 10 6 0 11 -4 11 -10z m4666 -172 c-15 -65 -55 -159 -56 -132 0 13
37 154 50 189 19 51 22 17 6 -57z m-4330 -158 c31 -63 72 -136 90 -163 19 -27
34 -56 34 -64 0 -8 7 -28 16 -44 8 -17 14 -38 12 -47 -3 -16 -155 257 -169
303 -3 11 -18 45 -33 75 -15 30 -32 66 -37 80 l-9 25 20 -25 c11 -14 45 -77
76 -140z m624 150 c13 -8 13 -10 -2 -10 -9 0 -20 5 -23 10 -8 13 5 13 25 0z
m2997 -57 c-33 -81 -169 -352 -217 -432 -27 -46 -50 -88 -50 -93 0 -5 -13 -28
-29 -51 -31 -46 -54 -87 -48 -87 2 0 30 39 63 87 68 100 89 123 164 183 30 24
99 89 153 144 54 56 93 91 87 78 -13 -26 -200 -222 -212 -222 -11 0 -62 -57
-108 -121 -19 -26 -57 -77 -85 -113 -27 -36 -63 -83 -78 -106 -16 -23 -33 -37
-39 -33 -8 4 -9 0 -5 -11 4 -9 3 -15 -2 -11 -5 3 -20 -15 -32 -40 -24 -48 -45
-62 -29 -19 6 15 43 88 83 163 39 75 87 168 107 206 19 39 42 78 50 87 8 9 25
39 38 65 32 65 46 93 102 198 26 50 57 110 69 133 27 53 40 49 18 -5z m-4257
-111 c0 -15 -2 -15 -10 -2 -13 20 -13 33 0 25 6 -3 10 -14 10 -23z m3640 -12
c0 -5 -7 -10 -16 -10 -8 0 -12 5 -9 10 3 6 10 10 16 10 5 0 9 -4 9 -10z m1241
-47 c-24 -46 -50 -82 -51 -68 0 15 61 118 66 112 3 -3 -4 -22 -15 -44z m-858
-35 c-22 -35 -51 -81 -64 -103 -29 -50 -126 -182 -139 -190 -18 -11 -11 5 29
63 45 67 76 124 73 135 -3 11 36 85 50 93 7 4 0 -13 -15 -39 -42 -71 -25 -56
38 34 66 94 86 99 28 7z m-3158 -132 c33 -53 71 -109 85 -125 37 -43 110 -147
110 -157 0 -5 -14 7 -31 26 l-31 35 23 -40 c12 -22 31 -52 41 -67 23 -34 23
-40 -4 -36 -23 3 -132 144 -142 183 -4 18 -3 17 15 -4 26 -31 24 -15 -3 29
-12 19 -31 53 -43 75 -23 43 -68 117 -122 203 -19 29 -31 57 -27 63 3 6 20
-12 37 -40 18 -27 59 -93 92 -145z m3226 107 c-86 -127 -236 -382 -228 -389 2
-2 14 14 26 37 13 22 25 38 28 35 8 -7 -51 -109 -62 -108 -5 0 -15 -9 -22 -21
-16 -28 -16 -40 -1 -31 7 4 8 3 4 -5 -4 -6 -11 -9 -16 -6 -5 3 -12 -9 -15 -27
-4 -18 -12 -39 -19 -47 -6 -7 -11 -19 -11 -25 -2 -31 -19 -87 -28 -93 -9 -6
-7 17 8 92 28 136 224 488 343 618 39 41 37 33 -7 -30z m-3202 -53 c39 -47 98
-128 131 -180 33 -52 79 -122 103 -155 23 -33 64 -110 90 -171 48 -113 54
-129 38 -120 -9 6 -15 17 -88 176 -22 47 -55 105 -74 130 -19 25 -67 97 -106
160 -40 63 -84 129 -98 145 -14 17 -3 -8 25 -53 28 -46 49 -86 47 -88 -4 -5
-86 119 -132 200 -15 27 -23 47 -17 45 6 -2 42 -42 81 -89z m2882 -207 c-21
-44 -47 -86 -57 -94 -13 -10 -9 1 11 36 15 28 40 71 54 97 41 75 36 48 -8 -39z
m-2823 -120 c64 -128 100 -228 87 -241 -3 -3 -5 2 -5 10 0 8 -12 33 -27 54
-14 21 -37 65 -49 96 -13 31 -39 89 -59 129 -37 76 -41 89 -26 89 5 0 41 -62
79 -137z m2988 89 c-18 -16 -18 -16 -6 6 6 13 14 21 18 18 3 -4 -2 -14 -12
-24z m498 -56 c-3 -9 -10 -16 -15 -16 -5 0 -4 9 3 20 14 22 21 20 12 -4z
m-865 -205 c-85 -160 -109 -197 -109 -172 0 6 4 11 8 11 5 0 15 23 24 51 20
61 162 312 166 294 2 -8 -38 -90 -89 -184z m-2850 97 c39 -63 40 -70 7 -33
-20 22 -36 43 -36 48 0 15 16 6 29 -15z m81 -38 c29 -56 24 -85 -5 -30 -23 43
-31 70 -20 70 2 0 14 -18 25 -40z m336 -2 c9 -18 23 -40 31 -49 7 -9 18 -31
23 -50 7 -28 7 -31 -3 -15 -97 153 -94 146 -77 146 5 0 17 -15 26 -32z m274
-214 c17 -31 29 -58 27 -60 -2 -2 -18 23 -36 56 -41 76 -34 79 9 4z m1970 -42
c0 -5 -14 -21 -31 -38 -17 -16 -38 -42 -47 -59 -9 -18 -17 -25 -20 -17 -5 17
18 73 28 67 5 -3 19 8 32 24 23 30 38 39 38 23z m-115 -114 c-20 -60 -54 -132
-60 -126 -7 6 13 72 41 134 31 69 42 65 19 -8z m-1578 -35 c127 -143 299 -308
374 -358 41 -27 79 -55 86 -61 7 -7 47 -26 90 -44 65 -27 92 -33 158 -34 74
-1 86 2 152 36 40 20 98 56 130 79 80 58 282 258 354 351 62 79 83 96 96 75 4
-6 6 -99 5 -207 -2 -207 11 -398 32 -477 7 -27 15 -54 17 -62 9 -35 -339 -236
-479 -277 -80 -24 -84 -33 -148 -339 -14 -66 -34 -175 -44 -243 -16 -115 -22
-132 -81 -252 -35 -71 -66 -129 -69 -129 -3 -1 -20 28 -37 63 -18 35 -46 80
-63 100 -35 39 -60 109 -60 164 0 105 -68 460 -104 537 -24 54 -27 56 -118 97
-142 65 -309 152 -373 194 -57 38 -57 38 -51 79 37 251 38 264 46 753 0 17 4
32 9 32 5 0 40 -35 78 -77z m-137 -113 c0 -5 -2 -10 -4 -10 -3 0 -8 5 -11 10
-3 6 -1 10 4 10 6 0 11 -4 11 -10z m-30 -198 c0 -12 -16 -23 -52 -36 -85 -29
-218 -94 -218 -106 0 -38 74 -144 174 -248 94 -98 280 -220 454 -298 42 -19
85 -39 94 -44 10 -6 24 -10 31 -10 18 0 54 -80 72 -163 39 -172 65 -336 65
-411 0 -88 2 -94 89 -216 47 -68 92 -161 111 -229 l12 -44 17 29 c9 16 39 79
65 139 27 61 53 115 58 122 5 6 8 20 6 30 -2 12 2 17 14 15 27 -4 45 37 52
123 14 168 77 500 109 577 11 27 24 36 68 52 75 26 283 134 384 200 101 66
148 108 267 239 70 77 89 103 86 123 -3 26 -5 28 -198 107 -75 31 -93 44 -83
60 6 10 47 2 130 -24 35 -11 68 -17 74 -13 8 4 9 3 5 -4 -4 -7 7 -13 29 -18
44 -8 145 -61 146 -77 1 -7 0 -23 0 -37 -1 -14 5 -56 14 -93 13 -57 14 -72 3
-85 -10 -12 -10 -14 0 -8 13 8 14 -7 17 -244 1 -74 -2 -146 -6 -160 -4 -14
-19 -65 -33 -115 -15 -49 -32 -100 -38 -112 -5 -11 -8 -27 -6 -34 7 -22 121
306 143 414 7 35 26 34 65 -4 40 -40 69 -97 91 -179 9 -36 30 -103 47 -150 16
-47 42 -136 58 -197 30 -123 43 -142 25 -38 -23 131 -43 205 -54 198 -6 -4 -8
2 -5 15 4 14 2 20 -5 15 -6 -4 -8 2 -5 15 4 14 2 20 -4 16 -6 -4 -8 -1 -6 7 3
8 1 22 -4 32 -13 25 3 21 37 -11 17 -15 37 -28 45 -30 8 -2 22 -11 31 -22 9
-11 19 -17 22 -14 5 5 104 -71 232 -181 107 -91 180 -139 260 -172 64 -26 66
-28 61 -56 -20 -98 -291 -685 -458 -992 -140 -256 -184 -335 -233 -420 -29
-49 -85 -148 -125 -220 -41 -71 -97 -155 -124 -186 -28 -30 -80 -94 -115 -141
-71 -96 -46 -84 -276 -138 -71 -17 -149 -38 -173 -46 -23 -8 -45 -14 -48 -14
-10 0 -24 46 -89 292 -19 70 -70 237 -114 370 -99 303 -114 354 -108 370 2 8
15 0 33 -21 32 -37 181 -187 211 -211 117 -96 167 -130 268 -180 74 -36 131
-46 165 -27 14 7 24 19 22 26 -1 7 2 10 7 6 27 -16 117 114 171 245 41 100 39
117 -17 184 -126 146 -381 289 -756 425 -55 20 -101 40 -101 45 -1 10 149 80
264 122 41 15 80 32 86 36 11 8 24 -8 116 -151 9 -14 17 -33 17 -42 1 -9 8
-19 16 -23 8 -3 15 -14 15 -25 0 -12 6 -18 17 -17 10 0 18 -4 18 -10 0 -18
132 -156 178 -187 23 -15 58 -44 78 -63 21 -20 42 -32 50 -29 8 3 46 69 84
147 39 77 85 164 103 192 74 117 222 254 430 398 68 47 115 89 138 124 l25 36
-28 -20 c-15 -10 -63 -37 -105 -60 -85 -46 -265 -165 -315 -209 -69 -61 -221
-283 -303 -441 -23 -45 -44 -82 -47 -82 -3 0 -48 39 -100 86 -89 82 -205 228
-266 334 -46 82 -143 303 -175 400 -33 104 -125 412 -148 500 -8 30 -25 75
-37 100 -19 38 -26 45 -52 45 -43 0 -52 -29 -58 -170 -2 -66 -3 -105 0 -87 9
68 19 26 31 -130 7 -90 15 -185 17 -213 3 -36 2 -42 -3 -20 -6 23 -9 9 -14
-60 -10 -145 -8 -141 -218 -293 l-64 -47 -109 2 -109 2 -36 39 c-21 21 -78 71
-128 110 -51 40 -95 79 -98 88 -9 25 -7 294 3 355 9 52 18 134 22 209 2 25 4
18 10 -25 5 -47 6 -39 3 35 -5 143 -13 188 -35 195 -59 19 -76 -18 -158 -337
-108 -417 -147 -525 -272 -745 -39 -71 -80 -143 -91 -161 -10 -18 -15 -38 -12
-44 4 -6 3 -8 -3 -5 -5 3 -28 -32 -51 -79 -23 -46 -38 -84 -33 -84 19 0 93 78
86 91 -5 7 -4 10 3 5 12 -7 35 27 25 38 -3 3 -2 6 4 6 10 0 123 161 123 175 0
4 9 19 20 33 11 15 28 37 38 50 43 59 52 64 90 57 19 -4 54 -15 76 -25 23 -9
75 -30 116 -44 67 -24 141 -69 130 -79 -7 -6 -267 -107 -275 -107 -4 0 -47
-19 -96 -42 -64 -29 -86 -44 -77 -51 9 -6 6 -7 -11 -4 -21 5 -70 -9 -81 -24
-11 -15 -190 -109 -207 -109 -4 0 -40 44 -80 98 -39 53 -101 129 -136 168 -35
39 -96 115 -135 167 -78 105 -141 161 -272 239 -88 54 -269 148 -283 148 -25
0 44 -60 151 -131 182 -122 323 -259 537 -523 111 -137 166 -197 176 -190 24
14 2 -14 -71 -92 -44 -48 -83 -98 -87 -112 -4 -18 5 -44 32 -96 75 -139 157
-252 175 -241 5 3 16 -2 25 -11 36 -37 154 -27 263 22 29 13 55 24 57 24 18 0
104 67 100 78 -3 7 0 10 6 6 6 -3 19 3 30 15 11 12 17 21 14 21 -3 0 -3 5 1
11 4 8 9 7 15 -2 7 -11 9 -9 9 6 0 11 14 37 29 58 27 35 30 37 36 17 7 -21 7
-21 24 2 9 13 25 40 36 61 25 48 41 42 37 -14 -3 -50 -30 -141 -40 -135 -4 2
-8 -15 -9 -39 -1 -23 -31 -125 -67 -226 -36 -101 -77 -229 -91 -284 -40 -151
-65 -225 -78 -225 -58 1 -347 67 -378 86 -35 22 -286 293 -304 329 -11 22 -32
60 -46 85 -15 25 -97 169 -183 320 -187 330 -186 329 -209 354 -10 11 -15 26
-13 33 7 17 -14 64 -25 58 -4 -3 -11 0 -15 6 -4 8 -3 9 4 5 18 -11 14 0 -13
45 -14 22 -71 133 -127 247 -93 191 -115 240 -185 407 -14 33 -34 79 -44 102
-34 75 -28 87 69 133 32 15 74 41 93 57 19 16 68 55 109 87 66 50 131 103 208
167 13 11 20 23 17 28 -2 5 2 12 11 15 8 3 12 2 9 -4 -9 -15 -2 -12 33 13 17
13 29 26 26 29 -3 4 0 9 7 14 7 4 10 3 5 -4 -3 -6 -2 -13 3 -16 5 -4 12 3 16
14 3 11 12 20 19 20 15 0 15 -105 1 -150 -4 -14 -5 -22 -1 -19 9 8 54 161 70
236 14 66 55 142 111 209 24 28 35 35 38 24 2 -8 12 -42 22 -75 18 -65 116
-317 121 -312 2 2 -1 19 -5 38 -5 18 -14 57 -21 84 -16 68 -16 68 -23 85 -15
36 -24 128 -21 194 6 108 8 119 22 144 8 13 11 26 8 30 -3 3 -6 0 -6 -7 0 -7
-4 -10 -9 -6 -11 6 6 66 22 76 5 4 5 9 -2 13 -17 11 -13 29 5 22 14 -5 15 -4
4 9 -17 20 -7 162 12 181 21 21 294 112 341 113 10 1 17 -6 17 -17z m2045 -90
c-3 -3 -11 0 -18 7 -9 10 -8 11 6 5 10 -3 15 -9 12 -12z m-2915 -894 c0 -4 -8
-8 -18 -8 -10 0 -23 -5 -30 -12 -7 -7 -12 -8 -12 -4 0 12 30 33 46 33 8 0 14
-4 14 -9z m2107 -230 c-2 -13 -4 -5 -4 17 -1 22 1 32 4 23 2 -10 2 -28 0 -40z
m1766 -25 c-7 -2 -19 -2 -25 0 -7 3 -2 5 12 5 14 0 19 -2 13 -5z m-1766 -35
c-3 -8 -6 -5 -6 6 -1 11 2 17 5 13 3 -3 4 -12 1 -19z m2018 -150 c50 -30 170
-92 268 -138 160 -75 220 -110 188 -110 -23 0 -391 179 -491 239 -114 68 -150
97 -150 119 0 9 16 2 48 -21 26 -19 88 -59 137 -89z m-4627 89 c2 -11 -5 -20
-21 -26 -13 -5 -39 -23 -57 -40 -18 -16 -37 -28 -41 -26 -4 3 -10 -2 -13 -11
-3 -8 -11 -12 -17 -8 -6 3 -15 1 -19 -6 -5 -8 -17 -15 -29 -17 -11 -1 -37 -11
-58 -22 -205 -104 -423 -195 -423 -178 0 5 103 57 114 57 3 0 99 46 212 102
129 64 226 120 262 149 59 49 84 57 90 26z m2801 -279 c5 -13 5 -27 0 -32 -14
-15 -11 -29 5 -23 11 4 17 -7 25 -44 15 -67 14 -76 -6 -82 -10 -3 -90 -30
-178 -60 -88 -30 -186 -58 -217 -61 -51 -7 -58 -5 -68 14 -14 27 -19 22 105
107 145 99 196 128 205 114 5 -9 10 -8 20 4 11 13 10 15 -6 10 -18 -6 -18 -6
0 7 10 7 34 25 53 41 43 33 51 33 62 5z m-1024 -48 c39 -18 111 -63 160 -100
169 -126 188 -156 96 -148 -38 4 -311 92 -398 128 -28 11 -31 34 -4 27 23 -6
51 10 51 28 0 8 3 15 8 16 49 7 82 6 82 -2 0 -5 9 -9 21 -9 28 0 17 14 -46 56
-30 20 -55 38 -55 41 0 2 3 2 8 0 4 -2 39 -18 77 -37z m-2393 -202 c42 -84 99
-200 126 -258 28 -58 112 -231 186 -384 136 -279 156 -326 139 -326 -12 0 -85
49 -152 102 -47 37 -58 53 -82 118 -31 83 -36 83 -14 0 8 -30 15 -56 15 -57 0
0 -18 7 -40 18 -43 21 -55 40 -189 286 -40 73 -98 168 -130 210 -58 79 -174
193 -197 193 -6 0 -14 7 -18 15 -3 8 -12 15 -21 15 -10 0 -3 -11 19 -31 19
-16 39 -30 43 -30 4 0 14 -11 21 -25 7 -13 17 -24 22 -24 5 0 30 -27 55 -60
26 -33 50 -58 55 -55 4 3 7 -1 6 -8 0 -6 21 -48 48 -92 100 -166 174 -305 161
-305 -7 0 -15 4 -17 8 -1 4 -41 37 -88 72 -108 81 -137 107 -351 313 -123 117
-175 174 -172 186 3 9 20 28 38 43 39 33 419 228 444 228 13 0 39 -44 93 -152z
m5961 62 c236 -111 271 -131 275 -154 6 -29 -234 -261 -423 -409 -33 -25 -73
-58 -88 -72 -15 -14 -32 -25 -38 -25 -10 0 13 63 34 89 6 9 1 7 -11 -4 l-23
-19 9 24 c19 48 47 94 70 113 12 10 38 43 57 73 19 30 52 66 72 82 21 15 70
60 108 101 66 70 68 73 25 43 -86 -58 -281 -277 -321 -359 -11 -24 -25 -45
-30 -48 -4 -3 -17 -25 -28 -48 -28 -62 -143 -200 -197 -238 -43 -29 -47 -30
-42 -11 8 31 3 27 -22 -13 -12 -19 -41 -48 -66 -65 -107 -72 -136 -71 -86 2
16 24 35 57 44 73 8 17 47 93 85 170 39 77 90 181 113 230 24 50 62 131 85
180 23 50 60 128 83 175 22 47 52 111 66 143 15 35 31 57 41 57 9 0 103 -41
208 -90z m-3049 -260 c-5 -117 -10 -153 -21 -157 -27 -11 -33 14 -35 150 -3
137 -3 138 22 157 14 10 29 15 33 11 5 -5 5 -77 1 -161z m-118 152 c19 -12 38
-249 24 -288 -11 -27 -35 -32 -44 -8 -9 23 -7 304 2 304 4 0 12 -4 18 -8z
m-86 -107 c18 -22 -2 -42 -54 -55 -143 -36 -637 -278 -777 -380 -76 -55 -109
-94 -109 -128 0 -39 35 -103 80 -147 39 -38 44 -40 103 -39 65 0 134 28 205
82 26 20 193 214 295 342 105 131 130 161 153 179 15 12 29 19 32 17 12 -13
-195 -320 -306 -453 -89 -107 -157 -164 -262 -220 -121 -65 -190 -68 -250 -10
-19 18 -30 26 -25 18 5 -10 4 -12 -4 -7 -6 4 -9 11 -6 16 2 4 -3 18 -13 31
-46 61 -114 183 -114 204 0 53 187 202 368 292 43 22 129 66 189 97 90 47 428
172 471 175 6 1 17 -6 24 -14z m339 -1 c225 -66 469 -162 655 -257 93 -48 226
-147 300 -225 l29 -31 -23 -63 c-57 -156 -151 -288 -205 -288 -34 0 -133 49
-200 99 -63 47 -207 191 -297 296 -37 44 -104 121 -148 170 -44 50 -92 108
-106 130 -14 22 -38 50 -52 62 -24 21 -25 23 -7 23 30 0 103 -64 181 -159 38
-46 146 -161 239 -256 193 -195 253 -235 350 -235 48 0 55 3 77 33 37 49 88
142 88 161 0 30 -146 149 -285 231 -107 64 -308 154 -426 191 -195 61 -259 90
-259 119 0 19 20 19 89 -1z m-869 -129 c0 -2 -10 -10 -22 -16 -21 -11 -22 -11
-9 4 13 16 31 23 31 12z m540 -93 c0 -37 -18 -132 -50 -258 -88 -348 -106
-407 -186 -613 -44 -113 -96 -287 -109 -369 -7 -42 -7 -42 -50 -42 -24 0 -47
5 -50 10 -9 15 64 269 155 540 43 129 100 303 125 385 26 83 58 184 72 225 27
83 73 180 85 180 4 0 8 -26 8 -58z m312 -72 c81 -193 311 -879 353 -1054 15
-60 29 -115 32 -122 6 -16 -22 -28 -84 -39 l-43 -7 0 39 c-1 48 -55 283 -77
333 -4 8 -7 20 -8 25 0 12 -12 50 -59 200 -19 61 -51 166 -70 235 -40 144 -87
289 -109 341 -13 30 -14 45 -4 97 14 75 20 71 69 -48z m283 56 c11 -7 45 -22
75 -34 30 -11 78 -33 105 -48 28 -14 73 -38 100 -52 65 -32 170 -106 217 -153
42 -42 42 -48 -4 -116 -25 -37 -34 -43 -64 -43 -69 0 -188 100 -441 374 -57
61 -71 103 -30 91 12 -4 31 -13 42 -19z m-875 3 c0 -5 -25 -41 -55 -80 -31
-38 -51 -69 -44 -69 6 0 18 8 25 18 7 9 14 12 14 6 0 -14 -68 -79 -76 -71 -4
3 -30 -24 -59 -62 -29 -37 -77 -86 -107 -109 -57 -44 -155 -92 -188 -92 -22 0
-100 74 -100 95 0 7 -5 15 -12 17 -22 8 84 109 145 138 31 16 57 26 57 23 0
-4 8 3 18 13 9 11 35 28 57 38 50 23 99 47 145 71 63 33 71 36 80 30 6 -4 10
-2 10 3 0 9 58 40 78 41 6 1 12 -4 12 -10z m1590 -79 c0 -5 -4 -10 -10 -10 -5
0 -10 5 -10 10 0 6 5 10 10 10 6 0 10 -4 10 -10z m-1171 -16 c30 -6 32 -11 71
-133 22 -69 58 -202 80 -296 22 -93 47 -195 55 -225 16 -59 79 -394 90 -473 6
-43 4 -48 -18 -56 -30 -12 -219 -17 -235 -7 -9 5 -12 68 -12 229 0 256 -18
675 -31 697 -12 21 -11 -74 2 -240 6 -74 14 -262 17 -418 l7 -282 -25 0 c-39
0 -48 12 -53 65 l-3 50 -2 -51 c-2 -51 -2 -51 -39 -58 -49 -8 -162 -8 -202 0
-31 7 -31 7 -25 58 23 198 77 476 158 806 14 58 35 148 47 200 35 152 34 151
118 134z m2800 -120 c-21 -38 -39 -56 -39 -39 0 16 55 106 58 96 2 -7 -6 -32
-19 -57z m-1679 31 c13 -14 21 -25 18 -25 -2 0 -15 11 -28 25 -13 14 -21 25
-18 25 2 0 15 -11 28 -25z m-2345 -95 c-10 -11 -20 -18 -23 -15 -3 3 3 14 13
25 10 11 20 18 23 15 3 -3 -3 -14 -13 -25z m770 -89 c3 -5 1 -12 -5 -16 -5 -3
-10 1 -10 9 0 18 6 21 15 7z m689 -407 c3 -8 2 -12 -4 -9 -6 3 -10 10 -10 16
0 14 7 11 14 -7z m-619 -352 c-15 -70 -34 -134 -41 -142 -19 -20 -18 -11 17
120 17 63 33 129 36 145 4 17 8 24 11 17 2 -7 -8 -70 -23 -140z m794 -47 c0
-11 -6 -2 -14 20 -18 50 -18 57 0 25 8 -14 14 -34 14 -45z"/>
<path d="M6606 4553 c-6 -14 -5 -15 5 -6 7 7 10 15 7 18 -3 3 -9 -2 -12 -12z"/>
<path d="M6282 3490 c0 -14 2 -19 5 -12 2 6 2 18 0 25 -3 6 -5 1 -5 -13z"/>
<path d="M6231 3474 c0 -11 3 -14 6 -6 3 7 2 16 -1 19 -3 4 -6 -2 -5 -13z"/>
<path d="M6291 3414 c0 -11 3 -14 6 -6 3 7 2 16 -1 19 -3 4 -6 -2 -5 -13z"/>
<path d="M3836 3355 c-3 -8 -1 -15 4 -15 6 0 10 7 10 15 0 8 -2 15 -4 15 -2 0
-6 -7 -10 -15z"/>
<path d="M6307 3083 c-4 -3 -7 -11 -7 -17 0 -6 5 -5 12 2 6 6 9 14 7 17 -3 3
-9 2 -12 -2z"/>
<path d="M3761 3004 c0 -11 3 -14 6 -6 3 7 2 16 -1 19 -3 4 -6 -2 -5 -13z"/>
<path d="M6680 2840 c6 -11 13 -20 16 -20 2 0 0 9 -6 20 -6 11 -13 20 -16 20
-2 0 0 -9 6 -20z"/>
<path d="M3830 2825 c0 -5 5 -17 10 -25 5 -8 10 -10 10 -5 0 6 -5 17 -10 25
-5 8 -10 11 -10 5z"/>
<path d="M6701 2805 c0 -5 8 -26 19 -45 11 -19 19 -30 19 -25 0 6 -8 26 -19
45 -11 19 -19 31 -19 25z"/>
<path d="M4185 2711 c-13 -30 -24 -40 -46 -43 -25 -4 -28 -2 -23 14 5 18 3 17
-30 -4 -82 -53 -47 -192 65 -260 30 -18 32 -18 62 0 67 38 127 151 113 209 -7
27 -96 123 -114 123 -5 0 -17 -18 -27 -39z m122 -133 c-3 -7 -5 -2 -5 12 0 14
2 19 5 13 2 -7 2 -19 0 -25z"/>
<path d="M3486 2694 c-3 -26 -4 -49 -2 -52 3 -2 8 17 11 43 4 25 5 48 3 51 -3
2 -8 -17 -12 -42z"/>
<path d="M5880 2707 c-50 -39 -61 -98 -33 -169 18 -45 30 -59 77 -84 l30 -17
-27 33 c-15 17 -30 42 -33 56 -3 13 -12 24 -20 24 -8 0 -14 5 -14 10 0 6 5 9
11 8 7 -2 11 19 11 57 1 33 5 66 11 73 14 17 5 23 -13 9z"/>
<path d="M6040 2672 c0 -11 7 -25 15 -32 22 -18 18 -61 -10 -114 -31 -58 -32
-77 -4 -45 31 34 59 99 59 136 0 24 -7 37 -30 53 -29 21 -30 21 -30 2z"/>
<path d="M3463 2545 c0 -27 2 -38 4 -22 2 15 2 37 0 50 -2 12 -4 0 -4 -28z"/>
<path d="M6681 2534 c0 -11 3 -14 6 -6 3 7 2 16 -1 19 -3 4 -6 -2 -5 -13z"/>
<path d="M7109 2388 c-42 -85 -58 -128 -68 -182 -6 -33 -9 -61 -7 -63 2 -2 12
23 23 54 12 32 33 91 47 132 29 78 31 113 5 59z"/>
<path d="M3005 2390 c4 -14 18 -45 30 -70 12 -25 34 -81 49 -125 15 -44 38
-100 52 -125 14 -25 22 -36 19 -25 -4 11 -18 56 -32 100 -13 44 -37 107 -53
140 -15 33 -31 70 -35 82 -3 11 -13 27 -22 35 -14 11 -15 10 -8 -12z"/>
<path d="M6031 1910 c18 -38 128 -158 166 -181 18 -11 39 -19 46 -16 6 2 -4
11 -23 19 -33 14 -144 122 -183 178 l-18 25 12 -25z"/>
<path d="M5841 1804 c0 -11 3 -14 6 -6 3 7 2 16 -1 19 -3 4 -6 -2 -5 -13z"/>
<path d="M6857 1684 c-37 -74 -33 -83 4 -10 17 32 29 60 27 62 -2 2 -16 -21
-31 -52z"/>
<path d="M4596 1125 c-11 -8 -17 -17 -14 -20 2 -3 13 4 23 15 21 23 18 25 -9
5z"/>
<path d="M4685 2070 c3 -5 8 -10 11 -10 2 0 4 5 4 10 0 6 -5 10 -11 10 -5 0
-7 -4 -4 -10z"/>
<path d="M7668 1218 c-10 -23 -16 -44 -13 -46 6 -6 37 67 33 78 -2 5 -11 -9
-20 -32z"/>
<path d="M4852 9960 c15 -4 51 -11 80 -14 l53 -6 -50 15 c-27 8 -63 14 -80 14
l-30 -1 27 -8z"/>
<path d="M4455 9910 l-50 -7 65 -1 c36 0 85 3 110 7 l45 8 -60 0 c-33 0 -82
-3 -110 -7z"/>
<path d="M4893 9913 c9 -2 25 -2 35 0 9 3 1 5 -18 5 -19 0 -27 -2 -17 -5z"/>
<path d="M4968 9903 c7 -3 16 -2 19 1 4 3 -2 6 -13 5 -11 0 -14 -3 -6 -6z"/>
<path d="M6068 9903 c12 -2 32 -2 45 0 12 2 2 4 -23 4 -25 0 -35 -2 -22 -4z"/>
<path d="M4368 9893 c6 -2 18 -2 25 0 6 3 1 5 -13 5 -14 0 -19 -2 -12 -5z"/>
<path d="M4285 9855 c-5 -1 -37 -9 -70 -16 -33 -7 -69 -19 -80 -27 l-20 -14
20 7 c11 4 74 17 140 30 96 19 110 23 70 23 -27 0 -54 -1 -60 -3z"/>
<path d="M5863 9843 c9 -2 23 -2 30 0 6 3 -1 5 -18 5 -16 0 -22 -2 -12 -5z"/>
<path d="M4401 9819 c-25 -5 -50 -11 -55 -14 -18 -8 87 7 109 16 26 10 3 9
-54 -2z"/>
<path d="M3675 9783 c-91 -19 -337 -101 -445 -148 -190 -83 -387 -177 -471
-225 -41 -24 -121 -70 -179 -103 -134 -76 -312 -198 -415 -282 -242 -200 -304
-255 -460 -410 -271 -270 -441 -477 -643 -782 -177 -269 -394 -708 -495 -1003
-198 -576 -280 -1064 -281 -1670 -1 -434 31 -763 110 -1115 68 -303 134 -508
281 -880 119 -300 380 -746 593 -1013 25 -32 64 -82 87 -112 22 -30 64 -79 93
-108 l51 -54 45 37 c24 20 44 40 44 45 0 5 -15 21 -34 35 -48 37 -198 219
-303 370 -378 540 -632 1139 -767 1810 -164 814 -108 1697 158 2505 89 271
262 661 384 865 175 293 310 485 486 694 85 102 407 427 526 533 177 157 439
342 675 478 268 155 511 267 662 308 39 10 90 32 114 49 161 110 273 193 259
192 -3 0 -36 -7 -75 -16z m-5 -43 c-8 -5 -24 -10 -35 -10 -17 0 -17 2 -5 10 8
5 24 10 35 10 17 0 17 -2 5 -10z"/>
<path d="M4288 9793 c6 -2 18 -2 25 0 6 3 1 5 -13 5 -14 0 -19 -2 -12 -5z"/>
<path d="M4693 9733 c9 -2 23 -2 30 0 6 3 -1 5 -18 5 -16 0 -22 -2 -12 -5z"/>
<path d="M4618 9723 c6 -2 18 -2 25 0 6 3 1 5 -13 5 -14 0 -19 -2 -12 -5z"/>
<path d="M4430 9709 c0 -7 -10 -9 -25 -5 -14 4 -25 2 -25 -4 0 -5 -5 -10 -11
-10 -5 0 -7 5 -4 10 4 6 -24 -2 -62 -16 -37 -15 -85 -33 -106 -40 -60 -22
-152 -71 -166 -88 -7 -9 -17 -14 -21 -11 -3 2 -22 -9 -41 -25 -19 -16 -38 -29
-43 -30 -5 0 -51 -35 -104 -77 -52 -43 -111 -90 -130 -105 -20 -16 -30 -28
-24 -28 6 0 27 14 46 30 20 18 36 26 38 19 2 -7 9 -4 18 7 9 11 10 15 3 10 -7
-4 -13 -4 -13 1 1 11 172 134 178 128 3 -3 -10 -19 -29 -36 -19 -17 -25 -25
-14 -18 36 24 64 52 60 59 -3 4 2 13 10 20 13 11 14 10 9 -5 -6 -15 -4 -16 15
-6 12 7 19 16 16 21 -6 10 43 46 51 37 3 -3 28 8 55 25 28 17 52 28 55 25 3
-3 -3 -8 -13 -11 -10 -3 -24 -15 -30 -26 -11 -16 -10 -18 2 -14 8 4 15 10 15
15 0 5 6 9 14 9 7 0 19 7 26 15 7 9 18 14 24 12 6 -3 18 1 26 8 23 20 133 62
197 76 32 7 50 14 41 17 -10 2 -18 8 -18 13 0 5 -4 9 -10 9 -5 0 -10 -5 -10
-11z"/>
<path d="M4800 9690 c-166 -37 -340 -93 -327 -106 3 -3 18 1 34 9 15 8 53 20
83 27 30 7 98 26 150 41 52 16 107 29 123 29 15 0 27 5 27 10 0 6 -1 10 -2 9
-2 0 -41 -9 -88 -19z"/>
<path d="M5613 9693 c9 -2 25 -2 35 0 9 3 1 5 -18 5 -19 0 -27 -2 -17 -5z"/>
<path d="M5729 9674 c36 -8 92 -29 126 -48 99 -54 256 -161 317 -215 31 -28
59 -51 61 -51 7 0 78 -62 129 -113 21 -21 73 -68 116 -104 127 -108 243 -216
237 -221 -2 -3 -49 14 -102 38 -128 56 -168 57 -283 6 -47 -21 -95 -44 -108
-52 -33 -22 -62 -74 -63 -114 0 -19 -4 -44 -8 -55 -7 -17 -12 -12 -39 35 -17
30 -34 60 -39 65 -4 6 -14 22 -21 36 -8 14 -25 39 -38 55 -33 40 26 -65 93
-167 54 -79 59 -91 146 -314 54 -137 160 -448 195 -569 14 -51 17 -105 17
-341 0 -280 -1 -289 -41 -493 -8 -38 -23 -15 -18 27 7 59 -36 554 -67 771 -10
73 -68 304 -75 297 -2 -1 6 -48 18 -102 29 -133 31 -350 4 -520 -26 -165 -124
-495 -148 -495 -6 0 -7 7 -2 18 10 23 21 799 12 942 -14 239 -77 487 -204 800
-10 25 -21 47 -24 50 -11 10 -30 61 -30 80 0 11 -5 20 -11 20 -5 0 -7 5 -4 10
3 6 1 10 -6 10 -7 0 -9 3 -6 7 11 10 -174 329 -210 363 -21 19 40 -91 82 -150
66 -94 109 -185 208 -440 57 -148 80 -231 127 -465 71 -358 75 -559 14 -770
-45 -157 -54 -160 -48 -15 5 121 -4 425 -13 417 -2 -3 -4 -76 -4 -163 0 -171
-20 -391 -45 -489 -19 -77 -102 -293 -116 -301 -6 -4 -8 1 -4 12 43 142 61
402 54 799 -1 11 -11 121 -24 245 -24 229 -64 429 -149 749 -20 74 -34 142
-33 150 2 9 23 -29 47 -84 24 -55 56 -127 71 -160 35 -77 96 -240 105 -285 5
-19 10 -30 12 -23 5 15 -83 277 -140 415 -24 59 -64 139 -88 178 -24 39 -60
97 -79 129 -36 59 -119 171 -127 171 -4 0 52 -104 68 -125 9 -13 72 -176 92
-240 73 -234 168 -717 183 -925 2 -36 6 -71 9 -79 15 -38 16 -281 2 -371 -9
-62 -13 -140 -10 -225 5 -118 2 -144 -27 -283 -51 -246 -52 -249 -114 -278
-29 -13 -68 -26 -87 -30 -34 -6 -34 -6 -13 13 12 10 34 41 48 69 26 53 157
430 155 449 0 5 -7 -6 -14 -25 l-14 -35 6 50 c2 28 6 56 9 63 2 7 -1 23 -5 35
-6 15 -2 75 10 168 10 79 21 212 23 294 6 167 8 176 -40 -205 -51 -414 -82
-537 -227 -895 -27 -68 -147 -295 -147 -280 0 11 73 244 107 340 41 117 70
241 103 440 17 105 42 232 56 283 14 52 24 96 21 98 -2 2 -14 -31 -26 -73 -12
-43 -33 -108 -47 -145 -14 -37 -23 -71 -20 -76 9 -14 -98 -464 -146 -617 -23
-72 -39 -66 -19 9 6 22 22 94 36 159 26 117 78 327 91 363 4 10 4 16 0 13 -9
-8 -136 -387 -136 -405 0 -8 -4 -14 -10 -14 -15 0 -12 49 6 109 21 72 13 73
-16 3 -13 -31 -58 -136 -100 -232 -73 -166 -97 -247 -116 -383 -3 -26 -10 -50
-15 -52 -26 -17 -131 252 -165 426 -32 163 -29 405 11 874 9 94 18 190 21 215
11 84 -4 36 -20 -65 -9 -55 -21 -125 -26 -155 -22 -117 -51 -564 -45 -670 4
-58 8 -130 9 -160 3 -60 41 -196 63 -221 15 -18 7 -52 -10 -46 -24 8 -132 244
-147 322 -6 33 -20 99 -31 146 -46 211 -31 681 32 964 26 119 82 327 119 445
16 52 28 96 26 97 -2 2 -26 -63 -55 -144 -49 -142 -101 -341 -101 -393 0 -17
-3 -21 -9 -12 -8 13 -28 -123 -51 -345 -6 -57 -12 -250 -13 -430 l-2 -328 28
-50 c15 -27 49 -77 76 -110 45 -55 66 -95 41 -80 -5 3 -10 3 -10 -1 0 -19 80
-147 130 -209 62 -75 85 -115 105 -179 l12 -41 13 48 c7 27 18 47 26 47 10 0
14 15 15 53 1 64 10 46 35 -67 17 -76 53 -166 55 -136 0 10 4 8 10 -5 10 -22
10 -19 -17 85 -7 30 -19 111 -25 180 l-12 125 51 125 c28 69 63 152 79 185
l28 60 3 -48 c3 -48 -15 -134 -68 -322 -42 -149 -43 -155 -26 -149 21 8 111
131 179 244 75 126 75 126 128 133 61 8 224 65 319 111 68 33 100 43 100 31 0
-21 -29 -55 -58 -70 -79 -37 -152 -88 -200 -138 -94 -98 -107 -122 -17 -31 77
78 103 97 182 135 53 25 95 52 99 62 10 31 65 87 106 108 42 22 170 69 186 69
6 0 7 -12 2 -34 -13 -60 5 -59 35 1 16 32 30 60 32 62 4 5 195 50 216 51 16 0
18 -11 15 -136 -2 -131 -3 -137 -26 -152 -21 -13 -88 -19 -99 -8 -2 2 14 14
36 27 23 12 39 24 38 25 -2 2 -25 -3 -52 -11 -59 -18 -145 -20 -145 -3 0 6 10
22 22 36 l23 23 -27 -10 c-15 -6 -46 -20 -68 -31 -32 -16 -111 -37 -236 -61
-47 -9 31 49 104 77 63 25 46 26 -33 4 -66 -19 -115 -51 -115 -75 0 -7 -35
-33 -77 -58 -149 -87 -237 -186 -315 -354 -41 -90 -44 -112 -9 -67 18 23 21
24 22 8 0 -13 3 -10 9 8 12 40 121 178 141 178 3 0 9 -27 12 -59 14 -157 125
-252 277 -238 112 10 195 81 231 197 34 108 8 202 -75 278 -26 24 -45 47 -41
50 4 4 46 7 93 6 99 0 163 -24 207 -75 39 -48 42 -90 10 -188 -15 -47 -32 -92
-37 -98 -6 -7 -8 -13 -4 -13 3 0 27 32 52 71 25 39 48 68 51 65 3 -3 -15 -37
-40 -76 -26 -38 -47 -74 -47 -79 0 -17 -91 -110 -133 -134 -23 -14 -49 -35
-57 -46 -15 -22 -37 -30 -24 -9 5 8 2 9 -12 3 -81 -34 -106 -38 -227 -40 -70
-1 -130 -4 -133 -8 -11 -11 110 -20 190 -14 99 8 181 29 219 58 17 12 27 17
23 10 -12 -19 26 0 91 46 62 43 89 75 78 92 -3 5 -2 17 1 26 5 12 14 15 38 10
l31 -6 -24 19 -25 20 29 55 c31 63 79 117 104 118 11 0 9 3 -6 9 -61 25 -42
80 28 80 31 0 39 4 39 18 0 10 5 23 11 29 20 20 48 805 31 858 -9 26 -10 20
-11 -41 -3 -212 -39 -467 -76 -532 -15 -26 -16 -25 -11 38 7 88 7 472 0 540
-32 334 -77 560 -141 725 -36 92 -138 302 -154 320 -14 14 -11 25 7 25 24 0
135 -50 160 -72 11 -10 25 -18 31 -18 5 0 29 -13 51 -30 43 -31 64 -60 121
-165 18 -33 39 -67 47 -76 17 -19 18 -33 2 -23 -15 9 1 -13 47 -66 46 -53 128
-219 174 -354 23 -66 44 -122 48 -125 8 -8 -6 84 -20 134 -6 22 -15 43 -20 46
-5 4 -11 20 -13 37 -4 36 -77 198 -101 224 -15 17 -13 18 58 18 l75 0 12 -52
c6 -29 25 -118 41 -198 17 -80 37 -161 46 -180 11 -25 14 -27 11 -10 -3 14
-10 61 -16 105 -6 44 -20 138 -31 209 -14 87 -17 132 -10 139 19 19 73 -136
101 -293 20 -109 21 -112 25 -108 3 2 1 26 -4 54 -5 27 -16 96 -25 154 -10 58
-24 135 -31 172 -14 66 -12 103 6 92 5 -3 9 -14 9 -26 0 -11 14 -66 31 -122
17 -55 33 -107 35 -115 3 -8 6 -12 8 -10 6 5 -25 132 -54 227 -26 84 -24 103
22 215 l32 77 22 -77 c24 -85 60 -265 73 -365 5 -35 9 -49 10 -31 3 94 -46
359 -110 595 -26 92 -50 119 -186 210 -51 34 -93 69 -93 77 0 8 -15 42 -34 75
-19 34 -50 91 -69 128 -98 187 -288 396 -487 534 -63 44 -133 89 -155 102
l-40 22 30 -25 c17 -13 82 -61 145 -106 200 -143 326 -269 432 -434 52 -79
143 -273 134 -283 -4 -3 -23 4 -44 16 -20 12 -71 41 -113 64 -42 23 -83 52
-91 65 -28 46 -200 224 -316 325 -162 143 -355 283 -499 363 -54 31 -166 65
-207 64 -22 -1 -12 -5 33 -15z m542 -311 c13 -17 13 -17 -6 -3 -11 8 -22 16
-24 17 -2 2 0 3 6 3 6 0 17 -8 24 -17z m301 -434 c163 -63 503 -255 617 -348
l43 -35 -4 -86 c-4 -71 -10 -97 -40 -160 -19 -41 -51 -101 -72 -132 l-37 -58
-57 0 c-59 0 -126 24 -150 53 -7 8 -36 62 -64 119 -44 91 -99 168 -119 168 -4
0 -38 19 -75 42 -107 64 -158 82 -321 114 -13 3 -23 12 -23 22 0 9 -11 60 -24
112 -17 67 -21 100 -14 113 14 27 193 106 241 107 10 0 54 -14 99 -31z m-237
-403 c93 -39 274 -449 315 -711 5 -33 17 -103 25 -155 17 -100 38 -530 26
-542 -4 -5 -12 18 -19 50 -7 31 -26 122 -42 202 -17 80 -35 165 -41 190 -5 25
-28 136 -49 246 -22 111 -49 226 -59 256 -10 30 -64 147 -120 259 -55 113
-101 208 -101 212 0 11 28 8 65 -7z m71 -327 c44 -84 61 -133 110 -309 42
-150 49 -199 31 -213 -8 -7 -17 -21 -19 -32 -8 -48 -24 -7 -40 104 -17 122
-67 312 -119 455 -33 92 -33 89 -17 84 6 -2 31 -42 54 -89z m152 -686 c24 -46
106 -456 97 -484 -4 -12 -22 -19 -66 -24 -33 -4 -82 -13 -110 -20 -27 -7 -49
-10 -49 -6 0 4 9 36 21 71 29 89 45 183 60 343 9 101 15 137 25 137 7 0 17 -8
22 -17z m-213 -95 c3 -40 11 -75 16 -79 11 -7 13 -359 2 -369 -14 -12 -205
-70 -213 -65 -4 3 6 42 24 88 56 142 146 444 146 489 0 11 4 17 9 14 4 -3 12
-38 16 -78z m-229 -140 c-6 -152 -26 -340 -42 -390 -3 -10 -20 -21 -37 -27
-18 -5 -56 -18 -84 -30 -29 -11 -76 -30 -104 -41 l-50 -20 24 32 c46 63 85
144 137 283 29 77 69 174 90 215 20 41 43 92 49 113 7 20 15 37 18 37 3 0 2
-78 -1 -172z m-72 55 c-9 -21 -21 -51 -26 -68 -6 -16 -15 -34 -20 -40 -10 -11
25 92 41 124 19 35 22 24 5 -16z m103 -385 c-3 -7 -5 -2 -5 12 0 14 2 19 5 13
2 -7 2 -19 0 -25z m615 -263 c-3 -62 -2 -85 7 -85 24 0 1 -17 -26 -19 -86 -7
-98 -6 -101 12 -3 12 5 19 27 23 46 9 47 22 4 29 -76 13 -77 15 -25 41 26 13
61 37 77 54 16 16 32 30 36 30 4 0 4 -38 1 -85z m-574 -112 c-10 -2 -28 -2
-40 0 -13 2 -5 4 17 4 22 1 32 -1 23 -4z m-105 -21 c-22 -9 -50 -25 -60 -34
-11 -10 -25 -18 -31 -18 -7 0 -12 -4 -12 -9 0 -5 -6 -16 -12 -23 -29 -31 -39
-62 -37 -114 1 -30 6 -57 11 -60 4 -3 8 -14 8 -25 0 -10 5 -19 10 -19 6 0 10
-9 10 -19 0 -17 25 -36 43 -32 4 0 10 -6 14 -14 4 -13 21 -16 84 -14 44 1 79
6 79 10 0 5 6 9 14 9 22 0 99 81 88 92 -13 13 -3 47 11 44 7 -2 9 -1 5 1 -5 3
-8 11 -8 18 0 12 -21 25 -41 25 -5 0 -9 -7 -9 -15 0 -8 5 -15 10 -15 6 0 10
-5 10 -10 0 -6 -6 -10 -13 -8 -14 3 -58 -37 -49 -46 3 -3 1 -6 -5 -6 -6 0 -13
-9 -16 -20 -4 -17 -13 -20 -59 -20 -29 0 -62 3 -73 6 -34 10 -63 56 -69 109
-5 49 1 38 19 -33 10 -42 37 -60 97 -63 41 -3 52 1 78 26 16 15 37 48 47 71
10 24 21 44 25 44 16 0 58 45 58 62 0 10 -3 18 -8 18 -4 0 -13 14 -21 31 -7
17 -28 39 -45 50 -18 11 -24 19 -15 19 25 0 68 -46 90 -95 25 -55 27 -160 5
-202 -21 -40 -75 -89 -118 -107 -21 -9 -66 -16 -100 -16 -51 0 -71 5 -100 25
-73 49 -111 191 -73 266 17 31 124 121 136 113 4 -2 10 0 14 6 3 5 16 10 28 9
16 0 10 -5 -20 -17z m92 -33 c4 -6 -2 -9 -17 -8 -81 7 -110 -8 -146 -76 -27
-52 -28 -24 -1 32 13 28 27 43 39 43 10 0 22 5 25 10 8 13 92 13 100 -1z m40
-30 c2 -17 0 -18 -13 -5 -8 8 -11 19 -7 26 9 15 18 5 20 -21z m-69 -17 c15
-10 34 -47 34 -67 0 -13 -4 -14 -20 -5 -22 12 -25 4 -11 -33 7 -18 6 -30 -5
-45 -8 -11 -11 -29 -8 -39 4 -13 3 -14 -3 -5 -8 10 -15 11 -35 1 -55 -24 -96
44 -68 111 19 45 31 46 13 1 -13 -33 -13 -43 -2 -67 18 -36 30 -39 62 -14 21
17 27 30 27 60 0 33 -4 40 -30 52 -16 7 -30 18 -30 23 0 28 49 45 76 27z m117
-52 c-3 -11 -7 -20 -9 -20 -2 0 -4 9 -4 20 0 11 4 20 9 20 5 0 7 -9 4 -20z
m-1203 -11 c0 -6 -4 -7 -10 -4 -5 3 -10 11 -10 16 0 6 5 7 10 4 6 -3 10 -11
10 -16z m-60 -20 c0 -6 -4 -7 -10 -4 -5 3 -10 11 -10 16 0 6 5 7 10 4 6 -3 10
-11 10 -16z m45 -9 c3 -5 1 -10 -4 -10 -6 0 -11 5 -11 10 0 6 2 10 4 10 3 0 8
-4 11 -10z m365 -4 c0 -3 -4 -8 -10 -11 -5 -3 -10 -1 -10 4 0 6 5 11 10 11 6
0 10 -2 10 -4z m678 -38 c-22 -22 -24 -22 -32 -3 -10 28 3 44 28 32 22 -10 22
-11 4 -29z m-353 -8 c-9 -16 -18 -30 -21 -30 -2 0 2 14 11 30 9 17 18 30 21
30 2 0 -2 -13 -11 -30z m-355 -10 c0 -5 -5 -10 -11 -10 -5 0 -7 5 -4 10 3 6 8
10 11 10 2 0 4 -4 4 -10z m-122 -80 c0 -25 -3 -34 -5 -20 -2 14 -9 37 -14 52
-6 15 -7 32 -3 39 11 19 23 -18 22 -71z m-114 -14 c9 -14 12 -27 7 -30 -8 -5
-41 35 -41 49 0 13 19 3 34 -19z"/>
<path d="M6495 8849 c-4 -11 -4 -36 -1 -54 6 -28 20 -43 84 -88 146 -101 278
-175 352 -197 l25 -7 -6 83 c-3 46 -7 85 -10 87 -15 11 -351 172 -383 183 -50
18 -53 18 -61 -7z"/>
<path d="M7065 8545 c-3 -25 -3 -51 2 -57 4 -7 8 -20 8 -28 0 -16 42 -27 55
-13 5 4 11 24 15 44 6 30 3 40 -17 59 -47 44 -55 44 -63 -5z"/>
<path d="M6936 9585 c89 -99 136 -139 191 -161 174 -72 694 -414 894 -588 19
-17 62 -53 94 -81 412 -347 793 -827 1054 -1325 135 -259 300 -690 371 -970
191 -749 219 -1533 79 -2249 -67 -345 -141 -605 -256 -901 -63 -161 -256 -550
-350 -705 -86 -142 -277 -413 -360 -512 -29 -34 -53 -71 -53 -82 0 -11 -5 -21
-12 -23 -7 -3 2 -22 24 -51 l36 -47 39 44 c21 24 76 97 122 162 46 66 101 142
122 169 111 149 281 439 411 705 247 507 409 1136 459 1791 17 234 7 775 -20
1004 -22 186 -55 394 -72 455 -5 19 -20 89 -34 156 -43 212 -161 571 -272 829
-196 453 -471 877 -831 1277 -94 106 -342 342 -396 377 -12 8 -25 19 -31 26
-5 6 -77 65 -160 131 -207 165 -389 284 -655 431 -185 102 -436 223 -461 223
-6 0 24 -38 67 -85z"/>
<path d="M6290 9645 c7 -8 18 -15 25 -15 6 0 20 -9 30 -20 10 -11 25 -20 34
-20 9 0 64 -34 123 -74 59 -41 109 -72 112 -69 3 3 20 -4 38 -16 18 -11 26
-21 19 -21 -25 0 1 -17 36 -23 67 -13 45 20 -57 85 -149 95 -217 133 -281 159
-80 33 -97 36 -79 14z"/>
<path d="M4762 9609 c-29 -12 -51 -23 -49 -25 4 -4 107 33 116 42 9 9 -16 2
-67 -17z"/>
<path d="M5669 9609 c79 -17 277 -95 326 -129 6 -4 37 -22 70 -40 53 -28 56
-29 30 -7 -16 14 -88 56 -158 92 -100 52 -148 71 -220 86 -51 10 -103 18 -117
18 -14 0 17 -9 69 -20z"/>
<path d="M3998 9585 c-210 -87 -434 -277 -608 -516 -36 -50 -82 -113 -103
-142 -21 -29 -57 -83 -79 -122 -23 -38 -79 -131 -125 -206 -66 -108 -96 -171
-144 -300 -33 -90 -76 -203 -94 -250 -33 -83 -61 -181 -112 -399 -64 -275 -66
-289 -66 -455 0 -195 12 -294 69 -582 50 -252 115 -463 192 -623 57 -119 175
-307 224 -360 18 -19 64 -70 101 -112 37 -42 87 -92 110 -110 31 -24 36 -26
20 -7 -21 23 -23 27 -23 49 0 6 -5 10 -11 10 -8 0 -7 -6 2 -17 11 -15 10 -14
-9 1 -23 20 -30 32 -12 21 21 -13 8 9 -27 49 -21 23 -51 57 -66 76 -16 19 -25
28 -21 20 7 -13 5 -13 -9 -1 -9 7 -17 22 -17 31 0 10 -11 31 -24 47 -65 77
-204 335 -267 494 -53 134 -129 411 -130 479 -2 53 -2 54 -9 15 -7 -46 -6 -49
-40 98 -26 114 -28 440 -4 629 23 186 81 456 119 563 19 53 58 163 85 245 28
82 66 183 85 225 54 117 153 271 225 349 70 76 158 184 230 281 24 33 73 91
109 130 67 71 55 66 -32 -15 -57 -52 -132 -144 -236 -285 -85 -116 -91 -123
-91 -108 0 9 106 161 209 299 72 96 230 252 321 317 47 33 95 70 107 81 12 12
68 45 125 73 109 56 120 68 26 28z m-168 -109 c0 -2 -7 -7 -16 -10 -8 -3 -12
-2 -9 4 6 10 25 14 25 6z"/>
<path d="M6600 9578 c14 -14 57 -46 95 -72 41 -28 56 -35 35 -17 -50 43 -160
119 -130 89z"/>
<path d="M5416 9567 c3 -10 9 -15 12 -12 3 3 0 11 -7 18 -10 9 -11 8 -5 -6z"/>
<path d="M5600 9546 c128 -79 237 -153 294 -198 l61 -49 -65 61 c-72 67 -124
104 -247 174 -96 53 -124 61 -43 12z"/>
<path d="M4390 9542 c-62 -37 -140 -91 -167 -115 -12 -10 -26 -16 -33 -12 -6
3 -9 1 -8 -5 2 -7 -5 -14 -14 -15 -18 -3 -144 -108 -343 -284 -153 -137 -192
-174 -225 -219 -44 -61 -220 -149 -220 -111 0 6 -15 -9 -32 -32 -18 -23 -60
-63 -93 -89 -33 -26 -72 -64 -87 -86 -68 -100 -184 -491 -193 -654 l-5 -85 25
125 c13 69 36 168 50 220 14 52 35 131 46 175 12 44 25 85 31 90 15 15 1 -71
-37 -225 -18 -74 -36 -160 -40 -190 -4 -30 -11 -59 -15 -65 -9 -11 -30 -118
-30 -149 1 -32 51 108 115 317 26 86 27 88 46 71 10 -9 19 -30 19 -45 0 -30
-33 -115 -55 -139 -22 -25 -115 -278 -129 -352 -2 -13 -9 -35 -15 -50 -6 -17
-7 -29 -1 -33 6 -4 10 2 10 12 0 11 4 23 9 29 5 5 14 27 21 49 22 71 92 229
115 260 12 16 30 51 40 78 17 44 43 69 30 28 -3 -11 -8 -28 -10 -39 -2 -11
-10 -40 -19 -65 -35 -104 -49 -261 -43 -492 6 -204 9 -235 46 -420 77 -382
107 -470 226 -647 30 -45 53 -84 50 -86 -6 -6 -127 126 -150 165 -12 18 -25
30 -30 26 -4 -4 -5 -3 -1 4 3 6 -3 26 -13 45 -64 109 -160 443 -181 628 -24
222 -37 308 -40 260 -5 -87 2 -234 12 -260 6 -14 12 -52 13 -85 2 -33 12 -104
24 -159 12 -54 21 -101 21 -105 0 -3 5 1 11 9 8 12 9 10 4 -8 -4 -12 1 -46 11
-75 15 -45 18 -49 24 -28 5 23 7 21 18 -16 6 -22 26 -71 44 -109 18 -38 34
-73 37 -79 2 -5 -15 14 -38 44 -22 30 -41 47 -41 39 0 -29 157 -321 214 -398
71 -96 261 -313 271 -309 3 2 12 -6 18 -17 7 -12 26 -34 44 -48 18 -15 30 -33
27 -41 -3 -7 3 -16 15 -20 12 -3 26 -15 31 -26 11 -20 45 -26 55 -9 3 5 -34
49 -83 97 -50 49 -107 115 -128 148 -22 33 -44 60 -51 60 -22 0 -234 268 -222
280 5 4 147 -163 181 -214 10 -15 22 -26 27 -26 6 0 33 -24 60 -54 28 -30 54
-52 58 -48 4 4 -9 24 -28 45 -69 73 -156 231 -174 319 -20 94 -20 197 1 218
15 15 15 17 -1 35 -16 18 -15 27 20 187 20 92 41 173 47 180 17 20 48 15 58
-9 5 -13 27 -65 49 -115 37 -89 38 -93 17 -93 -20 0 -20 -1 3 -13 38 -19 30
-32 -21 -35 -45 -3 -47 -4 -35 -23 10 -17 9 -23 -9 -37 -56 -46 -70 -123 -34
-189 23 -43 25 -64 8 -81 -9 -9 -9 -12 3 -12 8 0 20 5 26 11 12 12 19 6 58
-53 l24 -38 -23 0 c-15 0 -27 -9 -35 -26 -15 -34 -8 -41 24 -24 14 7 28 10 32
7 13 -14 11 -56 -3 -61 -9 -3 -12 -11 -9 -17 4 -6 13 -8 21 -5 14 5 94 -42 94
-56 0 -4 7 -8 15 -8 14 0 105 -40 115 -50 10 -11 151 -30 219 -30 41 0 107 10
162 25 106 27 211 63 190 64 -14 1 -76 -16 -185 -50 -158 -50 -394 3 -513 115
-43 40 -85 101 -89 129 -1 12 -14 51 -29 86 -14 35 -29 86 -32 112 -6 47 -4
50 38 93 57 57 120 76 248 76 l96 0 -40 -19 c-47 -21 -111 -88 -132 -139 -32
-77 -13 -213 38 -275 34 -41 138 -96 196 -104 65 -9 148 21 197 71 58 57 79
122 74 226 l-3 78 33 -32 c33 -30 142 -188 142 -204 0 -5 11 -22 25 -38 14
-16 25 -23 25 -16 0 22 -28 82 -39 82 -10 0 -51 61 -51 75 0 13 42 -28 51 -50
7 -19 8 -19 8 -1 1 34 -79 156 -148 226 -86 87 -155 121 -371 183 -79 22 -189
30 -215 16 -15 -8 -115 2 -115 11 0 5 17 11 38 13 l37 4 -36 1 -36 2 -12 95
c-6 53 -12 101 -14 108 -3 18 76 11 149 -14 57 -18 63 -23 98 -82 l37 -62 -7
53 c-4 28 -4 52 -1 52 17 0 170 -66 227 -98 36 -20 85 -44 110 -53 25 -9 70
-27 100 -39 30 -13 102 -37 160 -55 l105 -31 37 -69 c21 -39 46 -90 55 -115
26 -65 114 -230 122 -230 14 0 -9 123 -25 142 -9 10 -14 26 -11 38 5 21 -33
202 -54 251 -6 16 -15 29 -19 29 -18 0 -89 478 -91 614 0 34 -7 108 -14 166
-14 105 -14 105 -10 -125 6 -327 39 -536 131 -819 14 -43 23 -83 22 -88 -6
-17 -99 182 -108 232 -15 76 -57 195 -63 179 -3 -8 -6 -3 -6 12 -1 15 -7 45
-15 67 -8 22 -14 64 -14 93 0 31 -11 87 -25 129 -13 41 -33 106 -43 145 -9 38
-19 65 -21 58 -2 -6 8 -59 22 -119 31 -130 42 -206 26 -184 -9 12 -10 8 -5
-15 9 -44 42 -160 66 -233 12 -34 18 -65 15 -68 -3 -4 -50 16 -104 44 -54 28
-127 60 -163 72 -95 32 -97 34 -109 92 -22 120 -24 318 -2 318 4 0 42 -73 86
-162 129 -262 217 -377 202 -265 -3 23 -17 92 -32 152 -32 136 -41 250 -24
330 7 37 11 122 10 220 -1 88 5 235 13 328 9 92 16 170 16 172 0 3 -6 5 -14 5
-35 0 -73 -214 -75 -414 -1 -51 -5 -86 -10 -80 -10 11 -31 161 -31 222 0 25
-5 42 -12 42 -15 0 -3 -239 18 -353 8 -45 21 -147 29 -227 15 -151 34 -237 66
-305 l19 -40 -40 45 c-22 24 -40 47 -41 50 0 3 -2 16 -4 30 -4 35 -102 247
-132 287 -14 18 -31 51 -38 75 -7 24 -20 59 -28 78 -17 40 -43 190 -56 330
l-10 95 5 -110 c16 -427 17 -518 4 -510 -9 6 -11 -3 -6 -41 3 -27 8 -83 11
-124 l5 -75 -30 95 c-16 52 -52 165 -80 250 -59 186 -65 210 -79 320 -19 150
-16 332 8 449 12 57 20 105 17 108 -6 6 -44 -161 -62 -274 -8 -54 -21 -165
-29 -248 -8 -82 -17 -160 -20 -173 -8 -33 -8 -368 1 -432 10 -83 -11 -51 -30
45 -43 221 -59 526 -36 688 6 38 30 128 55 200 24 72 43 133 41 134 -1 2 -26
-50 -53 -114 -60 -139 -106 -284 -97 -307 3 -9 2 -16 -4 -16 -19 0 -78 -192
-107 -350 -18 -103 -37 -363 -26 -370 5 -3 11 -27 15 -55 7 -57 -7 -44 -23 21
-6 21 -15 57 -21 79 -5 22 -13 88 -16 148 -3 59 -9 107 -12 107 -8 0 -72 -242
-134 -502 -23 -98 -45 -178 -49 -178 -4 0 -9 28 -12 63 -3 34 -11 114 -17 177
-13 131 -17 430 -7 535 l6 70 -14 -60 c-27 -119 -38 -291 -26 -399 6 -56 13
-146 15 -201 3 -55 8 -115 12 -132 4 -21 3 -33 -4 -33 -17 0 -32 94 -39 235
-5 100 -9 122 -15 95 -28 -119 4 -334 71 -487 34 -78 35 -83 22 -83 -10 0 -91
159 -91 179 0 6 -5 11 -11 11 -5 0 -7 5 -4 10 3 6 2 10 -3 10 -9 0 -34 92 -46
170 -17 110 -26 238 -27 406 -1 178 1 199 35 364 56 279 116 430 208 518 30
29 75 87 101 130 60 102 130 167 252 235 98 55 174 82 268 96 56 9 64 1 41
-34 -9 -14 10 0 43 32 66 65 84 88 136 185 48 87 47 108 -4 155 -55 51 -99 77
-194 114 -63 25 -90 30 -125 26 -54 -7 -306 -98 -367 -133 -24 -14 -43 -22
-43 -18 0 9 87 86 156 138 33 24 103 83 156 129 53 47 131 111 173 143 41 31
75 62 75 70 0 7 61 56 137 108 75 53 132 96 128 96 -5 0 0 7 11 15 30 23 13
17 -36 -13z m-228 -632 c53 -23 105 -51 114 -61 15 -17 15 -22 0 -65 -9 -26
-13 -56 -10 -68 3 -11 -2 -30 -11 -41 -14 -19 -15 -18 -5 9 17 48 3 41 -24
-12 -14 -27 -23 -52 -20 -55 11 -10 -31 -24 -93 -31 -33 -4 -99 -20 -145 -37
-108 -39 -128 -45 -108 -29 13 10 13 11 0 7 -8 -2 -15 -9 -15 -16 0 -12 -23
-31 -38 -31 -5 0 -5 5 -1 12 4 7 3 8 -5 4 -6 -4 -9 -12 -5 -17 3 -5 -16 -19
-43 -30 -26 -11 -59 -26 -72 -32 -25 -12 -110 -127 -133 -178 -7 -16 -16 -29
-20 -29 -5 0 -8 -9 -8 -20 0 -38 -46 -55 -144 -53 -91 3 -126 17 -126 50 0 7
-4 13 -9 13 -12 0 -32 52 -36 92 -2 18 -7 82 -11 141 -7 105 -6 108 17 133 80
86 481 298 709 375 76 26 129 19 242 -31z m-807 -857 c25 -3 45 -7 45 -8 0 -1
-11 -22 -24 -46 -34 -61 -69 -157 -61 -169 3 -5 2 -10 -3 -10 -11 0 -54 -140
-83 -270 -14 -63 -23 -143 -26 -240 -2 -80 -7 -156 -10 -170 -12 -51 -33 61
-39 203 -8 213 15 417 67 606 31 110 38 123 66 116 13 -3 43 -8 68 -12z m645
-575 c20 -79 41 -142 95 -278 29 -74 56 -146 60 -159 4 -14 20 -54 36 -89 24
-54 26 -62 11 -58 -9 3 -64 17 -122 31 -58 15 -108 29 -112 33 -15 16 -21 370
-8 466 8 53 17 96 21 96 5 0 13 -19 19 -42z m-183 -65 c7 -32 19 -107 28 -168
8 -60 23 -143 32 -182 9 -40 14 -75 12 -78 -5 -4 -95 8 -163 21 l-28 6 4 97
c3 73 14 128 43 229 21 72 44 132 50 132 6 0 16 -26 22 -57z m-760 -220 c-3
-10 -5 -2 -5 17 0 19 2 27 5 18 2 -10 2 -26 0 -35z m1161 3 c3 -12 -1 -17 -10
-14 -7 3 -15 13 -16 22 -3 12 1 17 10 14 7 -3 15 -13 16 -22z m-608 -181 c0
-8 -9 -15 -20 -15 -11 0 -20 7 -20 15 0 8 9 15 20 15 11 0 20 -7 20 -15z m604
-455 c30 -14 56 -35 76 -65 17 -25 26 -45 20 -45 -5 0 -13 0 -17 0 -8 0 -9 4
-12 35 -1 18 -58 49 -66 36 -3 -5 -1 -12 5 -16 5 -3 10 -12 10 -20 0 -9 -9 -5
-25 10 -23 24 -48 30 -120 27 -23 -1 -18 2 18 13 47 13 78 30 47 24 -8 -1 -23
1 -33 6 -11 4 -23 3 -30 -4 -13 -13 -57 -15 -57 -2 0 25 128 25 184 1z m-239
-52 c-34 -31 -37 -38 -42 -106 -3 -49 -1 -77 7 -87 9 -11 9 -15 1 -15 -6 0
-11 -8 -11 -17 0 -15 2 -16 10 -3 10 15 14 8 11 -22 -2 -13 2 -16 15 -11 11 4
15 3 10 -5 -9 -15 25 -48 47 -44 10 2 16 -2 15 -10 -2 -10 15 -14 65 -16 80
-3 127 12 119 40 -2 10 1 18 7 18 6 0 11 -5 11 -12 0 -16 39 22 56 54 8 15 14
39 14 53 0 15 4 24 10 20 6 -3 10 1 10 9 0 10 -6 13 -17 9 -13 -5 -15 -3 -8
13 4 10 7 29 6 42 -2 36 16 25 23 -14 33 -173 -178 -319 -325 -225 -24 15 -54
39 -66 52 -27 30 -41 79 -23 79 9 0 8 6 -3 18 -19 21 -23 52 -6 52 7 0 9 10 4
27 -8 34 26 103 63 125 40 24 38 14 -3 -24z m75 -12 c0 -2 -7 -9 -15 -16 -13
-11 -14 -10 -9 4 5 14 24 23 24 12z m105 -24 c38 -27 45 -119 13 -155 -35 -38
-71 -42 -105 -13 -15 13 -25 28 -21 32 5 4 16 0 26 -9 28 -25 69 -21 88 8 14
21 14 30 4 55 -10 23 -17 29 -31 25 -11 -4 -19 -2 -19 4 0 6 8 11 18 12 13 0
12 2 -5 9 -25 10 -30 26 -10 33 18 8 31 8 42 -1z m-144 -35 c-10 -9 -11 -8 -5
6 3 10 9 15 12 12 3 -3 0 -11 -7 -18z m-41 -1 c0 -3 -4 -8 -10 -11 -5 -3 -10
-1 -10 4 0 6 5 11 10 11 6 0 10 -2 10 -4z m291 -77 c-7 -22 -9 -45 -5 -51 4
-6 3 -8 -3 -5 -5 4 -19 -2 -30 -12 -10 -10 -30 -24 -44 -30 -20 -10 -21 -10
-9 1 45 38 80 97 80 134 1 33 2 36 12 20 7 -13 7 -29 -1 -57z m-261 -32 c0 -5
-4 -5 -10 -2 -5 3 -10 14 -10 23 0 15 2 15 10 2 5 -8 10 -19 10 -23z m27 -31
c-4 -9 -11 -16 -18 -16 -6 0 -8 7 -5 16 3 9 6 21 6 27 0 8 3 8 11 0 7 -7 9
-19 6 -27z m-317 -56 c0 -5 -6 -10 -14 -10 -8 0 -18 5 -21 10 -3 6 3 10 14 10
12 0 21 -4 21 -10z"/>
<path d="M3910 8856 c-20 -8 -60 -24 -90 -38 -30 -13 -108 -46 -172 -74 l-117
-49 -6 -40 c-3 -22 -7 -60 -9 -84 l-3 -43 45 6 c52 7 292 129 376 190 57 42
76 70 76 110 0 37 -37 45 -100 22z"/>
<path d="M3315 8568 c-23 -18 -26 -26 -23 -77 3 -55 4 -56 35 -59 25 -3 35 2
48 22 15 22 15 33 5 75 -14 58 -29 67 -65 39z"/>
<path d="M4163 9529 c-24 -17 -43 -32 -43 -35 0 -9 55 24 74 45 25 28 19 26
-31 -10z"/>
<path d="M4043 9497 c-70 -57 -78 -68 -21 -27 42 29 88 71 77 69 -2 0 -27 -19
-56 -42z"/>
<path d="M5207 9530 c-21 -4 -46 -15 -55 -25 -12 -13 -13 -15 -2 -9 8 4 42 16
75 25 61 18 51 23 -18 9z"/>
<path d="M5489 9463 c46 -57 70 -78 53 -47 -6 11 -30 37 -53 59 l-43 40 43
-52z"/>
<path d="M5106 9475 c-11 -8 -15 -15 -9 -15 6 0 16 7 23 15 16 19 11 19 -14 0z"/>
<path d="M5401 9474 c0 -11 3 -14 6 -6 3 7 2 16 -1 19 -3 4 -6 -2 -5 -13z"/>
<path d="M4059 9443 l-24 -27 33 23 c32 23 39 31 24 31 -5 0 -19 -12 -33 -27z"/>
<path d="M5018 9432 c-33 -35 -108 -154 -76 -122 82 83 126 137 119 148 -5 8
-18 0 -43 -26z"/>
<path d="M5760 9401 c124 -123 204 -196 176 -161 -16 19 -65 68 -110 109 -114
105 -143 128 -66 52z"/>
<path d="M5403 9380 c0 -36 2 -50 4 -32 2 17 2 47 0 65 -2 17 -4 3 -4 -33z"/>
<path d="M3235 9400 c-11 -5 -60 -26 -110 -48 -49 -22 -127 -61 -172 -88 -45
-27 -131 -76 -190 -108 -282 -155 -512 -330 -799 -609 -379 -368 -583 -623
-806 -1007 -128 -220 -142 -245 -201 -380 -233 -531 -304 -788 -407 -1487 -73
-491 -24 -1196 121 -1743 50 -189 109 -381 134 -440 13 -30 45 -109 71 -175
86 -221 254 -541 397 -755 126 -188 385 -520 406 -520 9 0 24 7 35 15 18 13
15 18 -48 92 -96 112 -287 368 -359 481 -169 269 -277 483 -407 807 -79 200
-96 248 -150 455 -67 252 -119 522 -150 770 -17 138 -24 657 -11 808 14 161
63 500 91 637 65 318 173 669 276 895 31 69 69 156 85 194 25 60 110 225 144
281 175 287 316 485 459 650 240 274 588 594 839 768 145 100 393 246 529 311
78 37 106 56 173 125 44 44 77 81 75 80 -3 0 -14 -4 -25 -9z m-2002 -1765 c-3
-9 -8 -14 -10 -11 -3 3 -2 9 2 15 9 16 15 13 8 -4z"/>
<path d="M6745 9380 c-3 -5 -16 -10 -28 -10 -22 -1 -22 -1 -2 -16 11 -8 29
-22 40 -32 11 -9 23 -16 27 -15 4 2 18 -12 33 -29 18 -22 23 -33 14 -38 -8 -6
-8 -10 2 -16 26 -17 192 -250 347 -487 28 -45 52 -77 52 -73 0 15 -102 221
-112 227 -5 3 -9 10 -9 15 1 5 -27 49 -62 98 -34 48 -74 106 -88 128 -14 21
-42 53 -62 69 -20 17 -37 34 -37 39 0 15 61 -31 150 -111 137 -124 231 -259
357 -510 26 -53 72 -142 101 -199 28 -57 52 -110 52 -117 0 -8 5 -11 12 -7 6
4 8 3 4 -4 -3 -6 21 -91 54 -189 94 -279 150 -550 169 -808 l8 -120 2 135 c1
131 -16 288 -55 498 -36 193 -188 579 -284 722 -10 14 -37 68 -61 120 -100
218 -174 316 -419 557 -102 101 -188 183 -192 183 -4 0 -10 -4 -13 -10z m65
-45 c7 -8 8 -15 2 -15 -5 0 -15 7 -22 15 -7 8 -8 15 -2 15 5 0 15 -7 22 -15z
m754 -1091 c3 -8 2 -12 -4 -9 -6 3 -10 10 -10 16 0 14 7 11 14 -7z"/>
<path d="M6550 9286 c0 -2 8 -10 18 -17 15 -13 16 -12 3 4 -13 16 -21 21 -21
13z"/>
<path d="M3719 9254 c-21 -22 -21 -24 -4 -18 20 7 20 7 1 -14 -11 -12 -22 -20
-25 -17 -6 6 -111 -95 -111 -108 0 -5 13 1 29 12 16 12 34 21 39 21 6 0 14 5
18 12 5 7 2 9 -7 4 -8 -5 8 12 35 37 29 26 46 50 41 56 -4 7 -1 18 5 26 21 25
5 17 -21 -11z"/>
<path d="M6790 9276 c0 -2 8 -10 18 -17 15 -13 16 -12 3 4 -13 16 -21 21 -21
13z"/>
<path d="M3590 9193 c-30 -31 -44 -49 -30 -40 31 21 95 86 89 91 -2 3 -29 -20
-59 -51z"/>
<path d="M7280 9223 c0 -12 100 -115 138 -143 19 -14 46 -35 60 -46 15 -12 45
-31 67 -42 113 -58 572 -446 736 -623 346 -371 556 -674 760 -1094 196 -405
310 -753 399 -1220 53 -276 73 -522 74 -910 1 -346 -4 -416 -45 -690 -53 -349
-175 -801 -285 -1057 -19 -43 -49 -113 -68 -155 -132 -306 -374 -722 -521
-898 -23 -27 -65 -81 -94 -119 -44 -59 -51 -73 -46 -100 6 -30 5 -31 -8 -7
l-14 23 -23 -32 c-24 -34 -20 -45 22 -55 24 -6 34 3 145 152 233 312 385 559
537 874 175 362 305 748 375 1109 78 403 94 563 95 935 0 724 -121 1349 -380
1960 -98 232 -243 510 -347 665 -85 127 -248 351 -288 395 -10 11 -46 54 -80
95 -118 145 -364 384 -560 545 -186 153 -250 200 -425 310 -43 27 -109 69
-147 92 -70 45 -77 48 -77 36z m1175 -7153 c3 -5 1 -10 -4 -10 -6 0 -11 5 -11
10 0 6 2 10 4 10 3 0 8 -4 11 -10z"/>
<path d="M4935 9191 c-17 -10 -58 -49 -92 -88 -59 -66 -77 -93 -53 -78 6 3 10
1 10 -5 0 -6 -8 -9 -17 -6 -32 10 -169 -191 -242 -353 -78 -173 -91 -214 -131
-421 -5 -25 -9 -61 -9 -80 0 -29 3 -24 18 30 45 158 122 359 208 537 44 91
131 223 219 330 24 30 44 61 44 69 0 8 3 14 8 14 10 1 75 61 70 65 -2 2 -17
-4 -33 -14z m-488 -883 c-3 -8 -6 -5 -6 6 -1 11 2 17 5 13 3 -3 4 -12 1 -19z
m-16 -45 c-12 -20 -14 -14 -5 12 4 9 9 14 11 11 3 -2 0 -13 -6 -23z"/>
<path d="M6735 9098 c37 -43 70 -78 73 -78 6 0 -92 112 -119 135 -13 11 8 -15
46 -57z"/>
<path d="M3605 9090 c-22 -15 -43 -26 -46 -24 -6 4 -30 -20 -44 -44 -6 -11 -3
-12 13 -3 12 6 24 16 27 21 3 6 11 10 18 10 6 0 -1 -12 -18 -27 -16 -15 -36
-28 -44 -28 -8 0 -34 -31 -57 -70 -40 -66 -54 -105 -36 -105 8 0 88 105 140
185 19 27 48 65 65 83 37 39 34 39 -18 2z m-101 -124 c-3 -9 -10 -16 -15 -16
-6 0 -5 9 1 21 13 24 24 20 14 -5z"/>
<path d="M4992 8983 c-59 -117 -82 -188 -192 -579 -61 -214 -136 -674 -111
-674 6 0 11 16 11 36 0 20 11 87 24 148 14 61 32 151 41 201 22 121 124 430
155 470 4 6 18 42 30 80 13 39 36 97 51 131 16 34 29 63 29 67 0 3 21 49 47
104 60 125 60 123 35 92 -29 -36 -164 -319 -192 -402 -13 -37 -27 -70 -31 -73
-5 -3 -9 -14 -9 -25 0 -10 -4 -19 -9 -19 -12 0 -11 5 33 155 48 168 74 240
113 318 18 37 31 67 28 67 -3 0 -27 -44 -53 -97z"/>
<path d="M5960 9001 c5 -11 15 -23 21 -27 6 -3 3 5 -6 20 -20 30 -30 35 -15 7z"/>
<path d="M2845 8984 c-11 -8 -73 -42 -137 -75 -64 -33 -152 -85 -195 -116
-285 -206 -404 -307 -609 -523 -218 -229 -324 -364 -528 -670 -81 -122 -240
-416 -286 -530 -10 -25 -39 -94 -65 -155 -239 -560 -371 -1282 -352 -1925 16
-510 136 -1094 315 -1535 151 -372 362 -742 572 -1007 43 -53 81 -94 86 -90 4
4 4 1 0 -5 -7 -13 9 -36 117 -163 l58 -68 29 15 c16 8 32 18 34 22 3 4 -20 32
-50 62 -31 30 -83 88 -117 129 -33 41 -74 89 -89 105 -16 17 -34 40 -41 52 -7
12 -61 95 -120 183 -173 258 -242 382 -362 655 -155 351 -261 732 -329 1185
-56 371 -58 801 -6 1176 128 906 458 1674 984 2288 47 55 83 103 80 108 -3 5
-1 7 3 6 5 -2 79 67 164 153 226 228 552 479 760 584 28 15 63 39 77 53 27 29
62 82 62 95 0 12 -34 7 -55 -9z"/>
<path d="M4544 8952 c-60 -92 -66 -102 -62 -102 7 0 100 141 96 145 -2 2 -17
-18 -34 -43z"/>
<path d="M4471 8914 c-12 -15 -21 -31 -21 -37 0 -12 -1 -13 29 31 27 38 21 43
-8 6z"/>
<path d="M4373 8723 c-8 -21 -34 -81 -58 -133 -61 -138 -64 -161 -4 -45 46 90
94 215 83 215 -3 0 -12 -17 -21 -37z"/>
<path d="M5191 8734 c0 -11 3 -14 6 -6 3 7 2 16 -1 19 -3 4 -6 -2 -5 -13z"/>
<path d="M7650 8726 c0 -28 75 -114 254 -291 117 -115 252 -256 301 -313 82
-97 119 -128 78 -66 -10 16 -12 25 -5 21 41 -26 -32 72 -182 243 -139 158
-230 248 -336 331 -91 70 -110 83 -110 75z"/>
<path d="M2632 8662 c-239 -147 -596 -475 -811 -747 -410 -516 -554 -773 -753
-1340 -62 -178 -128 -420 -154 -565 -73 -416 -84 -521 -85 -882 -2 -222 2
-329 15 -443 48 -408 167 -885 306 -1214 128 -307 325 -647 518 -897 67 -86
254 -303 293 -341 32 -30 36 -31 72 -20 20 7 37 15 37 19 0 3 -37 44 -82 90
-421 426 -724 950 -912 1581 -74 247 -104 387 -141 663 -37 276 -46 462 -35
731 23 542 115 950 340 1513 192 479 528 984 899 1349 127 124 281 257 411
356 53 40 107 88 121 106 24 31 63 100 57 98 -2 0 -45 -26 -96 -57z"/>
<path d="M5181 8694 c0 -11 3 -14 6 -6 3 7 2 16 -1 19 -3 4 -6 -2 -5 -13z"/>
<path d="M5166 8644 c-4 -14 -5 -28 -3 -31 3 -2 8 8 11 23 4 14 5 28 3 31 -3
2 -8 -8 -11 -23z"/>
<path d="M8040 8489 c121 -135 178 -203 193 -232 7 -12 22 -36 35 -54 12 -17
22 -36 22 -42 0 -6 4 -11 9 -11 5 0 16 -15 24 -32 9 -18 24 -42 34 -54 10 -11
23 -27 28 -36 26 -41 170 -248 200 -288 19 -25 50 -65 69 -90 18 -25 58 -90
87 -145 29 -55 73 -136 96 -180 24 -44 53 -100 64 -125 11 -25 30 -66 41 -92
12 -27 28 -48 36 -48 10 0 12 -7 8 -24 -4 -16 5 -47 25 -93 120 -264 254 -744
303 -1088 55 -387 66 -859 28 -1175 -56 -456 -96 -638 -227 -1035 -38 -114
-181 -450 -204 -479 -4 -6 -32 -58 -62 -116 -74 -146 -151 -279 -223 -385 -34
-49 -63 -92 -66 -95 -3 -3 -18 -24 -33 -47 -16 -23 -89 -113 -163 -200 -74
-87 -134 -164 -134 -170 0 -8 12 -13 28 -13 28 0 67 37 201 194 225 262 525
789 672 1181 17 44 37 96 44 116 23 62 92 297 125 429 43 170 78 374 110 645
29 245 22 722 -16 1060 -61 544 -255 1157 -527 1663 -77 143 -107 193 -234
377 -131 191 -318 416 -339 408 -8 -3 -14 0 -14 7 0 6 5 8 10 5 26 -16 4 14
-52 74 -35 37 -99 106 -143 154 -44 48 -96 100 -115 115 -19 14 8 -21 60 -79z
m260 -6309 c0 -5 -4 -10 -10 -10 -5 0 -10 5 -10 10 0 6 5 10 10 10 6 0 10 -4
10 -10z"/>
<path d="M4632 8463 c-15 -48 -8 -55 8 -8 7 20 10 38 8 41 -3 2 -10 -13 -16
-33z"/>
<path d="M5154 8478 c-6 -21 -8 -21 -13 -4 -5 12 -21 -29 -50 -123 -23 -77
-40 -144 -37 -150 3 -5 2 -11 -3 -13 -16 -6 -101 -395 -150 -688 -38 -225 -55
-565 -31 -611 6 -10 16 -49 23 -85 7 -36 17 -64 22 -62 12 4 12 8 -10 173 -25
191 -15 354 39 625 66 333 185 844 216 925 6 15 9 30 6 32 -2 3 -8 -6 -12 -19z"/>
<path d="M5617 8385 c9 -182 -31 -472 -102 -745 -31 -119 -117 -345 -142 -373
-10 -12 -25 -40 -32 -62 -7 -22 -26 -68 -42 -103 -16 -35 -29 -70 -29 -77 0
-7 -8 -21 -17 -31 -16 -16 -46 -94 -39 -101 4 -4 76 100 114 164 89 150 227
524 267 718 38 187 53 564 28 675 -9 37 -10 25 -6 -65z"/>
<path d="M4671 8409 c-6 -28 -10 -54 -7 -56 2 -2 9 19 15 48 6 28 10 54 7 56
-2 2 -9 -19 -15 -48z"/>
<path d="M7381 8449 c-1 -3 19 -55 43 -116 179 -449 273 -1062 231 -1508 -9
-92 11 -23 30 101 45 301 -31 842 -176 1251 -21 60 -127 284 -128 272z"/>
<path d="M5023 8425 c-3 -9 -3 -18 -1 -21 3 -3 8 4 11 16 6 23 -1 27 -10 5z"/>
<path d="M7820 8390 c0 -31 34 -92 81 -147 119 -138 146 -169 174 -199 17 -17
44 -49 61 -70 17 -22 56 -68 86 -104 30 -36 75 -93 99 -126 24 -33 50 -66 57
-74 29 -35 81 -109 107 -155 16 -27 43 -70 61 -95 17 -25 44 -67 59 -95 71
-129 208 -390 229 -437 13 -29 40 -89 59 -133 52 -116 141 -390 182 -556 110
-453 157 -958 125 -1344 -44 -526 -168 -1030 -350 -1430 -81 -176 -109 -233
-180 -355 -157 -273 -319 -497 -504 -700 -48 -52 -93 -107 -102 -122 -13 -25
-13 -28 5 -38 36 -19 49 -11 125 73 380 417 674 931 871 1522 98 295 151 550
196 950 17 143 17 570 1 759 -26 294 -97 656 -192 971 -80 264 -111 336 -307
700 -9 17 -33 63 -55 103 -21 40 -57 100 -81 133 -23 34 -53 80 -67 103 -14
23 -40 61 -57 83 -18 23 -33 44 -33 48 0 4 -13 23 -30 42 -16 18 -30 40 -30
48 0 8 -11 22 -25 31 -14 9 -22 20 -19 25 3 5 -27 44 -68 86 -78 82 -81 86
-115 130 -12 15 -48 55 -80 89 -32 33 -65 70 -73 82 -8 13 -59 68 -112 123
-73 74 -98 94 -98 79z m90 -90 c0 -5 -2 -10 -4 -10 -3 0 -8 5 -11 10 -3 6 -1
10 4 10 6 0 11 -4 11 -10z"/>
<path d="M4971 8374 c0 -11 3 -14 6 -6 3 7 2 16 -1 19 -3 4 -6 -2 -5 -13z"/>
<path d="M5470 8300 c0 -40 2 -71 4 -69 7 7 10 129 3 136 -4 3 -7 -27 -7 -67z"/>
<path d="M2897 8283 c-97 -195 -174 -421 -217 -638 -41 -210 -47 -291 -10
-130 17 72 40 162 51 200 12 39 28 95 35 125 17 73 92 290 142 413 23 53 39
97 36 97 -2 0 -19 -30 -37 -67z"/>
<path d="M5400 8293 c0 -32 -7 -119 -15 -193 -8 -74 -21 -202 -30 -285 -8 -82
-20 -172 -25 -200 -5 -27 -12 -79 -15 -115 -4 -36 -17 -123 -30 -195 -13 -71
-26 -152 -29 -180 -4 -27 -9 -63 -11 -80 -5 -27 -4 -28 5 -7 17 39 101 578
136 867 15 129 30 445 21 445 -4 0 -7 -26 -7 -57z"/>
<path d="M5941 8324 c0 -11 3 -14 6 -6 3 7 2 16 -1 19 -3 4 -6 -2 -5 -13z"/>
<path d="M4941 8289 c-6 -18 -11 -37 -10 -43 0 -6 7 7 15 28 8 22 12 41 10 43
-2 2 -9 -10 -15 -28z"/>
<path d="M4571 8254 c0 -11 3 -14 6 -6 3 7 2 16 -1 19 -3 4 -6 -2 -5 -13z"/>
<path d="M6241 8210 c0 -8 4 -24 9 -35 5 -13 9 -14 9 -5 0 8 -4 24 -9 35 -5
13 -9 14 -9 5z"/>
<path d="M5462 8164 c-1 -28 -4 -73 -7 -100 l-4 -49 10 49 c5 27 8 72 6 100
l-3 51 -2 -51z"/>
<path d="M4552 8180 c0 -14 2 -19 5 -12 2 6 2 18 0 25 -3 6 -5 1 -5 -13z"/>
<path d="M4907 8193 c-7 -12 -20 -79 -14 -73 6 6 27 80 22 80 -2 0 -6 -3 -8
-7z"/>
<path d="M4541 8134 c0 -11 3 -14 6 -6 3 7 2 16 -1 19 -3 4 -6 -2 -5 -13z"/>
<path d="M3761 8085 c-68 -113 -149 -325 -190 -500 -80 -345 -160 -798 -137
-774 2 2 16 74 30 159 32 195 71 354 95 394 10 17 30 90 45 161 41 204 100
400 162 534 19 41 33 76 31 77 -2 2 -18 -21 -36 -51z"/>
<path d="M4861 8024 c0 -11 3 -14 6 -6 3 7 2 16 -1 19 -3 4 -6 -2 -5 -13z"/>
<path d="M8346 7965 c21 -24 40 -43 42 -40 6 6 -58 85 -69 85 -6 0 7 -20 27
-45z"/>
<path d="M4852 7970 c0 -14 2 -19 5 -12 2 6 2 18 0 25 -3 6 -5 1 -5 -13z"/>
<path d="M5435 7900 c-4 -34 -5 -63 -2 -66 3 -3 8 22 12 56 4 34 5 63 2 66 -3
3 -8 -22 -12 -56z"/>
<path d="M7403 7825 c0 -22 2 -30 4 -17 2 12 2 30 0 40 -3 9 -5 -1 -4 -23z"/>
<path d="M6070 7760 c-2 -47 -4 -105 -5 -130 -1 -25 -4 -65 -8 -90 -6 -42 -5
-42 8 10 10 37 14 94 12 175 -3 112 -3 115 -7 35z"/>
<path d="M3576 7795 c-9 -26 -7 -32 5 -12 6 10 9 21 6 23 -2 3 -7 -2 -11 -11z"/>
<path d="M5416 7758 c-3 -13 -5 -39 -5 -58 1 -28 3 -25 10 19 9 55 6 80 -5 39z"/>
<path d="M4092 7690 c0 -19 2 -27 5 -17 2 9 2 25 0 35 -3 9 -5 1 -5 -18z"/>
<path d="M3528 7651 c-24 -81 -22 -101 3 -26 10 33 18 66 16 73 -1 7 -10 -14
-19 -47z"/>
<path d="M6945 7669 c28 -147 37 -255 32 -369 -13 -277 -103 -643 -189 -771
-9 -14 -17 -43 -17 -65 0 -21 -4 -54 -10 -72 -11 -37 -4 -95 10 -86 5 3 9 -2
9 -10 0 -9 -4 -16 -10 -16 -5 0 -10 -10 -10 -22 0 -41 -29 -121 -87 -238 -52
-103 -68 -125 -153 -210 -142 -143 -195 -174 -340 -197 l-55 -9 55 -18 c88
-29 249 -33 346 -8 43 11 88 24 98 28 15 6 12 -3 -14 -41 -19 -27 -50 -67 -69
-89 l-36 -40 34 23 c33 24 33 24 26 2 -3 -11 -4 -21 -1 -21 12 0 96 85 102
104 10 31 128 180 159 200 16 11 24 23 21 32 -3 9 -1 12 4 9 6 -3 10 -1 10 6
0 7 27 39 60 71 68 67 83 104 18 42 -90 -85 -274 -215 -343 -242 -72 -28 -211
-62 -253 -62 -56 0 -48 9 38 43 113 45 213 91 270 124 181 105 432 392 564
646 66 127 94 204 151 415 67 252 91 474 66 607 -5 32 -9 14 -14 -85 -11 -182
-52 -455 -93 -610 -29 -109 -47 -156 -96 -245 -86 -155 -198 -316 -281 -405
-96 -101 -314 -286 -377 -320 -24 -13 -24 -12 -10 6 8 10 58 64 111 119 239
248 411 507 488 730 11 33 32 91 46 130 36 96 61 368 47 511 l-9 99 -2 -90
c-2 -121 -35 -394 -60 -491 -40 -158 -101 -305 -132 -321 -31 -16 -39 -6 -13
15 11 10 25 35 32 57 6 22 20 71 31 109 33 111 51 262 50 417 0 219 -16 263
-19 54 -2 -169 -3 -187 -14 -276 -16 -125 -122 -367 -219 -499 -30 -41 -51
-77 -46 -80 4 -3 0 -19 -11 -34 l-19 -29 6 44 c4 24 16 59 27 79 12 19 29 58
39 85 108 305 127 390 134 625 5 156 2 197 -22 370 -16 107 -36 218 -47 245
-10 28 -16 38 -13 24z m62 -611 c-8 -158 -44 -328 -94 -448 -22 -52 -51 -122
-64 -154 -13 -33 -29 -61 -36 -63 -6 -2 20 87 57 199 68 199 120 434 120 537
0 35 6 51 18 51 3 0 2 -55 -1 -122z m-76 -485 c-9 -16 -10 -15 -11 8 0 14 3
29 8 33 12 12 14 -22 3 -41z m89 -143 c0 -5 -5 -10 -11 -10 -5 0 -7 5 -4 10 3
6 8 10 11 10 2 0 4 -4 4 -10z m-230 -70 c0 -22 -4 -40 -10 -40 -11 0 -13 39
-4 64 10 26 14 19 14 -24z m200 -19 c-23 -46 -129 -211 -135 -211 -3 0 -2 8 2
18 5 13 -1 11 -22 -8 -28 -25 -38 -39 -108 -145 -41 -62 -57 -69 -30 -14 27
55 88 140 147 204 31 33 79 95 108 139 53 80 76 90 38 17z m-184 -158 c-11
-11 -19 6 -11 24 8 17 8 17 12 0 3 -10 2 -21 -1 -24z m-71 -333 c-3 -5 -12
-10 -18 -10 -7 0 -6 4 3 10 19 12 23 12 15 0z m-235 -94 c0 -3 -15 -15 -32
-27 l-33 -23 24 27 c22 24 41 35 41 23z m20 -30 c0 -2 -8 -10 -17 -17 -16 -13
-17 -12 -4 4 13 16 21 21 21 13z"/>
<path d="M4101 7619 c1 -19 5 -47 10 -64 5 -20 6 -9 2 30 -6 66 -14 88 -12 34z"/>
<path d="M7261 7624 c0 -11 3 -14 6 -6 3 7 2 16 -1 19 -3 4 -6 -2 -5 -13z"/>
<path d="M5441 7604 c0 -11 3 -14 6 -6 3 7 2 16 -1 19 -3 4 -6 -2 -5 -13z"/>
<path d="M5403 7575 c0 -22 2 -30 4 -17 2 12 2 30 0 40 -3 9 -5 -1 -4 -23z"/>
<path d="M5701 7584 c0 -11 3 -14 6 -6 3 7 2 16 -1 19 -3 4 -6 -2 -5 -13z"/>
<path d="M7262 7560 c0 -19 2 -27 5 -17 2 9 2 25 0 35 -3 9 -5 1 -5 -18z"/>
<path d="M4577 7563 c-10 -9 -7 -283 3 -313 5 -15 8 46 9 148 1 94 0 172 -2
172 -2 0 -7 -3 -10 -7z"/>
<path d="M2961 7534 c0 -11 3 -14 6 -6 3 7 2 16 -1 19 -3 4 -6 -2 -5 -13z"/>
<path d="M4122 7500 c0 -14 2 -19 5 -12 2 6 2 18 0 25 -3 6 -5 1 -5 -13z"/>
<path d="M4134 7444 c3 -16 9 -46 13 -66 3 -21 10 -38 15 -38 6 0 7 11 3 28
-3 15 -9 42 -12 60 -3 18 -10 35 -16 39 -6 4 -8 -4 -3 -23z"/>
<path d="M7232 7410 c0 -14 2 -19 5 -12 2 6 2 18 0 25 -3 6 -5 1 -5 -13z"/>
<path d="M5372 7380 c0 -14 2 -19 5 -12 2 6 2 18 0 25 -3 6 -5 1 -5 -13z"/>
<path d="M2631 7364 c0 -11 3 -14 6 -6 3 7 2 16 -1 19 -3 4 -6 -2 -5 -13z"/>
<path d="M5362 7330 c0 -14 2 -19 5 -12 2 6 2 18 0 25 -3 6 -5 1 -5 -13z"/>
<path d="M7320 7304 c0 -72 -30 -367 -45 -447 -7 -39 -12 -73 -10 -75 8 -9 37
111 50 208 20 152 29 347 16 355 -7 4 -11 -10 -11 -41z"/>
<path d="M4161 7318 c1 -7 5 -24 9 -38 8 -24 8 -24 9 7 1 17 -3 35 -9 38 -5 3
-10 0 -9 -7z"/>
<path d="M7499 7065 c-10 -225 -67 -525 -141 -740 -17 -49 -58 -148 -91 -220
-33 -71 -75 -166 -95 -210 -46 -103 -159 -301 -214 -373 -62 -83 -101 -127
-109 -125 -4 1 -33 -27 -65 -64 -32 -36 -49 -61 -39 -55 39 20 203 172 242
224 136 177 309 517 366 718 98 344 160 696 155 886 l-3 109 -6 -150z"/>
<path d="M4531 7175 c0 -11 6 -42 13 -70 18 -65 19 -37 1 35 -7 30 -14 46 -14
35z"/>
<path d="M5181 7118 c-16 -91 -31 -281 -30 -368 l2 -75 9 95 c30 327 37 405
34 408 -2 1 -9 -25 -15 -60z"/>
<path d="M7606 6908 c-12 -193 -47 -352 -126 -577 -84 -241 -188 -465 -286
-619 -39 -61 -39 -61 -16 -58 9 1 26 20 38 42 11 21 34 54 51 72 18 18 68 106
112 195 131 264 222 608 236 895 4 83 5 152 2 152 -2 0 -7 -46 -11 -102z"/>
<path d="M2841 6834 c0 -11 3 -14 6 -6 3 7 2 16 -1 19 -3 4 -6 -2 -5 -13z"/>
<path d="M2927 6820 c16 -98 139 -463 189 -562 15 -29 50 -85 78 -125 28 -40
64 -94 81 -120 39 -64 115 -167 115 -157 0 4 -35 60 -78 123 -92 136 -182 284
-182 299 0 6 -10 28 -22 48 -15 26 -18 36 -7 32 8 -2 27 -29 42 -59 73 -139
387 -489 487 -540 45 -24 160 -69 160 -63 0 1 -53 45 -117 97 -198 158 -391
359 -500 522 -55 81 -130 234 -187 380 -64 162 -66 167 -59 125z m718 -1020
c3 -5 -1 -10 -9 -10 -9 0 -16 5 -16 10 0 6 4 10 9 10 6 0 13 -4 16 -10z"/>
<path d="M6310 6775 c-25 -13 -41 -24 -37 -25 11 0 87 39 87 45 0 7 0 7 -50
-20z"/>
<path d="M4115 6750 c11 -5 27 -9 35 -9 9 0 8 4 -5 9 -11 5 -27 9 -35 9 -9 0
-8 -4 5 -9z"/>
<path d="M2861 6734 c0 -11 3 -14 6 -6 3 7 2 16 -1 19 -3 4 -6 -2 -5 -13z"/>
<path d="M3808 6733 c7 -3 16 -2 19 1 4 3 -2 6 -13 5 -11 0 -14 -3 -6 -6z"/>
<path d="M4200 6724 c19 -8 42 -18 50 -24 8 -5 38 -20 67 -35 67 -34 192 -156
233 -228 32 -57 45 -73 33 -39 -24 64 -149 207 -231 264 -43 30 -155 79 -176
77 -6 0 5 -7 24 -15z"/>
<path d="M2876 6648 c3 -37 12 -91 20 -120 8 -29 16 -57 17 -63 2 -5 8 -19 15
-30 l13 -20 -5 20 c-10 39 -46 191 -55 235 -9 41 -10 39 -5 -22z"/>
<path d="M4530 6617 c19 -21 125 -96 129 -91 3 3 -7 15 -23 27 -32 24 -114 74
-106 64z"/>
<path d="M5676 6569 c-26 -35 -31 -47 -17 -40 22 12 71 68 71 82 0 21 -20 6
-54 -42z"/>
<path d="M5675 6405 c-43 -70 -48 -80 -33 -65 19 19 61 90 54 90 -3 0 -12 -11
-21 -25z"/>
<path d="M4596 6357 c3 -10 9 -15 12 -12 3 3 0 11 -7 18 -10 9 -11 8 -5 -6z"/>
<path d="M6658 6323 c7 -3 16 -2 19 1 4 3 -2 6 -13 5 -11 0 -14 -3 -6 -6z"/>
<path d="M5604 6295 c-9 -14 -15 -28 -12 -30 2 -2 12 9 22 25 21 36 13 40 -10
5z"/>
<path d="M2021 6128 c1 -7 5 -24 9 -38 7 -22 8 -21 9 13 1 20 -3 37 -9 37 -5
0 -10 -6 -9 -12z"/>
<path d="M6520 6108 c-12 -22 -12 -22 6 -6 10 10 15 20 12 24 -4 3 -12 -5 -18
-18z"/>
<path d="M3755 6081 c27 -30 128 -88 193 -112 l27 -9 -23 17 c-12 10 -48 28
-80 41 -33 12 -79 39 -103 59 -44 36 -44 36 -14 4z"/>
<path d="M7525 6044 c-24 -92 -85 -272 -117 -349 -42 -100 -43 -105 -15 -60
44 69 55 96 95 225 46 149 66 229 59 237 -3 3 -13 -21 -22 -53z"/>
<path d="M5730 6085 c0 -8 108 -52 154 -64 60 -15 71 -8 21 14 -21 8 -40 13
-43 11 -2 -3 -16 1 -31 8 -27 15 -101 37 -101 31z"/>
<path d="M4485 6018 c-33 -11 -69 -28 -80 -36 l-20 -14 20 7 c11 4 31 11 45
15 40 13 100 40 100 45 0 6 5 8 -65 -17z"/>
<path d="M5710 6021 c32 -25 158 -76 167 -68 3 4 0 7 -8 7 -8 0 -53 18 -100
40 -46 22 -73 32 -59 21z"/>
<path d="M6333 5999 c-23 -11 -48 -28 -55 -36 -12 -14 63 20 102 46 26 18 -3
12 -47 -10z"/>
<path d="M3303 5740 c63 -74 127 -137 127 -125 0 6 -39 49 -87 95 -66 65 -75
72 -40 30z"/>
<path d="M6898 5624 c-27 -31 -48 -60 -48 -65 0 -12 75 73 90 102 16 29 9 23
-42 -37z"/>
<path d="M2840 5650 c6 -11 13 -20 16 -20 2 0 0 9 -6 20 -6 11 -13 20 -16 20
-2 0 0 -9 6 -20z"/>
<path d="M7530 5640 c0 -19 3 -21 12 -12 9 9 9 15 0 24 -9 9 -12 7 -12 -12z"/>
<path d="M6486 5395 c-11 -8 -15 -15 -9 -15 6 0 16 7 23 15 16 19 11 19 -14 0z"/>
<path d="M3420 5372 c0 -12 19 -26 26 -19 2 2 -2 10 -11 17 -9 8 -15 8 -15 2z"/>
<path d="M4920 5315 c-16 -20 -5 -33 35 -41 20 -3 38 -10 41 -15 3 -5 12 -9
20 -9 11 0 14 6 9 23 -14 48 -78 75 -105 42z"/>
<path d="M5215 5318 c-27 -14 -45 -38 -45 -59 0 -16 6 -15 62 7 73 28 74 29
58 49 -15 17 -46 19 -75 3z"/>
<path d="M4094 5260 c-136 -27 -161 -45 -122 -88 13 -15 34 -44 46 -65 63
-110 234 -284 362 -367 155 -100 345 -179 560 -231 163 -40 336 -14 601 92
140 55 235 109 364 205 125 93 175 143 261 264 84 117 90 129 70 148 -8 8 -23
16 -33 17 -10 1 -39 9 -66 20 -52 20 -77 16 -27 -5 17 -7 29 -18 27 -23 -9
-27 -181 -94 -312 -122 -395 -85 -509 -100 -745 -100 -233 0 -411 25 -710 99
-129 32 -299 104 -300 127 0 4 24 13 53 22 55 16 39 20 -29 7z m98 -153 c35
-4 37 -6 53 -61 15 -48 6 -60 -18 -25 -15 21 -15 21 -29 -7 -7 -15 -17 -29
-23 -30 -15 -4 -53 60 -61 102 -7 36 -6 37 22 30 16 -3 41 -8 56 -9z m1874
-12 c5 -19 -2 -40 -28 -82 -19 -30 -39 -55 -44 -55 -9 1 -33 83 -34 115 0 9 8
17 18 17 9 1 28 7 42 15 34 20 39 19 46 -10z m-1705 -25 c12 -7 19 -21 19 -40
0 -17 4 -30 8 -30 5 0 15 -19 22 -42 13 -42 13 -42 20 -16 5 15 18 41 30 58
18 25 28 30 64 30 70 0 71 -11 14 -119 -28 -53 -55 -100 -59 -105 -5 -6 -9
-18 -9 -28 0 -29 -17 -21 -30 15 -6 17 -17 41 -23 52 -6 11 -18 48 -27 83
l-16 63 -24 -51 c-13 -27 -31 -57 -41 -66 -20 -18 -17 -24 -38 74 -12 55 2 98
38 117 32 17 28 17 52 5z m1575 -15 c-12 -45 -87 -235 -96 -240 -5 -3 -12 11
-15 32 -3 21 -15 68 -27 104 -29 96 -25 103 49 109 34 3 65 8 69 13 15 15 26
6 20 -18z m-229 -47 c19 -18 26 -20 32 -9 18 29 29 6 16 -34 -7 -22 -22 -73
-34 -112 -21 -71 -41 -95 -41 -50 0 12 -10 42 -21 67 -19 40 -49 133 -49 153
0 17 75 6 97 -15z m-973 -18 c11 -4 20 -17 21 -31 7 -96 18 -198 24 -205 3 -5
20 -18 36 -28 17 -10 24 -13 18 -5 -19 19 -16 26 9 24 27 -2 58 -49 58 -88 0
-36 55 -97 87 -97 15 0 23 -6 23 -16 0 -14 -7 -16 -40 -11 -23 3 -53 13 -68
23 -15 10 -31 19 -37 20 -5 0 -15 2 -22 2 -14 2 -47 57 -63 108 -7 21 -25 53
-40 69 -41 44 -99 154 -109 208 l-8 46 46 -6 c25 -3 55 -9 65 -13z m832 -12
c-4 -18 -17 -53 -30 -78 -13 -25 -26 -56 -29 -70 -3 -14 -24 -43 -47 -65 l-40
-39 0 126 c0 88 4 129 13 136 14 12 47 19 101 21 38 1 38 1 32 -31z m-658 -14
c17 -11 35 -13 82 -8 33 4 60 3 60 -2 0 -5 -9 -38 -20 -72 -27 -87 -26 -105
18 -176 20 -33 42 -72 47 -85 10 -23 12 -21 39 40 16 35 37 70 48 77 24 17 23
43 -3 94 -16 32 -48 121 -49 136 0 7 61 1 89 -9 23 -8 35 -8 45 0 17 14 116
27 116 16 0 -5 -32 -69 -71 -142 -55 -101 -77 -135 -95 -139 -13 -4 -24 -11
-24 -18 0 -6 -14 -44 -32 -84 -29 -64 -36 -72 -58 -70 -20 3 -33 18 -65 81
-22 42 -52 87 -66 100 -39 33 -149 231 -149 267 0 16 63 12 88 -6z m697 -204
c12 10 17 7 25 -15 5 -14 10 -36 10 -48 0 -22 -36 -67 -54 -67 -8 0 -8 2 0 8
6 4 8 18 5 30 l-6 24 -27 -21 c-14 -12 -29 -21 -33 -21 -12 0 6 73 33 135 l27
60 3 -48 c3 -41 5 -47 17 -37z m-995 45 c17 11 42 -45 47 -105 5 -50 3 -60
-10 -60 -9 0 -23 7 -32 17 -14 13 -18 14 -25 3 -7 -11 -11 -11 -24 -1 -18 15
-21 56 -6 66 6 3 10 17 10 31 0 31 21 75 28 56 2 -6 8 -10 12 -7z m743 -102
c7 2 19 17 27 33 12 25 15 26 18 9 6 -28 -17 -123 -34 -140 -9 -8 -29 -15 -45
-15 -24 0 -29 -4 -29 -25 0 -20 -7 -26 -39 -35 -21 -5 -46 -8 -54 -4 -23 8
-10 32 21 39 15 3 38 14 52 25 20 15 25 28 26 74 1 36 8 65 20 83 l19 28 3
-38 c2 -24 8 -37 15 -34z m331 10 c8 -19 -7 -38 -22 -29 -11 7 -4 46 8 46 4 0
11 -8 14 -17z m-194 -71 c0 -11 -8 -26 -17 -34 -18 -16 -77 -48 -88 -48 -15 0
-1 28 32 62 40 41 73 50 73 20z m-726 -23 c34 -26 33 -39 -2 -39 -37 0 -67 22
-59 44 9 22 29 20 61 -5z"/>
<path d="M4592 4710 c0 -19 2 -27 5 -17 2 9 2 25 0 35 -3 9 -5 1 -5 -18z"/>
</g>
</svg>
